M48
; DRILL file {KiCad 9.0.7} date 2026-09-23T18:42:29+1200
; FORMAT={-:-/ absolute / metric / decimal}
; #@! TF.CreationDate,2026-09-23T18:42:29+12:00
; #@! TF.GenerationSoftware,Kicad,Pcbnew,9.0.7
; #@! TF.FileFunction,Plated,1,2,PTH
FMAT,2
METRIC
; #@! TA.AperFunction,Plated,PTH,ComponentDrill
T1C0.800
; #@! TA.AperFunction,Plated,PTH,ComponentDrill
T2C1.000
; #@! TA.AperFunction,Plated,PTH,ComponentDrill
T3C1.500
%
G90
G05
T1
X132.86Y-110.47
X132.86Y-129.52
X132.86Y-148.57
X140.48Y-110.47
X140.48Y-129.52
X140.48Y-148.57
X151.91Y-110.47
X151.91Y-129.52
X151.91Y-148.57
X159.53Y-110.47
X159.53Y-129.52
X159.53Y-148.57
X170.96Y-110.47
X170.96Y-129.52
X170.96Y-148.57
X178.58Y-110.47
X178.58Y-129.52
X178.58Y-148.57
T2
X124.125Y-65.3
X124.125Y-67.84
X124.125Y-70.38
X124.125Y-72.92
X124.125Y-75.46
X124.125Y-78.0
X124.125Y-80.54
X139.375Y-65.3
X139.375Y-67.84
X139.375Y-70.38
X139.375Y-72.92
X139.375Y-75.46
X139.375Y-78.0
X139.375Y-80.54
X159.95Y-67.32
X159.95Y-69.82
X159.95Y-72.32
X174.45Y-67.32
X174.45Y-72.32
T3
X126.51Y-98.46
X126.51Y-117.51
X126.51Y-136.56
X132.86Y-95.92
X132.86Y-114.97
X132.86Y-134.02
X145.56Y-98.46
X145.56Y-117.51
X145.56Y-136.56
X151.91Y-95.92
X151.91Y-114.97
X151.91Y-134.02
X164.61Y-98.46
X164.61Y-117.51
X164.61Y-136.56
X170.96Y-95.92
X170.96Y-114.97
X170.96Y-134.02
T3
G00X166.8Y-64.22
M15
G01X168.1Y-64.22
M16
G05
G00X166.8Y-75.42
M15
G01X168.1Y-75.42
M16
G05
M30
