M48
; DRILL file {KiCad 9.0.7} date 2026-09-23T18:42:29+1200
; FORMAT={-:-/ absolute / metric / decimal}
; #@! TF.CreationDate,2026-09-23T18:42:29+12:00
; #@! TF.GenerationSoftware,Kicad,Pcbnew,9.0.7
; #@! TF.FileFunction,NonPlated,1,2,NPTH
FMAT,2
METRIC
; #@! TA.AperFunction,NonPlated,NPTH,ComponentDrill
T1C1.700
; #@! TA.AperFunction,NonPlated,NPTH,ComponentDrill
T2C3.200
; #@! TA.AperFunction,NonPlated,NPTH,ComponentDrill
T3C4.000
%
G90
G05
T1
X125.24Y-101.0
X125.24Y-120.05
X125.24Y-139.1
X135.4Y-101.0
X135.4Y-120.05
X135.4Y-139.1
X144.29Y-101.0
X144.29Y-120.05
X144.29Y-139.1
X154.45Y-101.0
X154.45Y-120.05
X154.45Y-139.1
X163.34Y-101.0
X163.34Y-120.05
X163.34Y-139.1
X173.5Y-101.0
X173.5Y-120.05
X173.5Y-139.1
T2
X111.45Y-60.32
X111.45Y-150.82
X187.45Y-60.32
X187.45Y-150.82
T3
X130.32Y-101.0
X130.32Y-120.05
X130.32Y-139.1
X149.37Y-101.0
X149.37Y-120.05
X149.37Y-139.1
X168.42Y-101.0
X168.42Y-120.05
X168.42Y-139.1
M30
