ISO-10303-21;
HEADER;
/* Generated by software containing ST-Developer
 * from STEP Tools, Inc. (www.steptools.com) 
 */

FILE_DESCRIPTION(
/* description */ (''),
/* implementation_level */ '2;1');

FILE_NAME(
/* name */ 'Bottom V1.step',
/* time_stamp */ '2026-09-23T20:37:54+12:00',
/* author */ (''),
/* organization */ (''),
/* preprocessor_version */ 'ST-DEVELOPER v20.1',
/* originating_system */ 'Autodesk Translation Framework v15.8.0.0',
/* authorisation */ '');

FILE_SCHEMA (('AUTOMOTIVE_DESIGN { 1 0 10303 214 3 1 1 }'));
ENDSEC;

DATA;
#10=MECHANICAL_DESIGN_GEOMETRIC_PRESENTATION_REPRESENTATION('',(#13),#1716);
#11=SHAPE_REPRESENTATION_RELATIONSHIP('SRR','None',#1723,#12);
#12=ADVANCED_BREP_SHAPE_REPRESENTATION('',(#14),#1715);
#13=STYLED_ITEM('',(#1733),#14);
#14=MANIFOLD_SOLID_BREP('Body1',#952);
#15=(
BOUNDED_SURFACE()
B_SPLINE_SURFACE(2,2,((#1597,#1598,#1599,#1600,#1601,#1602,#1603,#1604,
#1605),(#1606,#1607,#1608,#1609,#1610,#1611,#1612,#1613,#1614),(#1615,#1616,
#1617,#1618,#1619,#1620,#1621,#1622,#1623),(#1624,#1625,#1626,#1627,#1628,
#1629,#1630,#1631,#1632),(#1633,#1634,#1635,#1636,#1637,#1638,#1639,#1640,
#1641)),.UNSPECIFIED.,.F.,.T.,.F.)
B_SPLINE_SURFACE_WITH_KNOTS((3,2,3),(3,2,2,2,3),(-2.09439510239319,-1.04719755119659,
1.25940924355916E-14),(-3.14159265358979,-1.5707963267949,0.,1.5707963267949,
3.14159265358979),.UNSPECIFIED.)
GEOMETRIC_REPRESENTATION_ITEM()
RATIONAL_B_SPLINE_SURFACE(((1.,0.707106781186548,1.,0.707106781186548,1.,
0.707106781186548,1.,0.707106781186548,1.),(0.866025403784425,0.612372435695785,
0.866025403784425,0.612372435695785,0.866025403784425,0.612372435695785,
0.866025403784425,0.612372435695785,0.866025403784425),(1.,0.707106781186548,
1.,0.707106781186548,1.,0.707106781186548,1.,0.707106781186548,1.),(0.866025403784368,
0.612372435695744,0.866025403784368,0.612372435695744,0.866025403784368,
0.612372435695744,0.866025403784368,0.612372435695744,0.866025403784368),
(1.,0.707106781186548,1.,0.707106781186548,1.,0.707106781186548,1.,0.707106781186548,
1.)))
REPRESENTATION_ITEM('')
SURFACE()
);
#16=(
BOUNDED_SURFACE()
B_SPLINE_SURFACE(2,2,((#1652,#1653,#1654,#1655,#1656,#1657,#1658,#1659,
#1660),(#1661,#1662,#1663,#1664,#1665,#1666,#1667,#1668,#1669),(#1670,#1671,
#1672,#1673,#1674,#1675,#1676,#1677,#1678),(#1679,#1680,#1681,#1682,#1683,
#1684,#1685,#1686,#1687),(#1688,#1689,#1690,#1691,#1692,#1693,#1694,#1695,
#1696)),.UNSPECIFIED.,.F.,.T.,.F.)
B_SPLINE_SURFACE_WITH_KNOTS((3,2,3),(3,2,2,2,3),(-2.09439510239319,-1.04719755119659,
4.25443672842231E-15),(-3.14159265358979,-1.5707963267949,0.,1.5707963267949,
3.14159265358979),.UNSPECIFIED.)
GEOMETRIC_REPRESENTATION_ITEM()
RATIONAL_B_SPLINE_SURFACE(((1.,0.707106781186548,1.,0.707106781186548,1.,
0.707106781186548,1.,0.707106781186548,1.),(0.866025403784498,0.612372435695837,
0.866025403784498,0.612372435695837,0.866025403784498,0.612372435695837,
0.866025403784498,0.612372435695837,0.866025403784498),(1.,0.707106781186548,
1.,0.707106781186548,1.,0.707106781186548,1.,0.707106781186548,1.),(0.866025403784403,
0.612372435695769,0.866025403784403,0.612372435695769,0.866025403784403,
0.612372435695769,0.866025403784403,0.612372435695769,0.866025403784403),
(1.,0.707106781186548,1.,0.707106781186548,1.,0.707106781186548,1.,0.707106781186548,
1.)))
REPRESENTATION_ITEM('')
SURFACE()
);
#17=ELLIPSE('',#1004,5.06846415394481,5.);
#18=ELLIPSE('',#1006,5.06846415394481,5.);
#19=FACE_BOUND('',#127,.T.);
#20=FACE_BOUND('',#128,.T.);
#21=FACE_BOUND('',#129,.T.);
#22=FACE_BOUND('',#130,.T.);
#23=FACE_BOUND('',#135,.T.);
#24=FACE_BOUND('',#142,.T.);
#25=FACE_BOUND('',#143,.T.);
#26=FACE_BOUND('',#163,.T.);
#27=FACE_BOUND('',#179,.T.);
#28=FACE_BOUND('',#180,.T.);
#29=PLANE('',#969);
#30=PLANE('',#971);
#31=PLANE('',#976);
#32=PLANE('',#978);
#33=PLANE('',#980);
#34=PLANE('',#985);
#35=PLANE('',#992);
#36=PLANE('',#993);
#37=PLANE('',#994);
#38=PLANE('',#995);
#39=PLANE('',#1000);
#40=PLANE('',#1001);
#41=PLANE('',#1002);
#42=PLANE('',#1007);
#43=PLANE('',#1012);
#44=PLANE('',#1015);
#45=PLANE('',#1018);
#46=PLANE('',#1020);
#47=PLANE('',#1022);
#48=PLANE('',#1023);
#49=PLANE('',#1027);
#50=PLANE('',#1031);
#51=PLANE('',#1032);
#52=PLANE('',#1035);
#53=PLANE('',#1038);
#54=PLANE('',#1039);
#55=PLANE('',#1041);
#56=PLANE('',#1043);
#57=PLANE('',#1045);
#58=PLANE('',#1061);
#59=PLANE('',#1062);
#60=PLANE('',#1063);
#61=PLANE('',#1064);
#62=FACE_OUTER_BOUND('',#117,.T.);
#63=FACE_OUTER_BOUND('',#118,.T.);
#64=FACE_OUTER_BOUND('',#119,.T.);
#65=FACE_OUTER_BOUND('',#120,.T.);
#66=FACE_OUTER_BOUND('',#121,.T.);
#67=FACE_OUTER_BOUND('',#122,.T.);
#68=FACE_OUTER_BOUND('',#123,.T.);
#69=FACE_OUTER_BOUND('',#124,.T.);
#70=FACE_OUTER_BOUND('',#125,.T.);
#71=FACE_OUTER_BOUND('',#126,.T.);
#72=FACE_OUTER_BOUND('',#131,.T.);
#73=FACE_OUTER_BOUND('',#132,.T.);
#74=FACE_OUTER_BOUND('',#133,.T.);
#75=FACE_OUTER_BOUND('',#134,.T.);
#76=FACE_OUTER_BOUND('',#136,.T.);
#77=FACE_OUTER_BOUND('',#137,.T.);
#78=FACE_OUTER_BOUND('',#138,.T.);
#79=FACE_OUTER_BOUND('',#139,.T.);
#80=FACE_OUTER_BOUND('',#140,.T.);
#81=FACE_OUTER_BOUND('',#141,.T.);
#82=FACE_OUTER_BOUND('',#144,.T.);
#83=FACE_OUTER_BOUND('',#145,.T.);
#84=FACE_OUTER_BOUND('',#146,.T.);
#85=FACE_OUTER_BOUND('',#147,.T.);
#86=FACE_OUTER_BOUND('',#148,.T.);
#87=FACE_OUTER_BOUND('',#149,.T.);
#88=FACE_OUTER_BOUND('',#150,.T.);
#89=FACE_OUTER_BOUND('',#151,.T.);
#90=FACE_OUTER_BOUND('',#152,.T.);
#91=FACE_OUTER_BOUND('',#153,.T.);
#92=FACE_OUTER_BOUND('',#154,.T.);
#93=FACE_OUTER_BOUND('',#155,.T.);
#94=FACE_OUTER_BOUND('',#156,.T.);
#95=FACE_OUTER_BOUND('',#157,.T.);
#96=FACE_OUTER_BOUND('',#158,.T.);
#97=FACE_OUTER_BOUND('',#159,.T.);
#98=FACE_OUTER_BOUND('',#160,.T.);
#99=FACE_OUTER_BOUND('',#161,.T.);
#100=FACE_OUTER_BOUND('',#162,.T.);
#101=FACE_OUTER_BOUND('',#164,.T.);
#102=FACE_OUTER_BOUND('',#165,.T.);
#103=FACE_OUTER_BOUND('',#166,.T.);
#104=FACE_OUTER_BOUND('',#167,.T.);
#105=FACE_OUTER_BOUND('',#168,.T.);
#106=FACE_OUTER_BOUND('',#169,.T.);
#107=FACE_OUTER_BOUND('',#170,.T.);
#108=FACE_OUTER_BOUND('',#171,.T.);
#109=FACE_OUTER_BOUND('',#172,.T.);
#110=FACE_OUTER_BOUND('',#173,.T.);
#111=FACE_OUTER_BOUND('',#174,.T.);
#112=FACE_OUTER_BOUND('',#175,.T.);
#113=FACE_OUTER_BOUND('',#176,.T.);
#114=FACE_OUTER_BOUND('',#177,.T.);
#115=FACE_OUTER_BOUND('',#178,.T.);
#116=FACE_OUTER_BOUND('',#181,.T.);
#117=EDGE_LOOP('',(#615,#616,#617,#618));
#118=EDGE_LOOP('',(#619,#620,#621,#622));
#119=EDGE_LOOP('',(#623,#624,#625,#626,#627,#628,#629,#630,#631,#632));
#120=EDGE_LOOP('',(#633,#634,#635,#636));
#121=EDGE_LOOP('',(#637,#638,#639,#640,#641));
#122=EDGE_LOOP('',(#642,#643,#644,#645,#646));
#123=EDGE_LOOP('',(#647,#648,#649,#650));
#124=EDGE_LOOP('',(#651,#652,#653,#654,#655,#656));
#125=EDGE_LOOP('',(#657,#658,#659,#660,#661,#662));
#126=EDGE_LOOP('',(#663,#664,#665,#666,#667,#668,#669,#670,#671,#672,#673,
#674,#675,#676,#677,#678));
#127=EDGE_LOOP('',(#679));
#128=EDGE_LOOP('',(#680));
#129=EDGE_LOOP('',(#681));
#130=EDGE_LOOP('',(#682));
#131=EDGE_LOOP('',(#683,#684,#685,#686));
#132=EDGE_LOOP('',(#687,#688,#689,#690));
#133=EDGE_LOOP('',(#691,#692,#693,#694));
#134=EDGE_LOOP('',(#695,#696,#697,#698));
#135=EDGE_LOOP('',(#699,#700,#701,#702));
#136=EDGE_LOOP('',(#703,#704,#705,#706));
#137=EDGE_LOOP('',(#707,#708,#709,#710));
#138=EDGE_LOOP('',(#711,#712,#713,#714));
#139=EDGE_LOOP('',(#715,#716,#717,#718));
#140=EDGE_LOOP('',(#719,#720,#721,#722));
#141=EDGE_LOOP('',(#723,#724,#725,#726,#727,#728));
#142=EDGE_LOOP('',(#729,#730,#731,#732));
#143=EDGE_LOOP('',(#733,#734,#735,#736));
#144=EDGE_LOOP('',(#737,#738,#739,#740));
#145=EDGE_LOOP('',(#741,#742,#743,#744));
#146=EDGE_LOOP('',(#745,#746,#747,#748));
#147=EDGE_LOOP('',(#749,#750,#751,#752));
#148=EDGE_LOOP('',(#753,#754,#755,#756));
#149=EDGE_LOOP('',(#757,#758,#759,#760));
#150=EDGE_LOOP('',(#761,#762,#763,#764));
#151=EDGE_LOOP('',(#765,#766,#767,#768));
#152=EDGE_LOOP('',(#769,#770,#771,#772));
#153=EDGE_LOOP('',(#773,#774,#775,#776));
#154=EDGE_LOOP('',(#777,#778,#779,#780));
#155=EDGE_LOOP('',(#781,#782,#783,#784));
#156=EDGE_LOOP('',(#785,#786,#787,#788));
#157=EDGE_LOOP('',(#789,#790,#791,#792));
#158=EDGE_LOOP('',(#793,#794,#795,#796));
#159=EDGE_LOOP('',(#797,#798,#799,#800));
#160=EDGE_LOOP('',(#801,#802,#803,#804));
#161=EDGE_LOOP('',(#805,#806,#807,#808));
#162=EDGE_LOOP('',(#809,#810,#811,#812));
#163=EDGE_LOOP('',(#813,#814,#815,#816));
#164=EDGE_LOOP('',(#817));
#165=EDGE_LOOP('',(#818));
#166=EDGE_LOOP('',(#819));
#167=EDGE_LOOP('',(#820));
#168=EDGE_LOOP('',(#821,#822,#823,#824));
#169=EDGE_LOOP('',(#825,#826,#827,#828));
#170=EDGE_LOOP('',(#829,#830,#831,#832));
#171=EDGE_LOOP('',(#833,#834,#835,#836));
#172=EDGE_LOOP('',(#837,#838,#839,#840));
#173=EDGE_LOOP('',(#841,#842,#843,#844,#845));
#174=EDGE_LOOP('',(#846,#847,#848,#849));
#175=EDGE_LOOP('',(#850,#851,#852,#853,#854));
#176=EDGE_LOOP('',(#855,#856,#857,#858));
#177=EDGE_LOOP('',(#859,#860,#861,#862));
#178=EDGE_LOOP('',(#863,#864,#865,#866,#867,#868,#869,#870));
#179=EDGE_LOOP('',(#871));
#180=EDGE_LOOP('',(#872));
#181=EDGE_LOOP('',(#873,#874,#875,#876));
#182=LINE('',#1356,#267);
#183=LINE('',#1359,#268);
#184=LINE('',#1362,#269);
#185=LINE('',#1365,#270);
#186=LINE('',#1368,#271);
#187=LINE('',#1370,#272);
#188=LINE('',#1374,#273);
#189=LINE('',#1378,#274);
#190=LINE('',#1380,#275);
#191=LINE('',#1381,#276);
#192=LINE('',#1385,#277);
#193=LINE('',#1389,#278);
#194=LINE('',#1391,#279);
#195=LINE('',#1393,#280);
#196=LINE('',#1395,#281);
#197=LINE('',#1400,#282);
#198=LINE('',#1404,#283);
#199=LINE('',#1406,#284);
#200=LINE('',#1407,#285);
#201=LINE('',#1409,#286);
#202=LINE('',#1410,#287);
#203=LINE('',#1413,#288);
#204=LINE('',#1416,#289);
#205=LINE('',#1419,#290);
#206=LINE('',#1420,#291);
#207=LINE('',#1422,#292);
#208=LINE('',#1426,#293);
#209=LINE('',#1430,#294);
#210=LINE('',#1433,#295);
#211=LINE('',#1434,#296);
#212=LINE('',#1436,#297);
#213=LINE('',#1438,#298);
#214=LINE('',#1439,#299);
#215=LINE('',#1451,#300);
#216=LINE('',#1452,#301);
#217=LINE('',#1455,#302);
#218=LINE('',#1456,#303);
#219=LINE('',#1462,#304);
#220=LINE('',#1465,#305);
#221=LINE('',#1468,#306);
#222=LINE('',#1472,#307);
#223=LINE('',#1475,#308);
#224=LINE('',#1476,#309);
#225=LINE('',#1480,#310);
#226=LINE('',#1482,#311);
#227=LINE('',#1483,#312);
#228=LINE('',#1487,#313);
#229=LINE('',#1491,#314);
#230=LINE('',#1493,#315);
#231=LINE('',#1496,#316);
#232=LINE('',#1500,#317);
#233=LINE('',#1504,#318);
#234=LINE('',#1508,#319);
#235=LINE('',#1512,#320);
#236=LINE('',#1514,#321);
#237=LINE('',#1515,#322);
#238=LINE('',#1518,#323);
#239=LINE('',#1522,#324);
#240=LINE('',#1523,#325);
#241=LINE('',#1527,#326);
#242=LINE('',#1528,#327);
#243=LINE('',#1530,#328);
#244=LINE('',#1532,#329);
#245=LINE('',#1538,#330);
#246=LINE('',#1540,#331);
#247=LINE('',#1542,#332);
#248=LINE('',#1543,#333);
#249=LINE('',#1548,#334);
#250=LINE('',#1552,#335);
#251=LINE('',#1554,#336);
#252=LINE('',#1555,#337);
#253=LINE('',#1562,#338);
#254=LINE('',#1564,#339);
#255=LINE('',#1565,#340);
#256=LINE('',#1569,#341);
#257=LINE('',#1572,#342);
#258=LINE('',#1573,#343);
#259=LINE('',#1590,#344);
#260=LINE('',#1592,#345);
#261=LINE('',#1594,#346);
#262=LINE('',#1596,#347);
#263=LINE('',#1650,#348);
#264=LINE('',#1705,#349);
#265=LINE('',#1708,#350);
#266=LINE('',#1710,#351);
#267=VECTOR('',#1071,10.);
#268=VECTOR('',#1074,10.);
#269=VECTOR('',#1077,10.);
#270=VECTOR('',#1080,10.);
#271=VECTOR('',#1083,10.);
#272=VECTOR('',#1084,10.);
#273=VECTOR('',#1087,10.);
#274=VECTOR('',#1090,10.);
#275=VECTOR('',#1091,10.);
#276=VECTOR('',#1092,10.);
#277=VECTOR('',#1097,10.);
#278=VECTOR('',#1100,10.);
#279=VECTOR('',#1101,10.);
#280=VECTOR('',#1102,10.);
#281=VECTOR('',#1103,10.);
#282=VECTOR('',#1108,10.);
#283=VECTOR('',#1111,10.);
#284=VECTOR('',#1112,10.);
#285=VECTOR('',#1113,10.);
#286=VECTOR('',#1116,10.);
#287=VECTOR('',#1117,10.);
#288=VECTOR('',#1120,10.);
#289=VECTOR('',#1123,10.);
#290=VECTOR('',#1126,10.);
#291=VECTOR('',#1127,10.);
#292=VECTOR('',#1128,10.);
#293=VECTOR('',#1133,10.);
#294=VECTOR('',#1136,10.);
#295=VECTOR('',#1139,10.);
#296=VECTOR('',#1140,10.);
#297=VECTOR('',#1141,10.);
#298=VECTOR('',#1142,10.);
#299=VECTOR('',#1143,10.);
#300=VECTOR('',#1156,10.);
#301=VECTOR('',#1157,10.);
#302=VECTOR('',#1160,10.);
#303=VECTOR('',#1161,10.);
#304=VECTOR('',#1166,10.);
#305=VECTOR('',#1169,10.);
#306=VECTOR('',#1170,10.);
#307=VECTOR('',#1173,10.);
#308=VECTOR('',#1178,10.);
#309=VECTOR('',#1179,10.);
#310=VECTOR('',#1184,10.);
#311=VECTOR('',#1185,10.);
#312=VECTOR('',#1186,10.);
#313=VECTOR('',#1191,10.);
#314=VECTOR('',#1196,10.);
#315=VECTOR('',#1199,10.);
#316=VECTOR('',#1200,10.);
#317=VECTOR('',#1203,10.);
#318=VECTOR('',#1206,10.);
#319=VECTOR('',#1209,10.);
#320=VECTOR('',#1214,10.);
#321=VECTOR('',#1215,10.);
#322=VECTOR('',#1216,10.);
#323=VECTOR('',#1219,10.);
#324=VECTOR('',#1224,10.);
#325=VECTOR('',#1225,10.);
#326=VECTOR('',#1232,10.);
#327=VECTOR('',#1233,10.);
#328=VECTOR('',#1236,10.);
#329=VECTOR('',#1239,10.);
#330=VECTOR('',#1246,10.);
#331=VECTOR('',#1247,10.);
#332=VECTOR('',#1248,10.);
#333=VECTOR('',#1249,10.);
#334=VECTOR('',#1254,10.);
#335=VECTOR('',#1259,10.);
#336=VECTOR('',#1260,10.);
#337=VECTOR('',#1261,10.);
#338=VECTOR('',#1272,10.);
#339=VECTOR('',#1273,10.);
#340=VECTOR('',#1274,10.);
#341=VECTOR('',#1279,10.);
#342=VECTOR('',#1282,10.);
#343=VECTOR('',#1283,10.);
#344=VECTOR('',#1308,1.5);
#345=VECTOR('',#1311,1.5);
#346=VECTOR('',#1314,1.5);
#347=VECTOR('',#1317,1.49999999999999);
#348=VECTOR('',#1326,1.5);
#349=VECTOR('',#1337,1.5);
#350=VECTOR('',#1342,10.);
#351=VECTOR('',#1345,10.);
#352=CIRCLE('',#967,5.);
#353=CIRCLE('',#968,5.);
#354=CIRCLE('',#970,5.);
#355=CIRCLE('',#972,2.);
#356=CIRCLE('',#973,2.);
#357=CIRCLE('',#975,5.);
#358=CIRCLE('',#977,2.);
#359=CIRCLE('',#979,2.);
#360=CIRCLE('',#982,2.);
#361=CIRCLE('',#984,2.);
#362=CIRCLE('',#986,5.);
#363=CIRCLE('',#987,5.);
#364=CIRCLE('',#988,1.49999999999999);
#365=CIRCLE('',#989,1.5);
#366=CIRCLE('',#990,1.5);
#367=CIRCLE('',#991,1.5);
#368=CIRCLE('',#996,3.27405872989198);
#369=CIRCLE('',#997,3.27405872989198);
#370=CIRCLE('',#998,1.50000002235176);
#371=CIRCLE('',#999,1.50000002235176);
#372=CIRCLE('',#1008,3.27405872989198);
#373=CIRCLE('',#1009,3.27405872989198);
#374=CIRCLE('',#1010,3.27405872989198);
#375=CIRCLE('',#1011,3.27405872989198);
#376=CIRCLE('',#1014,1.50000002235176);
#377=CIRCLE('',#1017,1.50000002235176);
#378=CIRCLE('',#1025,1.50000002235176);
#379=CIRCLE('',#1026,1.50000002235176);
#380=CIRCLE('',#1029,1.50000002235176);
#381=CIRCLE('',#1030,1.50000002235176);
#382=CIRCLE('',#1034,3.27405872989198);
#383=CIRCLE('',#1037,3.27405872989198);
#384=CIRCLE('',#1040,1.5);
#385=CIRCLE('',#1042,1.5);
#386=CIRCLE('',#1044,1.5);
#387=CIRCLE('',#1046,1.49999999999999);
#388=CIRCLE('',#1051,1.5);
#389=CIRCLE('',#1052,1.);
#390=CIRCLE('',#1053,1.5);
#391=CIRCLE('',#1055,1.5);
#392=CIRCLE('',#1056,1.5);
#393=CIRCLE('',#1057,1.);
#394=CIRCLE('',#1058,1.5);
#395=CIRCLE('',#1060,1.5);
#396=VERTEX_POINT('',#1352);
#397=VERTEX_POINT('',#1353);
#398=VERTEX_POINT('',#1355);
#399=VERTEX_POINT('',#1357);
#400=VERTEX_POINT('',#1361);
#401=VERTEX_POINT('',#1363);
#402=VERTEX_POINT('',#1367);
#403=VERTEX_POINT('',#1369);
#404=VERTEX_POINT('',#1371);
#405=VERTEX_POINT('',#1373);
#406=VERTEX_POINT('',#1375);
#407=VERTEX_POINT('',#1377);
#408=VERTEX_POINT('',#1379);
#409=VERTEX_POINT('',#1383);
#410=VERTEX_POINT('',#1387);
#411=VERTEX_POINT('',#1388);
#412=VERTEX_POINT('',#1390);
#413=VERTEX_POINT('',#1392);
#414=VERTEX_POINT('',#1394);
#415=VERTEX_POINT('',#1398);
#416=VERTEX_POINT('',#1399);
#417=VERTEX_POINT('',#1401);
#418=VERTEX_POINT('',#1403);
#419=VERTEX_POINT('',#1405);
#420=VERTEX_POINT('',#1412);
#421=VERTEX_POINT('',#1414);
#422=VERTEX_POINT('',#1418);
#423=VERTEX_POINT('',#1421);
#424=VERTEX_POINT('',#1425);
#425=VERTEX_POINT('',#1427);
#426=VERTEX_POINT('',#1429);
#427=VERTEX_POINT('',#1431);
#428=VERTEX_POINT('',#1435);
#429=VERTEX_POINT('',#1437);
#430=VERTEX_POINT('',#1440);
#431=VERTEX_POINT('',#1442);
#432=VERTEX_POINT('',#1444);
#433=VERTEX_POINT('',#1446);
#434=VERTEX_POINT('',#1450);
#435=VERTEX_POINT('',#1454);
#436=VERTEX_POINT('',#1458);
#437=VERTEX_POINT('',#1459);
#438=VERTEX_POINT('',#1461);
#439=VERTEX_POINT('',#1463);
#440=VERTEX_POINT('',#1466);
#441=VERTEX_POINT('',#1467);
#442=VERTEX_POINT('',#1469);
#443=VERTEX_POINT('',#1471);
#444=VERTEX_POINT('',#1479);
#445=VERTEX_POINT('',#1481);
#446=VERTEX_POINT('',#1485);
#447=VERTEX_POINT('',#1489);
#448=VERTEX_POINT('',#1494);
#449=VERTEX_POINT('',#1495);
#450=VERTEX_POINT('',#1497);
#451=VERTEX_POINT('',#1499);
#452=VERTEX_POINT('',#1502);
#453=VERTEX_POINT('',#1503);
#454=VERTEX_POINT('',#1505);
#455=VERTEX_POINT('',#1507);
#456=VERTEX_POINT('',#1511);
#457=VERTEX_POINT('',#1513);
#458=VERTEX_POINT('',#1517);
#459=VERTEX_POINT('',#1521);
#460=VERTEX_POINT('',#1536);
#461=VERTEX_POINT('',#1537);
#462=VERTEX_POINT('',#1539);
#463=VERTEX_POINT('',#1541);
#464=VERTEX_POINT('',#1545);
#465=VERTEX_POINT('',#1547);
#466=VERTEX_POINT('',#1551);
#467=VERTEX_POINT('',#1553);
#468=VERTEX_POINT('',#1561);
#469=VERTEX_POINT('',#1563);
#470=VERTEX_POINT('',#1567);
#471=VERTEX_POINT('',#1571);
#472=VERTEX_POINT('',#1578);
#473=VERTEX_POINT('',#1581);
#474=VERTEX_POINT('',#1584);
#475=VERTEX_POINT('',#1587);
#476=VERTEX_POINT('',#1642);
#477=VERTEX_POINT('',#1643);
#478=VERTEX_POINT('',#1645);
#479=VERTEX_POINT('',#1649);
#480=VERTEX_POINT('',#1697);
#481=VERTEX_POINT('',#1698);
#482=VERTEX_POINT('',#1700);
#483=VERTEX_POINT('',#1704);
#484=EDGE_CURVE('',#396,#397,#352,.T.);
#485=EDGE_CURVE('',#397,#398,#182,.T.);
#486=EDGE_CURVE('',#398,#399,#353,.T.);
#487=EDGE_CURVE('',#399,#396,#183,.T.);
#488=EDGE_CURVE('',#400,#398,#184,.T.);
#489=EDGE_CURVE('',#401,#400,#354,.T.);
#490=EDGE_CURVE('',#401,#399,#185,.T.);
#491=EDGE_CURVE('',#397,#402,#186,.T.);
#492=EDGE_CURVE('',#402,#403,#187,.T.);
#493=EDGE_CURVE('',#403,#404,#355,.T.);
#494=EDGE_CURVE('',#404,#405,#188,.T.);
#495=EDGE_CURVE('',#405,#406,#356,.T.);
#496=EDGE_CURVE('',#406,#407,#189,.T.);
#497=EDGE_CURVE('',#407,#408,#190,.T.);
#498=EDGE_CURVE('',#400,#408,#191,.T.);
#499=EDGE_CURVE('',#408,#409,#357,.T.);
#500=EDGE_CURVE('',#409,#401,#192,.T.);
#501=EDGE_CURVE('',#410,#411,#193,.T.);
#502=EDGE_CURVE('',#412,#410,#194,.T.);
#503=EDGE_CURVE('',#413,#412,#195,.T.);
#504=EDGE_CURVE('',#414,#413,#196,.T.);
#505=EDGE_CURVE('',#411,#414,#358,.T.);
#506=EDGE_CURVE('',#415,#416,#197,.T.);
#507=EDGE_CURVE('',#417,#415,#359,.T.);
#508=EDGE_CURVE('',#418,#417,#198,.T.);
#509=EDGE_CURVE('',#419,#418,#199,.T.);
#510=EDGE_CURVE('',#416,#419,#200,.T.);
#511=EDGE_CURVE('',#403,#411,#201,.T.);
#512=EDGE_CURVE('',#410,#402,#202,.T.);
#513=EDGE_CURVE('',#414,#420,#203,.T.);
#514=EDGE_CURVE('',#421,#420,#360,.T.);
#515=EDGE_CURVE('',#421,#404,#204,.T.);
#516=EDGE_CURVE('',#422,#417,#205,.T.);
#517=EDGE_CURVE('',#415,#406,#206,.T.);
#518=EDGE_CURVE('',#423,#405,#207,.T.);
#519=EDGE_CURVE('',#422,#423,#361,.T.);
#520=EDGE_CURVE('',#424,#396,#208,.T.);
#521=EDGE_CURVE('',#425,#424,#362,.T.);
#522=EDGE_CURVE('',#426,#425,#209,.T.);
#523=EDGE_CURVE('',#427,#426,#363,.T.);
#524=EDGE_CURVE('',#427,#409,#210,.T.);
#525=EDGE_CURVE('',#407,#416,#211,.T.);
#526=EDGE_CURVE('',#419,#428,#212,.T.);
#527=EDGE_CURVE('',#428,#429,#213,.T.);
#528=EDGE_CURVE('',#429,#412,#214,.T.);
#529=EDGE_CURVE('',#430,#430,#364,.T.);
#530=EDGE_CURVE('',#431,#431,#365,.T.);
#531=EDGE_CURVE('',#432,#432,#366,.T.);
#532=EDGE_CURVE('',#433,#433,#367,.T.);
#533=EDGE_CURVE('',#434,#427,#215,.T.);
#534=EDGE_CURVE('',#401,#434,#216,.T.);
#535=EDGE_CURVE('',#399,#435,#217,.T.);
#536=EDGE_CURVE('',#424,#435,#218,.T.);
#537=EDGE_CURVE('',#436,#437,#368,.T.);
#538=EDGE_CURVE('',#437,#438,#219,.T.);
#539=EDGE_CURVE('',#438,#439,#369,.T.);
#540=EDGE_CURVE('',#439,#436,#220,.T.);
#541=EDGE_CURVE('',#440,#441,#221,.T.);
#542=EDGE_CURVE('',#441,#442,#370,.T.);
#543=EDGE_CURVE('',#442,#443,#222,.T.);
#544=EDGE_CURVE('',#443,#440,#371,.T.);
#545=EDGE_CURVE('',#423,#421,#223,.T.);
#546=EDGE_CURVE('',#420,#422,#224,.T.);
#547=EDGE_CURVE('',#444,#428,#225,.T.);
#548=EDGE_CURVE('',#445,#444,#226,.T.);
#549=EDGE_CURVE('',#429,#445,#227,.T.);
#550=EDGE_CURVE('',#435,#446,#17,.T.);
#551=EDGE_CURVE('',#446,#425,#228,.T.);
#552=EDGE_CURVE('',#447,#434,#18,.T.);
#553=EDGE_CURVE('',#426,#447,#229,.T.);
#554=EDGE_CURVE('',#447,#446,#230,.T.);
#555=EDGE_CURVE('',#448,#449,#231,.T.);
#556=EDGE_CURVE('',#449,#450,#372,.T.);
#557=EDGE_CURVE('',#450,#451,#232,.T.);
#558=EDGE_CURVE('',#451,#448,#373,.T.);
#559=EDGE_CURVE('',#452,#453,#233,.T.);
#560=EDGE_CURVE('',#453,#454,#374,.T.);
#561=EDGE_CURVE('',#454,#455,#234,.T.);
#562=EDGE_CURVE('',#455,#452,#375,.T.);
#563=EDGE_CURVE('',#440,#456,#235,.T.);
#564=EDGE_CURVE('',#457,#456,#236,.T.);
#565=EDGE_CURVE('',#457,#441,#237,.T.);
#566=EDGE_CURVE('',#458,#443,#238,.T.);
#567=EDGE_CURVE('',#456,#458,#376,.T.);
#568=EDGE_CURVE('',#459,#442,#239,.T.);
#569=EDGE_CURVE('',#458,#459,#240,.T.);
#570=EDGE_CURVE('',#459,#457,#377,.T.);
#571=EDGE_CURVE('',#452,#436,#241,.T.);
#572=EDGE_CURVE('',#453,#439,#242,.T.);
#573=EDGE_CURVE('',#454,#438,#243,.T.);
#574=EDGE_CURVE('',#455,#437,#244,.T.);
#575=EDGE_CURVE('',#460,#461,#245,.T.);
#576=EDGE_CURVE('',#460,#462,#246,.T.);
#577=EDGE_CURVE('',#462,#463,#247,.T.);
#578=EDGE_CURVE('',#461,#463,#248,.T.);
#579=EDGE_CURVE('',#464,#460,#378,.T.);
#580=EDGE_CURVE('',#464,#465,#249,.T.);
#581=EDGE_CURVE('',#465,#462,#379,.T.);
#582=EDGE_CURVE('',#466,#464,#250,.T.);
#583=EDGE_CURVE('',#466,#467,#251,.T.);
#584=EDGE_CURVE('',#467,#465,#252,.T.);
#585=EDGE_CURVE('',#461,#466,#380,.T.);
#586=EDGE_CURVE('',#463,#467,#381,.T.);
#587=EDGE_CURVE('',#448,#468,#253,.T.);
#588=EDGE_CURVE('',#469,#468,#254,.T.);
#589=EDGE_CURVE('',#449,#469,#255,.T.);
#590=EDGE_CURVE('',#470,#469,#382,.T.);
#591=EDGE_CURVE('',#450,#470,#256,.T.);
#592=EDGE_CURVE('',#471,#470,#257,.T.);
#593=EDGE_CURVE('',#451,#471,#258,.T.);
#594=EDGE_CURVE('',#468,#471,#383,.T.);
#595=EDGE_CURVE('',#472,#472,#384,.T.);
#596=EDGE_CURVE('',#473,#473,#385,.T.);
#597=EDGE_CURVE('',#474,#474,#386,.T.);
#598=EDGE_CURVE('',#475,#475,#387,.T.);
#599=EDGE_CURVE('',#433,#472,#259,.T.);
#600=EDGE_CURVE('',#432,#473,#260,.T.);
#601=EDGE_CURVE('',#431,#474,#261,.T.);
#602=EDGE_CURVE('',#430,#475,#262,.T.);
#603=EDGE_CURVE('',#476,#477,#388,.T.);
#604=EDGE_CURVE('',#477,#478,#389,.T.);
#605=EDGE_CURVE('',#477,#476,#390,.T.);
#606=EDGE_CURVE('',#476,#479,#263,.T.);
#607=EDGE_CURVE('',#479,#479,#391,.T.);
#608=EDGE_CURVE('',#480,#481,#392,.T.);
#609=EDGE_CURVE('',#481,#482,#393,.T.);
#610=EDGE_CURVE('',#481,#480,#394,.T.);
#611=EDGE_CURVE('',#480,#483,#264,.T.);
#612=EDGE_CURVE('',#483,#483,#395,.T.);
#613=EDGE_CURVE('',#418,#444,#265,.T.);
#614=EDGE_CURVE('',#445,#413,#266,.T.);
#615=ORIENTED_EDGE('',*,*,#484,.T.);
#616=ORIENTED_EDGE('',*,*,#485,.T.);
#617=ORIENTED_EDGE('',*,*,#486,.T.);
#618=ORIENTED_EDGE('',*,*,#487,.T.);
#619=ORIENTED_EDGE('',*,*,#486,.F.);
#620=ORIENTED_EDGE('',*,*,#488,.F.);
#621=ORIENTED_EDGE('',*,*,#489,.F.);
#622=ORIENTED_EDGE('',*,*,#490,.T.);
#623=ORIENTED_EDGE('',*,*,#485,.F.);
#624=ORIENTED_EDGE('',*,*,#491,.T.);
#625=ORIENTED_EDGE('',*,*,#492,.T.);
#626=ORIENTED_EDGE('',*,*,#493,.T.);
#627=ORIENTED_EDGE('',*,*,#494,.T.);
#628=ORIENTED_EDGE('',*,*,#495,.T.);
#629=ORIENTED_EDGE('',*,*,#496,.T.);
#630=ORIENTED_EDGE('',*,*,#497,.T.);
#631=ORIENTED_EDGE('',*,*,#498,.F.);
#632=ORIENTED_EDGE('',*,*,#488,.T.);
#633=ORIENTED_EDGE('',*,*,#489,.T.);
#634=ORIENTED_EDGE('',*,*,#498,.T.);
#635=ORIENTED_EDGE('',*,*,#499,.T.);
#636=ORIENTED_EDGE('',*,*,#500,.T.);
#637=ORIENTED_EDGE('',*,*,#501,.F.);
#638=ORIENTED_EDGE('',*,*,#502,.F.);
#639=ORIENTED_EDGE('',*,*,#503,.F.);
#640=ORIENTED_EDGE('',*,*,#504,.F.);
#641=ORIENTED_EDGE('',*,*,#505,.F.);
#642=ORIENTED_EDGE('',*,*,#506,.F.);
#643=ORIENTED_EDGE('',*,*,#507,.F.);
#644=ORIENTED_EDGE('',*,*,#508,.F.);
#645=ORIENTED_EDGE('',*,*,#509,.F.);
#646=ORIENTED_EDGE('',*,*,#510,.F.);
#647=ORIENTED_EDGE('',*,*,#501,.T.);
#648=ORIENTED_EDGE('',*,*,#511,.F.);
#649=ORIENTED_EDGE('',*,*,#492,.F.);
#650=ORIENTED_EDGE('',*,*,#512,.F.);
#651=ORIENTED_EDGE('',*,*,#505,.T.);
#652=ORIENTED_EDGE('',*,*,#513,.T.);
#653=ORIENTED_EDGE('',*,*,#514,.F.);
#654=ORIENTED_EDGE('',*,*,#515,.T.);
#655=ORIENTED_EDGE('',*,*,#493,.F.);
#656=ORIENTED_EDGE('',*,*,#511,.T.);
#657=ORIENTED_EDGE('',*,*,#516,.T.);
#658=ORIENTED_EDGE('',*,*,#507,.T.);
#659=ORIENTED_EDGE('',*,*,#517,.T.);
#660=ORIENTED_EDGE('',*,*,#495,.F.);
#661=ORIENTED_EDGE('',*,*,#518,.F.);
#662=ORIENTED_EDGE('',*,*,#519,.F.);
#663=ORIENTED_EDGE('',*,*,#484,.F.);
#664=ORIENTED_EDGE('',*,*,#520,.F.);
#665=ORIENTED_EDGE('',*,*,#521,.F.);
#666=ORIENTED_EDGE('',*,*,#522,.F.);
#667=ORIENTED_EDGE('',*,*,#523,.F.);
#668=ORIENTED_EDGE('',*,*,#524,.T.);
#669=ORIENTED_EDGE('',*,*,#499,.F.);
#670=ORIENTED_EDGE('',*,*,#497,.F.);
#671=ORIENTED_EDGE('',*,*,#525,.T.);
#672=ORIENTED_EDGE('',*,*,#510,.T.);
#673=ORIENTED_EDGE('',*,*,#526,.T.);
#674=ORIENTED_EDGE('',*,*,#527,.T.);
#675=ORIENTED_EDGE('',*,*,#528,.T.);
#676=ORIENTED_EDGE('',*,*,#502,.T.);
#677=ORIENTED_EDGE('',*,*,#512,.T.);
#678=ORIENTED_EDGE('',*,*,#491,.F.);
#679=ORIENTED_EDGE('',*,*,#529,.T.);
#680=ORIENTED_EDGE('',*,*,#530,.T.);
#681=ORIENTED_EDGE('',*,*,#531,.T.);
#682=ORIENTED_EDGE('',*,*,#532,.T.);
#683=ORIENTED_EDGE('',*,*,#506,.T.);
#684=ORIENTED_EDGE('',*,*,#525,.F.);
#685=ORIENTED_EDGE('',*,*,#496,.F.);
#686=ORIENTED_EDGE('',*,*,#517,.F.);
#687=ORIENTED_EDGE('',*,*,#500,.F.);
#688=ORIENTED_EDGE('',*,*,#524,.F.);
#689=ORIENTED_EDGE('',*,*,#533,.F.);
#690=ORIENTED_EDGE('',*,*,#534,.F.);
#691=ORIENTED_EDGE('',*,*,#487,.F.);
#692=ORIENTED_EDGE('',*,*,#535,.T.);
#693=ORIENTED_EDGE('',*,*,#536,.F.);
#694=ORIENTED_EDGE('',*,*,#520,.T.);
#695=ORIENTED_EDGE('',*,*,#537,.T.);
#696=ORIENTED_EDGE('',*,*,#538,.T.);
#697=ORIENTED_EDGE('',*,*,#539,.T.);
#698=ORIENTED_EDGE('',*,*,#540,.T.);
#699=ORIENTED_EDGE('',*,*,#541,.T.);
#700=ORIENTED_EDGE('',*,*,#542,.T.);
#701=ORIENTED_EDGE('',*,*,#543,.T.);
#702=ORIENTED_EDGE('',*,*,#544,.T.);
#703=ORIENTED_EDGE('',*,*,#519,.T.);
#704=ORIENTED_EDGE('',*,*,#545,.T.);
#705=ORIENTED_EDGE('',*,*,#514,.T.);
#706=ORIENTED_EDGE('',*,*,#546,.T.);
#707=ORIENTED_EDGE('',*,*,#518,.T.);
#708=ORIENTED_EDGE('',*,*,#494,.F.);
#709=ORIENTED_EDGE('',*,*,#515,.F.);
#710=ORIENTED_EDGE('',*,*,#545,.F.);
#711=ORIENTED_EDGE('',*,*,#527,.F.);
#712=ORIENTED_EDGE('',*,*,#547,.F.);
#713=ORIENTED_EDGE('',*,*,#548,.F.);
#714=ORIENTED_EDGE('',*,*,#549,.F.);
#715=ORIENTED_EDGE('',*,*,#521,.T.);
#716=ORIENTED_EDGE('',*,*,#536,.T.);
#717=ORIENTED_EDGE('',*,*,#550,.T.);
#718=ORIENTED_EDGE('',*,*,#551,.T.);
#719=ORIENTED_EDGE('',*,*,#552,.T.);
#720=ORIENTED_EDGE('',*,*,#533,.T.);
#721=ORIENTED_EDGE('',*,*,#523,.T.);
#722=ORIENTED_EDGE('',*,*,#553,.T.);
#723=ORIENTED_EDGE('',*,*,#534,.T.);
#724=ORIENTED_EDGE('',*,*,#552,.F.);
#725=ORIENTED_EDGE('',*,*,#554,.T.);
#726=ORIENTED_EDGE('',*,*,#550,.F.);
#727=ORIENTED_EDGE('',*,*,#535,.F.);
#728=ORIENTED_EDGE('',*,*,#490,.F.);
#729=ORIENTED_EDGE('',*,*,#555,.T.);
#730=ORIENTED_EDGE('',*,*,#556,.T.);
#731=ORIENTED_EDGE('',*,*,#557,.T.);
#732=ORIENTED_EDGE('',*,*,#558,.T.);
#733=ORIENTED_EDGE('',*,*,#559,.T.);
#734=ORIENTED_EDGE('',*,*,#560,.T.);
#735=ORIENTED_EDGE('',*,*,#561,.T.);
#736=ORIENTED_EDGE('',*,*,#562,.T.);
#737=ORIENTED_EDGE('',*,*,#563,.T.);
#738=ORIENTED_EDGE('',*,*,#564,.F.);
#739=ORIENTED_EDGE('',*,*,#565,.T.);
#740=ORIENTED_EDGE('',*,*,#541,.F.);
#741=ORIENTED_EDGE('',*,*,#566,.F.);
#742=ORIENTED_EDGE('',*,*,#567,.F.);
#743=ORIENTED_EDGE('',*,*,#563,.F.);
#744=ORIENTED_EDGE('',*,*,#544,.F.);
#745=ORIENTED_EDGE('',*,*,#568,.F.);
#746=ORIENTED_EDGE('',*,*,#569,.F.);
#747=ORIENTED_EDGE('',*,*,#566,.T.);
#748=ORIENTED_EDGE('',*,*,#543,.F.);
#749=ORIENTED_EDGE('',*,*,#565,.F.);
#750=ORIENTED_EDGE('',*,*,#570,.F.);
#751=ORIENTED_EDGE('',*,*,#568,.T.);
#752=ORIENTED_EDGE('',*,*,#542,.F.);
#753=ORIENTED_EDGE('',*,*,#559,.F.);
#754=ORIENTED_EDGE('',*,*,#571,.T.);
#755=ORIENTED_EDGE('',*,*,#540,.F.);
#756=ORIENTED_EDGE('',*,*,#572,.F.);
#757=ORIENTED_EDGE('',*,*,#560,.F.);
#758=ORIENTED_EDGE('',*,*,#572,.T.);
#759=ORIENTED_EDGE('',*,*,#539,.F.);
#760=ORIENTED_EDGE('',*,*,#573,.F.);
#761=ORIENTED_EDGE('',*,*,#561,.F.);
#762=ORIENTED_EDGE('',*,*,#573,.T.);
#763=ORIENTED_EDGE('',*,*,#538,.F.);
#764=ORIENTED_EDGE('',*,*,#574,.F.);
#765=ORIENTED_EDGE('',*,*,#562,.F.);
#766=ORIENTED_EDGE('',*,*,#574,.T.);
#767=ORIENTED_EDGE('',*,*,#537,.F.);
#768=ORIENTED_EDGE('',*,*,#571,.F.);
#769=ORIENTED_EDGE('',*,*,#569,.T.);
#770=ORIENTED_EDGE('',*,*,#570,.T.);
#771=ORIENTED_EDGE('',*,*,#564,.T.);
#772=ORIENTED_EDGE('',*,*,#567,.T.);
#773=ORIENTED_EDGE('',*,*,#575,.F.);
#774=ORIENTED_EDGE('',*,*,#576,.T.);
#775=ORIENTED_EDGE('',*,*,#577,.T.);
#776=ORIENTED_EDGE('',*,*,#578,.F.);
#777=ORIENTED_EDGE('',*,*,#579,.F.);
#778=ORIENTED_EDGE('',*,*,#580,.T.);
#779=ORIENTED_EDGE('',*,*,#581,.T.);
#780=ORIENTED_EDGE('',*,*,#576,.F.);
#781=ORIENTED_EDGE('',*,*,#582,.F.);
#782=ORIENTED_EDGE('',*,*,#583,.T.);
#783=ORIENTED_EDGE('',*,*,#584,.T.);
#784=ORIENTED_EDGE('',*,*,#580,.F.);
#785=ORIENTED_EDGE('',*,*,#585,.F.);
#786=ORIENTED_EDGE('',*,*,#578,.T.);
#787=ORIENTED_EDGE('',*,*,#586,.T.);
#788=ORIENTED_EDGE('',*,*,#583,.F.);
#789=ORIENTED_EDGE('',*,*,#586,.F.);
#790=ORIENTED_EDGE('',*,*,#577,.F.);
#791=ORIENTED_EDGE('',*,*,#581,.F.);
#792=ORIENTED_EDGE('',*,*,#584,.F.);
#793=ORIENTED_EDGE('',*,*,#555,.F.);
#794=ORIENTED_EDGE('',*,*,#587,.T.);
#795=ORIENTED_EDGE('',*,*,#588,.F.);
#796=ORIENTED_EDGE('',*,*,#589,.F.);
#797=ORIENTED_EDGE('',*,*,#556,.F.);
#798=ORIENTED_EDGE('',*,*,#589,.T.);
#799=ORIENTED_EDGE('',*,*,#590,.F.);
#800=ORIENTED_EDGE('',*,*,#591,.F.);
#801=ORIENTED_EDGE('',*,*,#557,.F.);
#802=ORIENTED_EDGE('',*,*,#591,.T.);
#803=ORIENTED_EDGE('',*,*,#592,.F.);
#804=ORIENTED_EDGE('',*,*,#593,.F.);
#805=ORIENTED_EDGE('',*,*,#558,.F.);
#806=ORIENTED_EDGE('',*,*,#593,.T.);
#807=ORIENTED_EDGE('',*,*,#594,.F.);
#808=ORIENTED_EDGE('',*,*,#587,.F.);
#809=ORIENTED_EDGE('',*,*,#594,.T.);
#810=ORIENTED_EDGE('',*,*,#592,.T.);
#811=ORIENTED_EDGE('',*,*,#590,.T.);
#812=ORIENTED_EDGE('',*,*,#588,.T.);
#813=ORIENTED_EDGE('',*,*,#575,.T.);
#814=ORIENTED_EDGE('',*,*,#585,.T.);
#815=ORIENTED_EDGE('',*,*,#582,.T.);
#816=ORIENTED_EDGE('',*,*,#579,.T.);
#817=ORIENTED_EDGE('',*,*,#595,.F.);
#818=ORIENTED_EDGE('',*,*,#596,.F.);
#819=ORIENTED_EDGE('',*,*,#597,.F.);
#820=ORIENTED_EDGE('',*,*,#598,.F.);
#821=ORIENTED_EDGE('',*,*,#532,.F.);
#822=ORIENTED_EDGE('',*,*,#599,.T.);
#823=ORIENTED_EDGE('',*,*,#595,.T.);
#824=ORIENTED_EDGE('',*,*,#599,.F.);
#825=ORIENTED_EDGE('',*,*,#531,.F.);
#826=ORIENTED_EDGE('',*,*,#600,.T.);
#827=ORIENTED_EDGE('',*,*,#596,.T.);
#828=ORIENTED_EDGE('',*,*,#600,.F.);
#829=ORIENTED_EDGE('',*,*,#530,.F.);
#830=ORIENTED_EDGE('',*,*,#601,.T.);
#831=ORIENTED_EDGE('',*,*,#597,.T.);
#832=ORIENTED_EDGE('',*,*,#601,.F.);
#833=ORIENTED_EDGE('',*,*,#529,.F.);
#834=ORIENTED_EDGE('',*,*,#602,.T.);
#835=ORIENTED_EDGE('',*,*,#598,.T.);
#836=ORIENTED_EDGE('',*,*,#602,.F.);
#837=ORIENTED_EDGE('',*,*,#603,.T.);
#838=ORIENTED_EDGE('',*,*,#604,.T.);
#839=ORIENTED_EDGE('',*,*,#604,.F.);
#840=ORIENTED_EDGE('',*,*,#605,.T.);
#841=ORIENTED_EDGE('',*,*,#603,.F.);
#842=ORIENTED_EDGE('',*,*,#606,.T.);
#843=ORIENTED_EDGE('',*,*,#607,.T.);
#844=ORIENTED_EDGE('',*,*,#606,.F.);
#845=ORIENTED_EDGE('',*,*,#605,.F.);
#846=ORIENTED_EDGE('',*,*,#608,.T.);
#847=ORIENTED_EDGE('',*,*,#609,.T.);
#848=ORIENTED_EDGE('',*,*,#609,.F.);
#849=ORIENTED_EDGE('',*,*,#610,.T.);
#850=ORIENTED_EDGE('',*,*,#608,.F.);
#851=ORIENTED_EDGE('',*,*,#611,.T.);
#852=ORIENTED_EDGE('',*,*,#612,.T.);
#853=ORIENTED_EDGE('',*,*,#611,.F.);
#854=ORIENTED_EDGE('',*,*,#610,.F.);
#855=ORIENTED_EDGE('',*,*,#526,.F.);
#856=ORIENTED_EDGE('',*,*,#509,.T.);
#857=ORIENTED_EDGE('',*,*,#613,.T.);
#858=ORIENTED_EDGE('',*,*,#547,.T.);
#859=ORIENTED_EDGE('',*,*,#528,.F.);
#860=ORIENTED_EDGE('',*,*,#549,.T.);
#861=ORIENTED_EDGE('',*,*,#614,.T.);
#862=ORIENTED_EDGE('',*,*,#503,.T.);
#863=ORIENTED_EDGE('',*,*,#613,.F.);
#864=ORIENTED_EDGE('',*,*,#508,.T.);
#865=ORIENTED_EDGE('',*,*,#516,.F.);
#866=ORIENTED_EDGE('',*,*,#546,.F.);
#867=ORIENTED_EDGE('',*,*,#513,.F.);
#868=ORIENTED_EDGE('',*,*,#504,.T.);
#869=ORIENTED_EDGE('',*,*,#614,.F.);
#870=ORIENTED_EDGE('',*,*,#548,.T.);
#871=ORIENTED_EDGE('',*,*,#607,.F.);
#872=ORIENTED_EDGE('',*,*,#612,.F.);
#873=ORIENTED_EDGE('',*,*,#551,.F.);
#874=ORIENTED_EDGE('',*,*,#554,.F.);
#875=ORIENTED_EDGE('',*,*,#553,.F.);
#876=ORIENTED_EDGE('',*,*,#522,.T.);
#877=CYLINDRICAL_SURFACE('',#966,5.);
#878=CYLINDRICAL_SURFACE('',#974,5.);
#879=CYLINDRICAL_SURFACE('',#981,2.);
#880=CYLINDRICAL_SURFACE('',#983,2.);
#881=CYLINDRICAL_SURFACE('',#1003,5.);
#882=CYLINDRICAL_SURFACE('',#1005,5.);
#883=CYLINDRICAL_SURFACE('',#1013,1.50000002235176);
#884=CYLINDRICAL_SURFACE('',#1016,1.50000002235176);
#885=CYLINDRICAL_SURFACE('',#1019,3.27405872989198);
#886=CYLINDRICAL_SURFACE('',#1021,3.27405872989198);
#887=CYLINDRICAL_SURFACE('',#1024,1.50000002235176);
#888=CYLINDRICAL_SURFACE('',#1028,1.50000002235176);
#889=CYLINDRICAL_SURFACE('',#1033,3.27405872989198);
#890=CYLINDRICAL_SURFACE('',#1036,3.27405872989198);
#891=CYLINDRICAL_SURFACE('',#1047,1.5);
#892=CYLINDRICAL_SURFACE('',#1048,1.5);
#893=CYLINDRICAL_SURFACE('',#1049,1.5);
#894=CYLINDRICAL_SURFACE('',#1050,1.49999999999999);
#895=CYLINDRICAL_SURFACE('',#1054,1.5);
#896=CYLINDRICAL_SURFACE('',#1059,1.5);
#897=ADVANCED_FACE('',(#62),#877,.T.);
#898=ADVANCED_FACE('',(#63),#29,.T.);
#899=ADVANCED_FACE('',(#64),#30,.T.);
#900=ADVANCED_FACE('',(#65),#878,.T.);
#901=ADVANCED_FACE('',(#66),#31,.F.);
#902=ADVANCED_FACE('',(#67),#32,.F.);
#903=ADVANCED_FACE('',(#68),#33,.F.);
#904=ADVANCED_FACE('',(#69),#879,.F.);
#905=ADVANCED_FACE('',(#70),#880,.F.);
#906=ADVANCED_FACE('',(#71,#19,#20,#21,#22),#34,.T.);
#907=ADVANCED_FACE('',(#72),#35,.F.);
#908=ADVANCED_FACE('',(#73),#36,.T.);
#909=ADVANCED_FACE('',(#74),#37,.T.);
#910=ADVANCED_FACE('',(#75,#23),#38,.T.);
#911=ADVANCED_FACE('',(#76),#39,.F.);
#912=ADVANCED_FACE('',(#77),#40,.T.);
#913=ADVANCED_FACE('',(#78),#41,.F.);
#914=ADVANCED_FACE('',(#79),#881,.T.);
#915=ADVANCED_FACE('',(#80),#882,.T.);
#916=ADVANCED_FACE('',(#81,#24,#25),#42,.T.);
#917=ADVANCED_FACE('',(#82),#43,.F.);
#918=ADVANCED_FACE('',(#83),#883,.F.);
#919=ADVANCED_FACE('',(#84),#44,.F.);
#920=ADVANCED_FACE('',(#85),#884,.F.);
#921=ADVANCED_FACE('',(#86),#45,.T.);
#922=ADVANCED_FACE('',(#87),#885,.T.);
#923=ADVANCED_FACE('',(#88),#46,.T.);
#924=ADVANCED_FACE('',(#89),#886,.T.);
#925=ADVANCED_FACE('',(#90),#47,.T.);
#926=ADVANCED_FACE('',(#91),#48,.F.);
#927=ADVANCED_FACE('',(#92),#887,.F.);
#928=ADVANCED_FACE('',(#93),#49,.F.);
#929=ADVANCED_FACE('',(#94),#888,.F.);
#930=ADVANCED_FACE('',(#95),#50,.T.);
#931=ADVANCED_FACE('',(#96),#51,.T.);
#932=ADVANCED_FACE('',(#97),#889,.T.);
#933=ADVANCED_FACE('',(#98),#52,.T.);
#934=ADVANCED_FACE('',(#99),#890,.T.);
#935=ADVANCED_FACE('',(#100,#26),#53,.T.);
#936=ADVANCED_FACE('',(#101),#54,.T.);
#937=ADVANCED_FACE('',(#102),#55,.T.);
#938=ADVANCED_FACE('',(#103),#56,.T.);
#939=ADVANCED_FACE('',(#104),#57,.T.);
#940=ADVANCED_FACE('',(#105),#891,.F.);
#941=ADVANCED_FACE('',(#106),#892,.F.);
#942=ADVANCED_FACE('',(#107),#893,.F.);
#943=ADVANCED_FACE('',(#108),#894,.F.);
#944=ADVANCED_FACE('',(#109),#15,.F.);
#945=ADVANCED_FACE('',(#110),#895,.T.);
#946=ADVANCED_FACE('',(#111),#16,.F.);
#947=ADVANCED_FACE('',(#112),#896,.T.);
#948=ADVANCED_FACE('',(#113),#58,.F.);
#949=ADVANCED_FACE('',(#114),#59,.F.);
#950=ADVANCED_FACE('',(#115,#27,#28),#60,.T.);
#951=ADVANCED_FACE('',(#116),#61,.T.);
#952=CLOSED_SHELL('',(#897,#898,#899,#900,#901,#902,#903,#904,#905,#906,
#907,#908,#909,#910,#911,#912,#913,#914,#915,#916,#917,#918,#919,#920,#921,
#922,#923,#924,#925,#926,#927,#928,#929,#930,#931,#932,#933,#934,#935,#936,
#937,#938,#939,#940,#941,#942,#943,#944,#945,#946,#947,#948,#949,#950,#951));
#953=DERIVED_UNIT_ELEMENT(#955,1.);
#954=DERIVED_UNIT_ELEMENT(#1718,-3.);
#955=(
MASS_UNIT()
NAMED_UNIT(*)
SI_UNIT(.KILO.,.GRAM.)
);
#956=DERIVED_UNIT((#953,#954));
#957=MEASURE_REPRESENTATION_ITEM('density measure',
POSITIVE_RATIO_MEASURE(7850.),#956);
#958=PROPERTY_DEFINITION_REPRESENTATION(#963,#960);
#959=PROPERTY_DEFINITION_REPRESENTATION(#964,#961);
#960=REPRESENTATION('material name',(#962),#1715);
#961=REPRESENTATION('density',(#957),#1715);
#962=DESCRIPTIVE_REPRESENTATION_ITEM('Steel','Steel');
#963=PROPERTY_DEFINITION('material property','material name',#1725);
#964=PROPERTY_DEFINITION('material property','density of part',#1725);
#965=AXIS2_PLACEMENT_3D('',#1350,#1065,#1066);
#966=AXIS2_PLACEMENT_3D('',#1351,#1067,#1068);
#967=AXIS2_PLACEMENT_3D('',#1354,#1069,#1070);
#968=AXIS2_PLACEMENT_3D('',#1358,#1072,#1073);
#969=AXIS2_PLACEMENT_3D('',#1360,#1075,#1076);
#970=AXIS2_PLACEMENT_3D('',#1364,#1078,#1079);
#971=AXIS2_PLACEMENT_3D('',#1366,#1081,#1082);
#972=AXIS2_PLACEMENT_3D('',#1372,#1085,#1086);
#973=AXIS2_PLACEMENT_3D('',#1376,#1088,#1089);
#974=AXIS2_PLACEMENT_3D('',#1382,#1093,#1094);
#975=AXIS2_PLACEMENT_3D('',#1384,#1095,#1096);
#976=AXIS2_PLACEMENT_3D('',#1386,#1098,#1099);
#977=AXIS2_PLACEMENT_3D('',#1396,#1104,#1105);
#978=AXIS2_PLACEMENT_3D('',#1397,#1106,#1107);
#979=AXIS2_PLACEMENT_3D('',#1402,#1109,#1110);
#980=AXIS2_PLACEMENT_3D('',#1408,#1114,#1115);
#981=AXIS2_PLACEMENT_3D('',#1411,#1118,#1119);
#982=AXIS2_PLACEMENT_3D('',#1415,#1121,#1122);
#983=AXIS2_PLACEMENT_3D('',#1417,#1124,#1125);
#984=AXIS2_PLACEMENT_3D('',#1423,#1129,#1130);
#985=AXIS2_PLACEMENT_3D('',#1424,#1131,#1132);
#986=AXIS2_PLACEMENT_3D('',#1428,#1134,#1135);
#987=AXIS2_PLACEMENT_3D('',#1432,#1137,#1138);
#988=AXIS2_PLACEMENT_3D('',#1441,#1144,#1145);
#989=AXIS2_PLACEMENT_3D('',#1443,#1146,#1147);
#990=AXIS2_PLACEMENT_3D('',#1445,#1148,#1149);
#991=AXIS2_PLACEMENT_3D('',#1447,#1150,#1151);
#992=AXIS2_PLACEMENT_3D('',#1448,#1152,#1153);
#993=AXIS2_PLACEMENT_3D('',#1449,#1154,#1155);
#994=AXIS2_PLACEMENT_3D('',#1453,#1158,#1159);
#995=AXIS2_PLACEMENT_3D('',#1457,#1162,#1163);
#996=AXIS2_PLACEMENT_3D('',#1460,#1164,#1165);
#997=AXIS2_PLACEMENT_3D('',#1464,#1167,#1168);
#998=AXIS2_PLACEMENT_3D('',#1470,#1171,#1172);
#999=AXIS2_PLACEMENT_3D('',#1473,#1174,#1175);
#1000=AXIS2_PLACEMENT_3D('',#1474,#1176,#1177);
#1001=AXIS2_PLACEMENT_3D('',#1477,#1180,#1181);
#1002=AXIS2_PLACEMENT_3D('',#1478,#1182,#1183);
#1003=AXIS2_PLACEMENT_3D('',#1484,#1187,#1188);
#1004=AXIS2_PLACEMENT_3D('',#1486,#1189,#1190);
#1005=AXIS2_PLACEMENT_3D('',#1488,#1192,#1193);
#1006=AXIS2_PLACEMENT_3D('',#1490,#1194,#1195);
#1007=AXIS2_PLACEMENT_3D('',#1492,#1197,#1198);
#1008=AXIS2_PLACEMENT_3D('',#1498,#1201,#1202);
#1009=AXIS2_PLACEMENT_3D('',#1501,#1204,#1205);
#1010=AXIS2_PLACEMENT_3D('',#1506,#1207,#1208);
#1011=AXIS2_PLACEMENT_3D('',#1509,#1210,#1211);
#1012=AXIS2_PLACEMENT_3D('',#1510,#1212,#1213);
#1013=AXIS2_PLACEMENT_3D('',#1516,#1217,#1218);
#1014=AXIS2_PLACEMENT_3D('',#1519,#1220,#1221);
#1015=AXIS2_PLACEMENT_3D('',#1520,#1222,#1223);
#1016=AXIS2_PLACEMENT_3D('',#1524,#1226,#1227);
#1017=AXIS2_PLACEMENT_3D('',#1525,#1228,#1229);
#1018=AXIS2_PLACEMENT_3D('',#1526,#1230,#1231);
#1019=AXIS2_PLACEMENT_3D('',#1529,#1234,#1235);
#1020=AXIS2_PLACEMENT_3D('',#1531,#1237,#1238);
#1021=AXIS2_PLACEMENT_3D('',#1533,#1240,#1241);
#1022=AXIS2_PLACEMENT_3D('',#1534,#1242,#1243);
#1023=AXIS2_PLACEMENT_3D('',#1535,#1244,#1245);
#1024=AXIS2_PLACEMENT_3D('',#1544,#1250,#1251);
#1025=AXIS2_PLACEMENT_3D('',#1546,#1252,#1253);
#1026=AXIS2_PLACEMENT_3D('',#1549,#1255,#1256);
#1027=AXIS2_PLACEMENT_3D('',#1550,#1257,#1258);
#1028=AXIS2_PLACEMENT_3D('',#1556,#1262,#1263);
#1029=AXIS2_PLACEMENT_3D('',#1557,#1264,#1265);
#1030=AXIS2_PLACEMENT_3D('',#1558,#1266,#1267);
#1031=AXIS2_PLACEMENT_3D('',#1559,#1268,#1269);
#1032=AXIS2_PLACEMENT_3D('',#1560,#1270,#1271);
#1033=AXIS2_PLACEMENT_3D('',#1566,#1275,#1276);
#1034=AXIS2_PLACEMENT_3D('',#1568,#1277,#1278);
#1035=AXIS2_PLACEMENT_3D('',#1570,#1280,#1281);
#1036=AXIS2_PLACEMENT_3D('',#1574,#1284,#1285);
#1037=AXIS2_PLACEMENT_3D('',#1575,#1286,#1287);
#1038=AXIS2_PLACEMENT_3D('',#1576,#1288,#1289);
#1039=AXIS2_PLACEMENT_3D('',#1577,#1290,#1291);
#1040=AXIS2_PLACEMENT_3D('',#1579,#1292,#1293);
#1041=AXIS2_PLACEMENT_3D('',#1580,#1294,#1295);
#1042=AXIS2_PLACEMENT_3D('',#1582,#1296,#1297);
#1043=AXIS2_PLACEMENT_3D('',#1583,#1298,#1299);
#1044=AXIS2_PLACEMENT_3D('',#1585,#1300,#1301);
#1045=AXIS2_PLACEMENT_3D('',#1586,#1302,#1303);
#1046=AXIS2_PLACEMENT_3D('',#1588,#1304,#1305);
#1047=AXIS2_PLACEMENT_3D('',#1589,#1306,#1307);
#1048=AXIS2_PLACEMENT_3D('',#1591,#1309,#1310);
#1049=AXIS2_PLACEMENT_3D('',#1593,#1312,#1313);
#1050=AXIS2_PLACEMENT_3D('',#1595,#1315,#1316);
#1051=AXIS2_PLACEMENT_3D('',#1644,#1318,#1319);
#1052=AXIS2_PLACEMENT_3D('',#1646,#1320,#1321);
#1053=AXIS2_PLACEMENT_3D('',#1647,#1322,#1323);
#1054=AXIS2_PLACEMENT_3D('',#1648,#1324,#1325);
#1055=AXIS2_PLACEMENT_3D('',#1651,#1327,#1328);
#1056=AXIS2_PLACEMENT_3D('',#1699,#1329,#1330);
#1057=AXIS2_PLACEMENT_3D('',#1701,#1331,#1332);
#1058=AXIS2_PLACEMENT_3D('',#1702,#1333,#1334);
#1059=AXIS2_PLACEMENT_3D('',#1703,#1335,#1336);
#1060=AXIS2_PLACEMENT_3D('',#1706,#1338,#1339);
#1061=AXIS2_PLACEMENT_3D('',#1707,#1340,#1341);
#1062=AXIS2_PLACEMENT_3D('',#1709,#1343,#1344);
#1063=AXIS2_PLACEMENT_3D('',#1711,#1346,#1347);
#1064=AXIS2_PLACEMENT_3D('',#1712,#1348,#1349);
#1065=DIRECTION('axis',(0.,0.,1.));
#1066=DIRECTION('refdir',(1.,0.,0.));
#1067=DIRECTION('center_axis',(0.,-0.17401374693026,0.98474322332235));
#1068=DIRECTION('ref_axis',(-0.707106781186549,0.696318610938731,0.123046300474066));
#1069=DIRECTION('center_axis',(0.,0.17401374693026,-0.98474322332235));
#1070=DIRECTION('ref_axis',(-0.707106781186549,0.696318610938731,0.123046300474066));
#1071=DIRECTION('',(0.,0.17401374693026,-0.98474322332235));
#1072=DIRECTION('center_axis',(0.,-0.17401374693026,0.98474322332235));
#1073=DIRECTION('ref_axis',(-0.707106781186549,0.696318610938731,0.123046300474066));
#1074=DIRECTION('',(0.,-0.17401374693026,0.98474322332235));
#1075=DIRECTION('center_axis',(0.,0.17401374693026,-0.98474322332235));
#1076=DIRECTION('ref_axis',(-1.,0.,0.));
#1077=DIRECTION('',(-1.,0.,0.));
#1078=DIRECTION('center_axis',(0.,-0.17401374693026,0.98474322332235));
#1079=DIRECTION('ref_axis',(0.707106781186549,0.696318610938731,0.123046300474066));
#1080=DIRECTION('',(-1.,0.,0.));
#1081=DIRECTION('center_axis',(0.,0.98474322332235,0.17401374693026));
#1082=DIRECTION('ref_axis',(0.,0.17401374693026,-0.98474322332235));
#1083=DIRECTION('',(1.,0.,0.));
#1084=DIRECTION('',(0.,0.17401374693026,-0.98474322332235));
#1085=DIRECTION('center_axis',(0.,-0.98474322332235,-0.17401374693026));
#1086=DIRECTION('ref_axis',(-0.707106781186548,0.12304630047407,-0.696318610938732));
#1087=DIRECTION('',(1.,0.,0.));
#1088=DIRECTION('center_axis',(0.,-0.98474322332235,-0.17401374693026));
#1089=DIRECTION('ref_axis',(0.707106781186547,0.123046300474058,-0.696318610938734));
#1090=DIRECTION('',(0.,-0.17401374693026,0.98474322332235));
#1091=DIRECTION('',(1.,0.,0.));
#1092=DIRECTION('',(0.,-0.17401374693026,0.98474322332235));
#1093=DIRECTION('center_axis',(0.,0.17401374693026,-0.98474322332235));
#1094=DIRECTION('ref_axis',(0.707106781186549,0.696318610938731,0.123046300474066));
#1095=DIRECTION('center_axis',(0.,0.17401374693026,-0.98474322332235));
#1096=DIRECTION('ref_axis',(0.707106781186549,0.696318610938731,0.123046300474066));
#1097=DIRECTION('',(0.,0.17401374693026,-0.98474322332235));
#1098=DIRECTION('center_axis',(0.,0.98474322332235,0.17401374693026));
#1099=DIRECTION('ref_axis',(1.,0.,0.));
#1100=DIRECTION('',(0.,0.17401374693026,-0.98474322332235));
#1101=DIRECTION('',(1.,0.,0.));
#1102=DIRECTION('',(0.,-0.17401374693026,0.98474322332235));
#1103=DIRECTION('',(-1.,0.,0.));
#1104=DIRECTION('center_axis',(0.,-0.98474322332235,-0.17401374693026));
#1105=DIRECTION('ref_axis',(-0.707106781186548,0.12304630047407,-0.696318610938732));
#1106=DIRECTION('center_axis',(0.,0.98474322332235,0.17401374693026));
#1107=DIRECTION('ref_axis',(1.,0.,0.));
#1108=DIRECTION('',(0.,-0.17401374693026,0.98474322332235));
#1109=DIRECTION('center_axis',(0.,-0.98474322332235,-0.17401374693026));
#1110=DIRECTION('ref_axis',(0.707106781186547,0.123046300474058,-0.696318610938734));
#1111=DIRECTION('',(-1.,0.,0.));
#1112=DIRECTION('',(0.,0.17401374693026,-0.98474322332235));
#1113=DIRECTION('',(1.,0.,0.));
#1114=DIRECTION('center_axis',(-1.,0.,0.));
#1115=DIRECTION('ref_axis',(0.,-0.17364817766693,0.984807753012208));
#1116=DIRECTION('',(0.,-0.984743223322351,-0.174013746930252));
#1117=DIRECTION('',(0.,0.98474322332235,0.17401374693026));
#1118=DIRECTION('center_axis',(0.,0.984743223322351,0.174013746930252));
#1119=DIRECTION('ref_axis',(-0.707106781186548,0.12304630047407,-0.696318610938732));
#1120=DIRECTION('',(0.,-0.984743223322351,-0.174013746930252));
#1121=DIRECTION('center_axis',(0.,0.98474322332235,0.174013746930258));
#1122=DIRECTION('ref_axis',(-0.707106781186548,0.12304630047407,-0.696318610938732));
#1123=DIRECTION('',(0.,0.984743223322351,0.174013746930252));
#1124=DIRECTION('center_axis',(0.,-0.984743223322351,-0.174013746930252));
#1125=DIRECTION('ref_axis',(0.707106781186547,0.123046300474058,-0.696318610938734));
#1126=DIRECTION('',(0.,0.984743223322351,0.174013746930252));
#1127=DIRECTION('',(0.,0.984743223322351,0.174013746930252));
#1128=DIRECTION('',(0.,0.98474322332235,0.17401374693026));
#1129=DIRECTION('center_axis',(0.,0.98474322332235,0.174013746930258));
#1130=DIRECTION('ref_axis',(0.707106781186547,0.123046300474058,-0.696318610938734));
#1131=DIRECTION('center_axis',(0.,-0.17401374693026,0.98474322332235));
#1132=DIRECTION('ref_axis',(0.,0.98474322332235,0.17401374693026));
#1133=DIRECTION('',(0.,0.98474322332235,0.17401374693026));
#1134=DIRECTION('center_axis',(0.,0.17401374693026,-0.98474322332235));
#1135=DIRECTION('ref_axis',(-0.707106781186547,-0.696318610938733,-0.123046300474067));
#1136=DIRECTION('',(-1.,0.,0.));
#1137=DIRECTION('center_axis',(0.,0.17401374693026,-0.98474322332235));
#1138=DIRECTION('ref_axis',(0.707106781186547,-0.696318610938733,-0.123046300474067));
#1139=DIRECTION('',(0.,0.98474322332235,0.17401374693026));
#1140=DIRECTION('',(0.,-0.98474322332235,-0.17401374693026));
#1141=DIRECTION('',(0.,-0.98474322332235,-0.17401374693026));
#1142=DIRECTION('',(-1.,0.,0.));
#1143=DIRECTION('',(0.,0.98474322332235,0.17401374693026));
#1144=DIRECTION('center_axis',(0.,0.17401374693026,-0.98474322332235));
#1145=DIRECTION('ref_axis',(1.,0.,0.));
#1146=DIRECTION('center_axis',(0.,0.17401374693026,-0.98474322332235));
#1147=DIRECTION('ref_axis',(1.,0.,0.));
#1148=DIRECTION('center_axis',(0.,0.17401374693026,-0.98474322332235));
#1149=DIRECTION('ref_axis',(1.,0.,0.));
#1150=DIRECTION('center_axis',(0.,0.17401374693026,-0.98474322332235));
#1151=DIRECTION('ref_axis',(1.,0.,0.));
#1152=DIRECTION('center_axis',(1.,0.,0.));
#1153=DIRECTION('ref_axis',(0.,0.17364817766693,-0.984807753012208));
#1154=DIRECTION('center_axis',(1.,0.,0.));
#1155=DIRECTION('ref_axis',(0.,0.98474322332235,0.17401374693026));
#1156=DIRECTION('',(0.,-0.17401374693026,0.98474322332235));
#1157=DIRECTION('',(0.,-0.999946398762411,-0.0103537240684861));
#1158=DIRECTION('center_axis',(-1.,0.,0.));
#1159=DIRECTION('ref_axis',(0.,-0.17401374693026,0.98474322332235));
#1160=DIRECTION('',(0.,-0.999946398762411,-0.0103537240684861));
#1161=DIRECTION('',(0.,0.17401374693026,-0.98474322332235));
#1162=DIRECTION('center_axis',(0.,0.0103537240684788,-0.999946398762411));
#1163=DIRECTION('ref_axis',(-1.,0.,0.));
#1164=DIRECTION('center_axis',(0.,0.0103537240684788,-0.999946398762411));
#1165=DIRECTION('ref_axis',(0.,-0.999946398762411,-0.0103537240684787));
#1166=DIRECTION('',(1.,0.,0.));
#1167=DIRECTION('center_axis',(0.,0.0103537240684788,-0.999946398762411));
#1168=DIRECTION('ref_axis',(0.,0.999946398762411,0.0103537240684787));
#1169=DIRECTION('',(-1.,0.,0.));
#1170=DIRECTION('',(-1.,4.9340599944636E-16,5.10886341340124E-18));
#1171=DIRECTION('center_axis',(0.,-0.0103537240684788,0.999946398762411));
#1172=DIRECTION('ref_axis',(-2.96059468821742E-15,-0.999946398762411,-0.0103537240684777));
#1173=DIRECTION('',(1.,-4.9340599944636E-16,-5.10886341340124E-18));
#1174=DIRECTION('center_axis',(0.,-0.0103537240684788,0.999946398762411));
#1175=DIRECTION('ref_axis',(2.96059468821742E-15,0.999946398762411,0.0103537240684777));
#1176=DIRECTION('center_axis',(0.,-0.98474322332235,-0.174013746930258));
#1177=DIRECTION('ref_axis',(-1.,0.,0.));
#1178=DIRECTION('',(-1.,0.,0.));
#1179=DIRECTION('',(1.,0.,0.));
#1180=DIRECTION('center_axis',(0.,-0.174013746930252,0.984743223322351));
#1181=DIRECTION('ref_axis',(1.,0.,0.));
#1182=DIRECTION('center_axis',(0.,-0.98474322332235,-0.17401374693026));
#1183=DIRECTION('ref_axis',(0.,0.17401374693026,-0.98474322332235));
#1184=DIRECTION('',(0.,-0.17401374693026,0.98474322332235));
#1185=DIRECTION('',(1.,0.,0.));
#1186=DIRECTION('',(0.,0.17401374693026,-0.98474322332235));
#1187=DIRECTION('center_axis',(0.,-0.17401374693026,0.98474322332235));
#1188=DIRECTION('ref_axis',(-0.707106781186547,-0.696318610938733,-0.123046300474067));
#1189=DIRECTION('center_axis',(0.,-0.0103537240684861,0.999946398762411));
#1190=DIRECTION('ref_axis',(1.36903284568101E-15,-0.999946398762411,-0.0103537240684861));
#1191=DIRECTION('',(0.,-0.17401374693026,0.98474322332235));
#1192=DIRECTION('center_axis',(0.,0.17401374693026,-0.98474322332235));
#1193=DIRECTION('ref_axis',(0.707106781186547,-0.696318610938733,-0.123046300474067));
#1194=DIRECTION('center_axis',(0.,-0.0103537240684861,0.999946398762411));
#1195=DIRECTION('ref_axis',(-1.36903284568101E-15,-0.999946398762411,-0.0103537240684861));
#1196=DIRECTION('',(0.,0.17401374693026,-0.98474322332235));
#1197=DIRECTION('center_axis',(0.,0.0103537240684861,-0.999946398762411));
#1198=DIRECTION('ref_axis',(-1.,0.,0.));
#1199=DIRECTION('',(-1.,0.,0.));
#1200=DIRECTION('',(1.,0.,0.));
#1201=DIRECTION('center_axis',(0.,-0.010353724068486,0.999946398762411));
#1202=DIRECTION('ref_axis',(0.,0.99994639876241,0.0103537240684896));
#1203=DIRECTION('',(-1.,0.,0.));
#1204=DIRECTION('center_axis',(0.,-0.010353724068486,0.999946398762411));
#1205=DIRECTION('ref_axis',(0.,-0.99994639876241,-0.0103537240684896));
#1206=DIRECTION('',(1.,0.,0.));
#1207=DIRECTION('center_axis',(0.,-0.0103537240684861,0.999946398762411));
#1208=DIRECTION('ref_axis',(0.,0.99994639876241,0.0103537240684896));
#1209=DIRECTION('',(-1.,0.,0.));
#1210=DIRECTION('center_axis',(0.,-0.0103537240684861,0.999946398762411));
#1211=DIRECTION('ref_axis',(0.,-0.99994639876241,-0.0103537240684896));
#1212=DIRECTION('center_axis',(4.93432448036242E-16,0.999946398762411,0.0103537240684778));
#1213=DIRECTION('ref_axis',(-1.,4.93385618777241E-16,7.07719640694042E-18));
#1214=DIRECTION('',(0.,-0.0103537240684778,0.999946398762411));
#1215=DIRECTION('',(1.,-4.9340599944636E-16,-5.10886341340483E-18));
#1216=DIRECTION('',(0.,0.010353724068479,-0.999946398762411));
#1217=DIRECTION('center_axis',(0.,-0.0103537240684778,0.999946398762411));
#1218=DIRECTION('ref_axis',(2.96059468821742E-15,0.999946398762411,0.0103537240684777));
#1219=DIRECTION('',(0.,0.010353724068479,-0.999946398762411));
#1220=DIRECTION('center_axis',(0.,0.0103537240684861,-0.999946398762411));
#1221=DIRECTION('ref_axis',(2.96059468821742E-15,0.999946398762411,0.0103537240684777));
#1222=DIRECTION('center_axis',(-4.93432448036242E-16,-0.999946398762411,
-0.0103537240684778));
#1223=DIRECTION('ref_axis',(1.,-4.93385618777241E-16,-7.07719640694042E-18));
#1224=DIRECTION('',(0.,0.010353724068479,-0.999946398762411));
#1225=DIRECTION('',(-1.,4.9340599944636E-16,5.10886341340483E-18));
#1226=DIRECTION('center_axis',(0.,-0.0103537240684778,0.999946398762411));
#1227=DIRECTION('ref_axis',(-2.96059468821742E-15,-0.999946398762411,-0.0103537240684777));
#1228=DIRECTION('center_axis',(0.,0.0103537240684861,-0.999946398762411));
#1229=DIRECTION('ref_axis',(-2.96059468821742E-15,-0.999946398762411,-0.0103537240684777));
#1230=DIRECTION('center_axis',(0.,-0.999946398762411,-0.0103537240684896));
#1231=DIRECTION('ref_axis',(-1.,0.,0.));
#1232=DIRECTION('',(0.,0.0103537240684896,-0.99994639876241));
#1233=DIRECTION('',(0.,0.010353724068479,-0.999946398762411));
#1234=DIRECTION('center_axis',(0.,0.0103537240684896,-0.999946398762411));
#1235=DIRECTION('ref_axis',(0.,0.99994639876241,0.0103537240684896));
#1236=DIRECTION('',(0.,0.010353724068479,-0.999946398762411));
#1237=DIRECTION('center_axis',(0.,0.999946398762411,0.0103537240684896));
#1238=DIRECTION('ref_axis',(1.,0.,0.));
#1239=DIRECTION('',(0.,0.010353724068479,-0.999946398762411));
#1240=DIRECTION('center_axis',(0.,0.0103537240684896,-0.999946398762411));
#1241=DIRECTION('ref_axis',(0.,-0.99994639876241,-0.0103537240684896));
#1242=DIRECTION('center_axis',(0.,0.0103537240684861,-0.999946398762411));
#1243=DIRECTION('ref_axis',(-1.,0.,0.));
#1244=DIRECTION('center_axis',(4.93432448036242E-16,0.999946398762411,0.0103537240684778));
#1245=DIRECTION('ref_axis',(-1.,4.93385618777241E-16,7.07719640694042E-18));
#1246=DIRECTION('',(-1.,4.9340599944636E-16,5.10886341340123E-18));
#1247=DIRECTION('',(0.,-0.0103537240684778,0.999946398762411));
#1248=DIRECTION('',(-1.,4.93385618777242E-16,7.07719640694043E-18));
#1249=DIRECTION('',(0.,-0.0103537240684778,0.999946398762411));
#1250=DIRECTION('center_axis',(0.,-0.0103537240684778,0.999946398762411));
#1251=DIRECTION('ref_axis',(2.96059468821742E-15,0.999946398762411,0.0103537240684777));
#1252=DIRECTION('center_axis',(0.,-0.0103537240684788,0.999946398762411));
#1253=DIRECTION('ref_axis',(2.96059468821742E-15,0.999946398762411,0.0103537240684777));
#1254=DIRECTION('',(0.,-0.0103537240684778,0.999946398762411));
#1255=DIRECTION('center_axis',(5.82774857984073E-33,-0.0103537240684861,
0.999946398762411));
#1256=DIRECTION('ref_axis',(2.96059468821742E-15,0.99994639876241,0.010353724068486));
#1257=DIRECTION('center_axis',(-4.93432448036242E-16,-0.999946398762411,
-0.0103537240684778));
#1258=DIRECTION('ref_axis',(1.,-4.93385618777241E-16,-7.07719640694042E-18));
#1259=DIRECTION('',(1.,-4.9340599944636E-16,-5.10886341340123E-18));
#1260=DIRECTION('',(0.,-0.0103537240684778,0.999946398762411));
#1261=DIRECTION('',(1.,-4.93385618777242E-16,-7.07719640694043E-18));
#1262=DIRECTION('center_axis',(0.,-0.0103537240684778,0.999946398762411));
#1263=DIRECTION('ref_axis',(-2.96059468821742E-15,-0.999946398762411,-0.0103537240684777));
#1264=DIRECTION('center_axis',(0.,-0.0103537240684788,0.999946398762411));
#1265=DIRECTION('ref_axis',(-2.96059468821742E-15,-0.999946398762411,-0.0103537240684777));
#1266=DIRECTION('center_axis',(5.82774857984073E-33,-0.0103537240684861,
0.999946398762411));
#1267=DIRECTION('ref_axis',(-2.96059468821742E-15,-0.99994639876241,-0.010353724068486));
#1268=DIRECTION('center_axis',(0.,0.0103537240684861,-0.999946398762411));
#1269=DIRECTION('ref_axis',(-1.,0.,0.));
#1270=DIRECTION('center_axis',(0.,-0.999946398762411,-0.0103537240684896));
#1271=DIRECTION('ref_axis',(-1.,0.,0.));
#1272=DIRECTION('',(0.,0.0103537240684896,-0.99994639876241));
#1273=DIRECTION('',(-1.,0.,0.));
#1274=DIRECTION('',(0.,0.0103537240684896,-0.99994639876241));
#1275=DIRECTION('center_axis',(0.,0.0103537240684896,-0.999946398762411));
#1276=DIRECTION('ref_axis',(0.,0.99994639876241,0.0103537240684896));
#1277=DIRECTION('center_axis',(0.,0.0103537240684788,-0.999946398762411));
#1278=DIRECTION('ref_axis',(0.,0.999946398762411,0.0103537240684787));
#1279=DIRECTION('',(0.,0.0103537240684896,-0.99994639876241));
#1280=DIRECTION('center_axis',(0.,0.999946398762411,0.0103537240684896));
#1281=DIRECTION('ref_axis',(1.,0.,0.));
#1282=DIRECTION('',(1.,0.,0.));
#1283=DIRECTION('',(0.,0.0103537240684896,-0.99994639876241));
#1284=DIRECTION('center_axis',(0.,0.0103537240684896,-0.999946398762411));
#1285=DIRECTION('ref_axis',(0.,-0.99994639876241,-0.0103537240684896));
#1286=DIRECTION('center_axis',(0.,0.0103537240684788,-0.999946398762411));
#1287=DIRECTION('ref_axis',(0.,-0.999946398762411,-0.0103537240684787));
#1288=DIRECTION('center_axis',(0.,0.0103537240684788,-0.999946398762411));
#1289=DIRECTION('ref_axis',(-1.,0.,0.));
#1290=DIRECTION('center_axis',(0.,-0.174013746930259,0.98474322332235));
#1291=DIRECTION('ref_axis',(1.,0.,0.));
#1292=DIRECTION('center_axis',(0.,0.174013746930259,-0.98474322332235));
#1293=DIRECTION('ref_axis',(1.,0.,0.));
#1294=DIRECTION('center_axis',(0.,-0.174013746930259,0.98474322332235));
#1295=DIRECTION('ref_axis',(1.,0.,0.));
#1296=DIRECTION('center_axis',(0.,0.174013746930259,-0.98474322332235));
#1297=DIRECTION('ref_axis',(1.,0.,0.));
#1298=DIRECTION('center_axis',(0.,-0.174013746930259,0.98474322332235));
#1299=DIRECTION('ref_axis',(1.,0.,0.));
#1300=DIRECTION('center_axis',(0.,0.174013746930259,-0.98474322332235));
#1301=DIRECTION('ref_axis',(1.,0.,0.));
#1302=DIRECTION('center_axis',(0.,-0.174013746930259,0.98474322332235));
#1303=DIRECTION('ref_axis',(1.,0.,0.));
#1304=DIRECTION('center_axis',(0.,0.174013746930259,-0.98474322332235));
#1305=DIRECTION('ref_axis',(1.,0.,0.));
#1306=DIRECTION('center_axis',(0.,0.17401374693026,-0.98474322332235));
#1307=DIRECTION('ref_axis',(1.,0.,0.));
#1308=DIRECTION('',(0.,0.17401374693026,-0.98474322332235));
#1309=DIRECTION('center_axis',(0.,0.174013746930261,-0.98474322332235));
#1310=DIRECTION('ref_axis',(1.,0.,0.));
#1311=DIRECTION('',(0.,0.174013746930261,-0.98474322332235));
#1312=DIRECTION('center_axis',(0.,0.17401374693026,-0.98474322332235));
#1313=DIRECTION('ref_axis',(1.,0.,0.));
#1314=DIRECTION('',(0.,0.17401374693026,-0.98474322332235));
#1315=DIRECTION('center_axis',(0.,0.174013746930261,-0.98474322332235));
#1316=DIRECTION('ref_axis',(1.,0.,0.));
#1317=DIRECTION('',(0.,0.174013746930261,-0.98474322332235));
#1318=DIRECTION('center_axis',(1.38498009538676E-17,-0.17401374693026,0.98474322332235));
#1319=DIRECTION('ref_axis',(0.866025403784437,-0.492371611661178,-0.0870068734651311));
#1320=DIRECTION('center_axis',(-0.499999999999998,-0.852812647601729,-0.150700325449321));
#1321=DIRECTION('ref_axis',(0.86602540378444,-0.492371611661172,-0.0870068734651319));
#1322=DIRECTION('center_axis',(1.38498009538676E-17,-0.17401374693026,0.98474322332235));
#1323=DIRECTION('ref_axis',(0.866025403784437,-0.492371611661178,-0.0870068734651311));
#1324=DIRECTION('center_axis',(2.79868539468937E-20,0.17401374693026,-0.98474322332235));
#1325=DIRECTION('ref_axis',(0.866025403784439,-0.492371611661175,-0.0870068734651298));
#1326=DIRECTION('',(2.79868539468937E-20,0.17401374693026,-0.98474322332235));
#1327=DIRECTION('center_axis',(-2.79868539468937E-20,-0.17401374693026,
0.98474322332235));
#1328=DIRECTION('ref_axis',(0.866025403784439,-0.492371611661175,-0.0870068734651298));
#1329=DIRECTION('center_axis',(-1.76453903563261E-17,-0.17401374693026,
0.98474322332235));
#1330=DIRECTION('ref_axis',(0.771224194192078,0.626851710997154,0.110770820673676));
#1331=DIRECTION('center_axis',(0.636563619988436,-0.759457798892888,-0.134203611754633));
#1332=DIRECTION('ref_axis',(0.771224194192077,0.626851710997156,0.110770820673676));
#1333=DIRECTION('center_axis',(-1.76453903563261E-17,-0.17401374693026,
0.98474322332235));
#1334=DIRECTION('ref_axis',(0.771224194192078,0.626851710997154,0.110770820673676));
#1335=DIRECTION('center_axis',(-2.71050551875777E-20,0.17401374693026,-0.98474322332235));
#1336=DIRECTION('ref_axis',(0.771224194192076,0.626851710997157,0.110770820673678));
#1337=DIRECTION('',(-2.71050551875777E-20,0.17401374693026,-0.98474322332235));
#1338=DIRECTION('center_axis',(2.71050551875777E-20,-0.17401374693026,0.98474322332235));
#1339=DIRECTION('ref_axis',(0.771224194192076,0.626851710997157,0.110770820673678));
#1340=DIRECTION('center_axis',(1.,0.,0.));
#1341=DIRECTION('ref_axis',(0.,-0.98474322332235,-0.17401374693026));
#1342=DIRECTION('',(0.,-0.98474322332235,-0.17401374693026));
#1343=DIRECTION('center_axis',(-1.,0.,0.));
#1344=DIRECTION('ref_axis',(0.,0.98474322332235,0.17401374693026));
#1345=DIRECTION('',(0.,0.98474322332235,0.174013746930259));
#1346=DIRECTION('center_axis',(0.,-0.17401374693026,0.98474322332235));
#1347=DIRECTION('ref_axis',(1.,0.,0.));
#1348=DIRECTION('center_axis',(0.,-0.98474322332235,-0.17401374693026));
#1349=DIRECTION('ref_axis',(0.,-0.17401374693026,0.98474322332235));
#1350=CARTESIAN_POINT('',(0.,0.,0.));
#1351=CARTESIAN_POINT('Origin',(56.799998922646,85.8407780677105,35.2549832506697));
#1352=CARTESIAN_POINT('',(51.799998922646,84.3616612188033,43.6253006489097));
#1353=CARTESIAN_POINT('',(56.799998922646,89.285377335415,44.495369383561));
#1354=CARTESIAN_POINT('Origin',(56.799998922646,84.3616612188033,43.6253006489097));
#1355=CARTESIAN_POINT('',(56.799998922646,95.2018447310439,11.0140997906011));
#1356=CARTESIAN_POINT('',(56.799998922646,90.7644941843222,36.125051985321));
#1357=CARTESIAN_POINT('',(51.799998922646,90.2781286144321,10.1440310559498));
#1358=CARTESIAN_POINT('Origin',(56.799998922646,90.2781286144321,10.1440310559498));
#1359=CARTESIAN_POINT('',(51.799998922646,85.8407780677105,35.2549832506697));
#1360=CARTESIAN_POINT('Origin',(148.199998922646,90.2781286144321,10.1440310559498));
#1361=CARTESIAN_POINT('',(143.199998922646,95.2018447310439,11.0140997906011));
#1362=CARTESIAN_POINT('',(148.199998922646,95.2018447310439,11.0140997906011));
#1363=CARTESIAN_POINT('',(148.199998922646,90.2781286144321,10.1440310559498));
#1364=CARTESIAN_POINT('Origin',(143.199998922646,90.2781286144321,10.1440310559498));
#1365=CARTESIAN_POINT('',(148.199998922646,90.2781286144321,10.1440310559498));
#1366=CARTESIAN_POINT('Origin',(148.199998922646,89.285377335415,44.495369383561));
#1367=CARTESIAN_POINT('',(70.6000004224479,89.285377335415,44.495369383561));
#1368=CARTESIAN_POINT('',(148.199998922646,89.285377335415,44.495369383561));
#1369=CARTESIAN_POINT('',(70.6000004224479,90.8058256368273,35.8911574311122));
#1370=CARTESIAN_POINT('',(70.6000004224479,90.0177485996355,40.350882800635));
#1371=CARTESIAN_POINT('',(72.6000004224479,91.1538531306879,33.9216709844676));
#1372=CARTESIAN_POINT('Origin',(72.6000004224479,90.8058256368273,35.8911574311122));
#1373=CARTESIAN_POINT('',(89.6000004224479,91.1538531306879,33.9216709844676));
#1374=CARTESIAN_POINT('',(118.399999672547,91.1538531306878,33.9216709844675));
#1375=CARTESIAN_POINT('',(91.6000004224479,90.8058256368273,35.8911574311122));
#1376=CARTESIAN_POINT('Origin',(89.6000004224479,90.8058256368273,35.8911574311122));
#1377=CARTESIAN_POINT('',(91.6000004224479,89.285377335415,44.495369383561));
#1378=CARTESIAN_POINT('',(91.6000004224479,90.0177485996355,40.350882800635));
#1379=CARTESIAN_POINT('',(143.199998922646,89.285377335415,44.495369383561));
#1380=CARTESIAN_POINT('',(148.199998922646,89.285377335415,44.495369383561));
#1381=CARTESIAN_POINT('',(143.199998922646,90.7644941843222,36.125051985321));
#1382=CARTESIAN_POINT('Origin',(143.199998922646,85.8407780677105,35.2549832506697));
#1383=CARTESIAN_POINT('',(148.199998922646,84.3616612188033,43.6253006489097));
#1384=CARTESIAN_POINT('Origin',(143.199998922646,84.3616612188033,43.6253006489097));
#1385=CARTESIAN_POINT('',(148.199998922646,85.8407780677105,35.2549832506697));
#1386=CARTESIAN_POINT('Origin',(56.8000009655952,84.6108128158472,43.9393759944458));
#1387=CARTESIAN_POINT('',(70.6000004224479,84.657087902678,43.6775054297974));
#1388=CARTESIAN_POINT('',(70.6000004224479,86.1775362040903,35.0732934773487));
#1389=CARTESIAN_POINT('',(70.6000004224479,85.3663216234831,39.6639541291957));
#1390=CARTESIAN_POINT('',(56.8000009655952,84.657087902678,43.6775054297974));
#1391=CARTESIAN_POINT('',(102.499999944121,84.657087902678,43.6775054297974));
#1392=CARTESIAN_POINT('',(56.8000009655952,86.5249640320801,33.1072005379));
#1393=CARTESIAN_POINT('',(56.8000009655952,84.6108128158472,43.9393759944458));
#1394=CARTESIAN_POINT('',(72.4826443071911,86.5249640320801,33.1072005379));
#1395=CARTESIAN_POINT('',(143.199999034405,86.5249640320801,33.1072005379));
#1396=CARTESIAN_POINT('Origin',(72.6000004224479,86.1775362040902,35.0732934773487));
#1397=CARTESIAN_POINT('Origin',(56.8000009655952,84.6108128158472,43.9393759944458));
#1398=CARTESIAN_POINT('',(91.6000004224479,86.1775362040903,35.0732934773487));
#1399=CARTESIAN_POINT('',(91.6000004224479,84.657087902678,43.6775054297974));
#1400=CARTESIAN_POINT('',(91.6000004224479,84.6702666357621,43.602927022485));
#1401=CARTESIAN_POINT('',(89.7173565377048,86.5249640320801,33.1072005379));
#1402=CARTESIAN_POINT('Origin',(89.6000004224479,86.1775362040902,35.0732934773487));
#1403=CARTESIAN_POINT('',(143.199999034405,86.5249640320801,33.1072005379));
#1404=CARTESIAN_POINT('',(143.199999034405,86.5249640320801,33.1072005379));
#1405=CARTESIAN_POINT('',(143.199999034405,84.657087902678,43.6775054297974));
#1406=CARTESIAN_POINT('',(143.199999034405,84.6108128158472,43.9393759944458));
#1407=CARTESIAN_POINT('',(102.499999944121,84.657087902678,43.6775054297974));
#1408=CARTESIAN_POINT('Origin',(70.6000004224479,81.1981143145072,34.5184635292942));
#1409=CARTESIAN_POINT('',(70.6000004224479,81.2538200874785,34.2032247426974));
#1410=CARTESIAN_POINT('',(70.6000004224479,84.3616612188033,43.6253006489097));
#1411=CARTESIAN_POINT('Origin',(72.6000004224479,81.2538200874785,34.2032247426974));
#1412=CARTESIAN_POINT('',(72.4826443071911,81.6012479154683,32.2371318032487));
#1413=CARTESIAN_POINT('',(72.4826443071909,81.6012479154683,32.2371318032487));
#1414=CARTESIAN_POINT('',(72.6000004224479,81.601847581339,32.2337382960527));
#1415=CARTESIAN_POINT('Origin',(72.6000004224479,81.2538200874785,34.2032247426974));
#1416=CARTESIAN_POINT('',(72.6000004224479,81.601847581339,32.2337382960527));
#1417=CARTESIAN_POINT('Origin',(89.6000004224479,81.2538200874785,34.2032247426974));
#1418=CARTESIAN_POINT('',(89.7173565377048,81.6012479154683,32.2371318032487));
#1419=CARTESIAN_POINT('',(89.7173565377049,81.6012479154683,32.2371318032487));
#1420=CARTESIAN_POINT('',(91.6000004224479,81.2538200874785,34.2032247426974));
#1421=CARTESIAN_POINT('',(89.6000004224479,81.601847581339,32.2337382960527));
#1422=CARTESIAN_POINT('',(89.6000004224479,86.2301370140761,33.0516022498163));
#1423=CARTESIAN_POINT('Origin',(89.6000004224479,81.2538200874785,34.2032247426974));
#1424=CARTESIAN_POINT('Origin',(148.199998922646,-22.3845018033767,24.7622109032925));
#1425=CARTESIAN_POINT('',(51.799998922646,-17.460785686765,25.6322796379438));
#1426=CARTESIAN_POINT('',(51.799998922646,84.3616612188033,43.6253006489097));
#1427=CARTESIAN_POINT('',(56.799998922646,-22.3845018033767,24.7622109032925));
#1428=CARTESIAN_POINT('Origin',(56.799998922646,-17.460785686765,25.6322796379438));
#1429=CARTESIAN_POINT('',(143.199998922646,-22.3845018033767,24.7622109032925));
#1430=CARTESIAN_POINT('',(148.199998922646,-22.3845018033767,24.7622109032925));
#1431=CARTESIAN_POINT('',(148.199998922646,-17.460785686765,25.6322796379438));
#1432=CARTESIAN_POINT('Origin',(143.199998922646,-17.460785686765,25.6322796379438));
#1433=CARTESIAN_POINT('',(148.199998922646,-22.3845018033767,24.7622109032925));
#1434=CARTESIAN_POINT('',(91.6000004224479,28.6744349913447,33.7848237992193));
#1435=CARTESIAN_POINT('',(143.199999034405,-17.683653992028,25.5928966313363));
#1436=CARTESIAN_POINT('',(143.199999034405,-18.3470546229723,25.4756672594833));
#1437=CARTESIAN_POINT('',(56.8000009655952,-17.683653992028,25.5928966313363));
#1438=CARTESIAN_POINT('',(145.699998978525,-17.683653992028,25.5928966313363));
#1439=CARTESIAN_POINT('',(56.8000009655952,-18.3470546229723,25.4756672594833));
#1440=CARTESIAN_POINT('',(53.4254068951709,80.2925202863396,42.9062436971327));
#1441=CARTESIAN_POINT('Origin',(54.9254068951709,80.2925202863396,42.9062436971327));
#1442=CARTESIAN_POINT('',(53.4254068951709,-16.9683255297373,25.7193021582401));
#1443=CARTESIAN_POINT('Origin',(54.9254068951709,-16.9683255297373,25.7193021582401));
#1444=CARTESIAN_POINT('',(143.651341500122,80.2925202863396,42.9062436971327));
#1445=CARTESIAN_POINT('Origin',(145.151341500122,80.2925202863396,42.9062436971327));
#1446=CARTESIAN_POINT('',(143.651341500122,-16.9683255297372,25.7193021582401));
#1447=CARTESIAN_POINT('Origin',(145.151341500122,-16.9683255297372,25.7193021582401));
#1448=CARTESIAN_POINT('Origin',(91.6000004224479,79.8060043390651,42.396409315873));
#1449=CARTESIAN_POINT('Origin',(148.199998922646,33.9468134055277,17.4531209796211));
#1450=CARTESIAN_POINT('',(148.199998922646,-14.5320893744991,9.05879680943582));
#1451=CARTESIAN_POINT('',(148.199998922646,-14.5895588624157,9.38401645312499));
#1452=CARTESIAN_POINT('',(148.199998922646,90.2781286144321,10.1440310559498));
#1453=CARTESIAN_POINT('Origin',(51.799998922646,33.9468134055277,17.4531209796211));
#1454=CARTESIAN_POINT('',(51.799998922646,-14.5320893744991,9.05879680943582));
#1455=CARTESIAN_POINT('',(51.799998922646,90.2781286144321,10.1440310559498));
#1456=CARTESIAN_POINT('',(51.799998922646,-14.5895588624157,9.38401645312499));
#1457=CARTESIAN_POINT('Origin',(99.999998922646,-57.3525579581887,6.11528771750653));
#1458=CARTESIAN_POINT('',(64.4530766552954,-15.7757832487341,6.54578524570582));
#1459=CARTESIAN_POINT('',(64.4530766552954,-9.22801677614982,6.61358264705241));
#1460=CARTESIAN_POINT('Origin',(64.4530766552954,-12.5019000124419,6.57968394637912));
#1461=CARTESIAN_POINT('',(135.546923358901,-9.22801677614982,6.61358264705241));
#1462=CARTESIAN_POINT('',(64.4530766552954,-9.2280167761498,6.61358264705241));
#1463=CARTESIAN_POINT('',(135.546923358901,-15.7757832487341,6.54578524570582));
#1464=CARTESIAN_POINT('Origin',(135.546923358901,-12.5019000124419,6.57968394637912));
#1465=CARTESIAN_POINT('',(135.546923358901,-15.775783248734,6.54578524570582));
#1466=CARTESIAN_POINT('',(136.000000536442,-10.9983969550159,6.59525163661927));
#1467=CARTESIAN_POINT('',(63.9999994635582,-10.9983969550158,6.59525163661927));
#1468=CARTESIAN_POINT('',(117.999999729544,-10.9983969550159,6.59525163661928));
#1469=CARTESIAN_POINT('',(63.9999994635582,-13.9982361960042,6.56419046395097));
#1470=CARTESIAN_POINT('Origin',(63.9999994635582,-12.49831657551,6.5797210502851));
#1471=CARTESIAN_POINT('',(136.000000536442,-13.9982361960042,6.56419046395096));
#1472=CARTESIAN_POINT('',(81.9999991931021,-13.9982361960042,6.564190463951));
#1473=CARTESIAN_POINT('Origin',(136.000000536442,-12.4983165755101,6.5797210502851));
#1474=CARTESIAN_POINT('Origin',(91.6000004224479,81.1981143145072,34.5184635292942));
#1475=CARTESIAN_POINT('',(90.1000004224479,81.601847581339,32.2337382960527));
#1476=CARTESIAN_POINT('',(143.199999034405,81.6012479154683,32.2371318032487));
#1477=CARTESIAN_POINT('Origin',(88.6000004224479,81.601847581339,32.2337382960527));
#1478=CARTESIAN_POINT('Origin',(143.199999034405,-17.7299290788587,25.8547671959847));
#1479=CARTESIAN_POINT('',(143.199999034405,-15.8157778626259,15.0225917394388));
#1480=CARTESIAN_POINT('',(143.199999034405,-17.7299290788587,25.8547671959847));
#1481=CARTESIAN_POINT('',(56.8000009655952,-15.8157778626259,15.0225917394388));
#1482=CARTESIAN_POINT('',(143.199999034405,-15.8157778626259,15.0225917394388));
#1483=CARTESIAN_POINT('',(56.8000009655952,-17.7299290788587,25.8547671959847));
#1484=CARTESIAN_POINT('Origin',(56.799998922646,-14.5895588624157,9.38401645312499));
#1485=CARTESIAN_POINT('',(56.799998922646,-19.6002818524926,9.00631933013486));
#1486=CARTESIAN_POINT('Origin',(56.799998922646,-14.5320893744991,9.05879680943582));
#1487=CARTESIAN_POINT('',(56.799998922646,-19.5132749790275,8.51394771847369));
#1488=CARTESIAN_POINT('Origin',(143.199998922646,-14.5895588624157,9.38401645312499));
#1489=CARTESIAN_POINT('',(143.199998922646,-19.6002818524926,9.00631933013486));
#1490=CARTESIAN_POINT('Origin',(143.199998922646,-14.5320893744991,9.05879680943582));
#1491=CARTESIAN_POINT('',(143.199998922646,-19.5132749790275,8.51394771847369));
#1492=CARTESIAN_POINT('Origin',(100.000000007098,80.1895813267166,10.0395714219152));
#1493=CARTESIAN_POINT('',(148.199998922646,-19.6002818524926,9.00631933013486));
#1494=CARTESIAN_POINT('',(64.4530766552954,76.9156980904244,10.0056727212413));
#1495=CARTESIAN_POINT('',(135.546923358901,76.9156980904244,10.0056727212413));
#1496=CARTESIAN_POINT('',(141.873461140774,76.9156980904244,10.0056727212419));
#1497=CARTESIAN_POINT('',(135.546923358901,83.4634645630087,10.0734701225879));
#1498=CARTESIAN_POINT('Origin',(135.546923358901,80.1895813267166,10.0395714219152));
#1499=CARTESIAN_POINT('',(64.4530766552954,83.4634645630087,10.0734701225879));
#1500=CARTESIAN_POINT('',(106.326537788971,83.4634645630087,10.0734701225886));
#1501=CARTESIAN_POINT('Origin',(64.4530766552954,80.1895813267166,10.0395714219152));
#1502=CARTESIAN_POINT('',(64.4530766552954,-15.8016675589053,9.04565124261185));
#1503=CARTESIAN_POINT('',(135.546923358901,-15.8016675589053,9.04565124261185));
#1504=CARTESIAN_POINT('',(117.773461683,-15.8016675589053,9.04565124261246));
#1505=CARTESIAN_POINT('',(135.546923358901,-9.25390108632103,9.11344864395844));
#1506=CARTESIAN_POINT('Origin',(135.546923358901,-12.5277843226132,9.07954994328545));
#1507=CARTESIAN_POINT('',(64.4530766552954,-9.25390108632103,9.11344864395844));
#1508=CARTESIAN_POINT('',(82.2265383311968,-9.25390108632105,9.1134486439591));
#1509=CARTESIAN_POINT('Origin',(64.4530766552954,-12.5277843226132,9.07954994328545));
#1510=CARTESIAN_POINT('Origin',(136.000000536442,-11.0087506790844,7.59519803538168));
#1511=CARTESIAN_POINT('',(136.000000536442,-11.0242812651871,9.0951176335253));
#1512=CARTESIAN_POINT('',(136.000000536442,-11.0087506790844,7.59519803538168));
#1513=CARTESIAN_POINT('',(63.9999994635582,-11.024281265187,9.0951176335253));
#1514=CARTESIAN_POINT('',(118.00000027177,-11.0242812651871,9.09511763352596));
#1515=CARTESIAN_POINT('',(63.9999994635582,-11.0087506790843,7.59519803538168));
#1516=CARTESIAN_POINT('Origin',(136.000000536442,-12.5086702995785,7.57966744904753));
#1517=CARTESIAN_POINT('',(136.000000536442,-14.0241205061754,9.06405646085699));
#1518=CARTESIAN_POINT('',(136.000000536442,-14.0085899200727,7.56413686271338));
#1519=CARTESIAN_POINT('Origin',(136.000000536442,-12.5242008856813,9.07958704719258));
#1520=CARTESIAN_POINT('Origin',(63.9999994635582,-14.0085899200727,7.56413686271338));
#1521=CARTESIAN_POINT('',(63.9999994635582,-14.0241205061754,9.06405646085699));
#1522=CARTESIAN_POINT('',(63.9999994635582,-14.0085899200727,7.56413686271338));
#1523=CARTESIAN_POINT('',(81.9999997353282,-14.0241205061754,9.06405646085765));
#1524=CARTESIAN_POINT('Origin',(63.9999994635582,-12.5086702995785,7.57966744904753));
#1525=CARTESIAN_POINT('Origin',(63.9999994635582,-12.5242008856812,9.07958704719258));
#1526=CARTESIAN_POINT('Origin',(135.546923358901,-15.8016675589053,9.04565124261185));
#1527=CARTESIAN_POINT('',(64.4530766552954,-15.8016675589053,9.04565124261185));
#1528=CARTESIAN_POINT('',(135.546923358901,-15.7861369728025,7.54573164446823));
#1529=CARTESIAN_POINT('Origin',(135.546923358901,-12.5277843226131,9.07954994328515));
#1530=CARTESIAN_POINT('',(135.546923358901,-9.2383705002183,7.61352904581483));
#1531=CARTESIAN_POINT('Origin',(64.4530766552954,-9.25390108632103,9.11344864395844));
#1532=CARTESIAN_POINT('',(64.4530766552954,-9.2383705002183,7.61352904581483));
#1533=CARTESIAN_POINT('Origin',(64.4530766552954,-12.5277843226131,9.07954994328515));
#1534=CARTESIAN_POINT('Origin',(100.000000007098,80.1895813267166,10.0395714219152));
#1535=CARTESIAN_POINT('Origin',(136.000000536442,81.7086149702453,8.55521951401114));
#1536=CARTESIAN_POINT('',(136.000000536442,81.7086149702453,8.55521951401114));
#1537=CARTESIAN_POINT('',(63.9999994635582,81.7086149702454,8.55521951401114));
#1538=CARTESIAN_POINT('',(117.999999729544,81.7086149702453,8.55521951401115));
#1539=CARTESIAN_POINT('',(136.000000536442,81.6930843841426,10.0551391121548));
#1540=CARTESIAN_POINT('',(136.000000536442,81.7086149702453,8.55521951401114));
#1541=CARTESIAN_POINT('',(63.9999994635582,81.6930843841427,10.0551391121548));
#1542=CARTESIAN_POINT('',(63.9999994635582,81.6930843841427,10.0551391121548));
#1543=CARTESIAN_POINT('',(63.9999994635582,81.7086149702454,8.55521951401114));
#1544=CARTESIAN_POINT('Origin',(136.000000536442,80.2086953497512,8.53968892767698));
#1545=CARTESIAN_POINT('',(136.000000536442,78.708775729257,8.52415834134283));
#1546=CARTESIAN_POINT('Origin',(136.000000536442,80.2086953497512,8.53968892767696));
#1547=CARTESIAN_POINT('',(136.000000536442,78.6932451431543,10.0240779394864));
#1548=CARTESIAN_POINT('',(136.000000536442,78.708775729257,8.52415834134283));
#1549=CARTESIAN_POINT('Origin',(136.000000536442,80.1931647636484,10.0396085258206));
#1550=CARTESIAN_POINT('Origin',(63.9999994635582,78.708775729257,8.52415834134283));
#1551=CARTESIAN_POINT('',(63.9999994635582,78.708775729257,8.52415834134283));
#1552=CARTESIAN_POINT('',(81.9999991931021,78.708775729257,8.52415834134286));
#1553=CARTESIAN_POINT('',(63.9999994635582,78.6932451431543,10.0240779394864));
#1554=CARTESIAN_POINT('',(63.9999994635582,78.708775729257,8.52415834134283));
#1555=CARTESIAN_POINT('',(136.000000536442,78.6932451431543,10.0240779394864));
#1556=CARTESIAN_POINT('Origin',(63.9999994635582,80.2086953497512,8.53968892767698));
#1557=CARTESIAN_POINT('Origin',(63.9999994635582,80.2086953497512,8.53968892767696));
#1558=CARTESIAN_POINT('Origin',(63.9999994635582,80.1931647636485,10.0396085258206));
#1559=CARTESIAN_POINT('Origin',(100.000000007098,80.1895813267166,10.0395714219152));
#1560=CARTESIAN_POINT('Origin',(135.546923358901,76.9156980904244,10.0056727212413));
#1561=CARTESIAN_POINT('',(64.4530766552954,76.9312286765272,8.50575312309769));
#1562=CARTESIAN_POINT('',(64.4530766552954,76.9156980904244,10.0056727212413));
#1563=CARTESIAN_POINT('',(135.546923358901,76.9312286765272,8.50575312309769));
#1564=CARTESIAN_POINT('',(135.546923358901,76.9312286765272,8.50575312309769));
#1565=CARTESIAN_POINT('',(135.546923358901,76.9156980904244,10.0056727212413));
#1566=CARTESIAN_POINT('Origin',(135.546923358901,80.1895813267166,10.0395714219146));
#1567=CARTESIAN_POINT('',(135.546923358901,83.4789951491114,8.57355052444428));
#1568=CARTESIAN_POINT('Origin',(135.546923358901,80.2051119128193,8.53965182377098));
#1569=CARTESIAN_POINT('',(135.546923358901,83.4634645630087,10.0734701225879));
#1570=CARTESIAN_POINT('Origin',(64.4530766552954,83.4634645630087,10.0734701225879));
#1571=CARTESIAN_POINT('',(64.4530766552954,83.4789951491114,8.57355052444428));
#1572=CARTESIAN_POINT('',(64.4530766552954,83.4789951491114,8.57355052444428));
#1573=CARTESIAN_POINT('',(64.4530766552954,83.4634645630087,10.0734701225879));
#1574=CARTESIAN_POINT('Origin',(64.4530766552954,80.1895813267166,10.0395714219146));
#1575=CARTESIAN_POINT('Origin',(64.4530766552954,80.2051119128193,8.53965182377098));
#1576=CARTESIAN_POINT('Origin',(99.999998922646,35.3544539670725,8.0752555948984));
#1577=CARTESIAN_POINT('Origin',(100.,31.7433197828707,29.6769956683005));
#1578=CARTESIAN_POINT('',(143.651341500122,-16.1714845542753,21.2099816907819));
#1579=CARTESIAN_POINT('Origin',(145.151341500122,-16.1714845542753,21.2099816907819));
#1580=CARTESIAN_POINT('Origin',(100.,31.7433197828707,29.6769956683005));
#1581=CARTESIAN_POINT('',(143.651341500122,81.0893612618016,38.3969232296744));
#1582=CARTESIAN_POINT('Origin',(145.151341500122,81.0893612618016,38.3969232296744));
#1583=CARTESIAN_POINT('Origin',(100.,31.7433197828707,29.6769956683005));
#1584=CARTESIAN_POINT('',(53.4254068951709,-16.1714845542753,21.2099816907819));
#1585=CARTESIAN_POINT('Origin',(54.9254068951709,-16.1714845542753,21.2099816907819));
#1586=CARTESIAN_POINT('Origin',(100.,31.7433197828707,29.6769956683005));
#1587=CARTESIAN_POINT('',(53.4254068951709,81.0893612618016,38.3969232296744));
#1588=CARTESIAN_POINT('Origin',(54.9254068951709,81.0893612618016,38.3969232296744));
#1589=CARTESIAN_POINT('Origin',(145.151341500122,-17.4765876562523,28.5955558656996));
#1590=CARTESIAN_POINT('',(143.651341500122,-17.4765876562523,28.5955558656996));
#1591=CARTESIAN_POINT('Origin',(145.151341500122,79.7842581598246,45.782497404592));
#1592=CARTESIAN_POINT('',(143.651341500122,79.7842581598246,45.782497404592));
#1593=CARTESIAN_POINT('Origin',(54.9254068951709,-17.4765876562523,28.5955558656995));
#1594=CARTESIAN_POINT('',(53.4254068951709,-17.4765876562523,28.5955558656995));
#1595=CARTESIAN_POINT('Origin',(54.9254068951709,79.7842581598246,45.782497404592));
#1596=CARTESIAN_POINT('',(53.4254068951709,79.7842581598246,45.782497404592));
#1597=CARTESIAN_POINT('Ctrl Pts',(61.6722136564101,79.1503808646644,41.388512659622));
#1598=CARTESIAN_POINT('Ctrl Pts',(61.6722136564101,79.1503808646644,41.388512659622));
#1599=CARTESIAN_POINT('Ctrl Pts',(61.6722136564101,79.1503808646644,41.388512659622));
#1600=CARTESIAN_POINT('Ctrl Pts',(61.6722136564101,79.1503808646644,41.388512659622));
#1601=CARTESIAN_POINT('Ctrl Pts',(61.6722136564101,79.1503808646644,41.388512659622));
#1602=CARTESIAN_POINT('Ctrl Pts',(61.6722136564101,79.1503808646644,41.388512659622));
#1603=CARTESIAN_POINT('Ctrl Pts',(61.6722136564101,79.1503808646644,41.388512659622));
#1604=CARTESIAN_POINT('Ctrl Pts',(61.6722136564101,79.1503808646644,41.388512659622));
#1605=CARTESIAN_POINT('Ctrl Pts',(61.6722136564101,79.1503808646644,41.388512659622));
#1606=CARTESIAN_POINT('Ctrl Pts',(62.1052263583023,78.8539616170173,41.6292801054233));
#1607=CARTESIAN_POINT('Ctrl Pts',(61.8552263583023,78.4275552932165,41.5539299426987));
#1608=CARTESIAN_POINT('Ctrl Pts',(61.4222136564101,78.673741099047,41.5974333794313));
#1609=CARTESIAN_POINT('Ctrl Pts',(60.9892009545179,78.9199269048776,41.6409368161638));
#1610=CARTESIAN_POINT('Ctrl Pts',(61.2392009545179,79.3463332286785,41.7162869788885));
#1611=CARTESIAN_POINT('Ctrl Pts',(61.4892009545178,79.7727395524794,41.7916371416131));
#1612=CARTESIAN_POINT('Ctrl Pts',(61.9222136564101,79.5265537466488,41.7481337048806));
#1613=CARTESIAN_POINT('Ctrl Pts',(62.3552263583023,79.2803679408182,41.704630268148));
#1614=CARTESIAN_POINT('Ctrl Pts',(62.1052263583023,78.8539616170173,41.6292801054233));
#1615=CARTESIAN_POINT('Ctrl Pts',(62.5382390601945,78.6580092530032,41.3015057861569));
#1616=CARTESIAN_POINT('Ctrl Pts',(62.0382390601945,77.8051966054015,41.1508054607075));
#1617=CARTESIAN_POINT('Ctrl Pts',(61.1722136564101,78.2975682170626,41.2378123341727));
#1618=CARTESIAN_POINT('Ctrl Pts',(60.3061882526256,78.7899398287238,41.3248192076378));
#1619=CARTESIAN_POINT('Ctrl Pts',(60.8061882526256,79.6427524763255,41.4755195330871));
#1620=CARTESIAN_POINT('Ctrl Pts',(61.3061882526256,80.4955651239273,41.6262198585364));
#1621=CARTESIAN_POINT('Ctrl Pts',(62.1722136564101,80.0031935122661,41.5392129850713));
#1622=CARTESIAN_POINT('Ctrl Pts',(63.0382390601945,79.5108219006049,41.4522061116062));
#1623=CARTESIAN_POINT('Ctrl Pts',(62.5382390601945,78.6580092530032,41.3015057861569));
#1624=CARTESIAN_POINT('Ctrl Pts',(62.9712517620867,78.462056888989,40.9737314668904));
#1625=CARTESIAN_POINT('Ctrl Pts',(62.2212517620867,77.1828379175864,40.7476809787164));
#1626=CARTESIAN_POINT('Ctrl Pts',(60.9222136564101,77.9213953350782,40.8781912889141));
#1627=CARTESIAN_POINT('Ctrl Pts',(59.6231755507334,78.65995275257,41.0087015991118));
#1628=CARTESIAN_POINT('Ctrl Pts',(60.3731755507334,79.9391717239726,41.2347520872858));
#1629=CARTESIAN_POINT('Ctrl Pts',(61.1231755507334,81.2183906953752,41.4608025754598));
#1630=CARTESIAN_POINT('Ctrl Pts',(62.4222136564101,80.4798332778834,41.3302922652621));
#1631=CARTESIAN_POINT('Ctrl Pts',(63.7212517620867,79.7412758603917,41.1997819550644));
#1632=CARTESIAN_POINT('Ctrl Pts',(62.9712517620867,78.462056888989,40.9737314668904));
#1633=CARTESIAN_POINT('Ctrl Pts',(62.9712517620867,78.5625237726219,40.4051897018226));
#1634=CARTESIAN_POINT('Ctrl Pts',(62.2212517620867,77.2833048012193,40.1791392136486));
#1635=CARTESIAN_POINT('Ctrl Pts',(60.9222136564101,78.0218622187111,40.3096495238463));
#1636=CARTESIAN_POINT('Ctrl Pts',(59.6231755507334,78.7604196362028,40.440159834044));
#1637=CARTESIAN_POINT('Ctrl Pts',(60.3731755507334,80.0396386076054,40.666210322218));
#1638=CARTESIAN_POINT('Ctrl Pts',(61.1231755507334,81.318857579008,40.8922608103919));
#1639=CARTESIAN_POINT('Ctrl Pts',(62.4222136564101,80.5803001615163,40.7617505001942));
#1640=CARTESIAN_POINT('Ctrl Pts',(63.7212517620867,79.8417427440245,40.6312401899965));
#1641=CARTESIAN_POINT('Ctrl Pts',(62.9712517620867,78.5625237726219,40.4051897018226));
#1642=CARTESIAN_POINT('',(60.3731755507334,80.0396386076054,40.666210322218));
#1643=CARTESIAN_POINT('',(62.9712517620867,78.5625237726219,40.4051897018226));
#1644=CARTESIAN_POINT('Origin',(61.6722136564101,79.3010811901137,40.5357000120203));
#1645=CARTESIAN_POINT('',(61.6722136564101,79.1503808646644,41.388512659622));
#1646=CARTESIAN_POINT('Origin',(62.1052263583023,79.0548953842831,40.4921965752877));
#1647=CARTESIAN_POINT('Origin',(61.6722136564101,79.3010811901137,40.5357000120203));
#1648=CARTESIAN_POINT('Origin',(61.6722136564101,78.8786139976754,42.9264404688436));
#1649=CARTESIAN_POINT('',(60.3731755507334,81.5313226314001,32.2247753224954));
#1650=CARTESIAN_POINT('',(60.3731755507334,79.6171714151672,43.0569507790413));
#1651=CARTESIAN_POINT('Origin',(61.6722136564101,80.7927652139083,32.0942650122977));
#1652=CARTESIAN_POINT('Ctrl Pts',(138.177128610709,79.1512533231786,41.388666831564));
#1653=CARTESIAN_POINT('Ctrl Pts',(138.177128610709,79.1512533231786,41.388666831564));
#1654=CARTESIAN_POINT('Ctrl Pts',(138.177128610709,79.1512533231786,41.388666831564));
#1655=CARTESIAN_POINT('Ctrl Pts',(138.177128610709,79.1512533231786,41.388666831564));
#1656=CARTESIAN_POINT('Ctrl Pts',(138.177128610709,79.1512533231786,41.388666831564));
#1657=CARTESIAN_POINT('Ctrl Pts',(138.177128610709,79.1512533231786,41.388666831564));
#1658=CARTESIAN_POINT('Ctrl Pts',(138.177128610709,79.1512533231786,41.388666831564));
#1659=CARTESIAN_POINT('Ctrl Pts',(138.177128610709,79.1512533231786,41.388666831564));
#1660=CARTESIAN_POINT('Ctrl Pts',(138.177128610709,79.1512533231786,41.388666831564));
#1661=CARTESIAN_POINT('Ctrl Pts',(138.562740707805,79.4144457368607,41.7283231244347));
#1662=CARTESIAN_POINT('Ctrl Pts',(138.881022517799,79.0347168374142,41.6612213185574));
#1663=CARTESIAN_POINT('Ctrl Pts',(138.495410420703,78.7212909819157,41.6058359082206));
#1664=CARTESIAN_POINT('Ctrl Pts',(138.109798323607,78.4078651264171,41.5504504978837));
#1665=CARTESIAN_POINT('Ctrl Pts',(137.791516513613,78.7875940258635,41.617552303761));
#1666=CARTESIAN_POINT('Ctrl Pts',(137.473234703619,79.16732292531,41.6846541096383));
#1667=CARTESIAN_POINT('Ctrl Pts',(137.858846800715,79.4807487808085,41.7400395199752));
#1668=CARTESIAN_POINT('Ctrl Pts',(138.244458897811,79.7941746363071,41.795424930312));
#1669=CARTESIAN_POINT('Ctrl Pts',(138.562740707805,79.4144457368607,41.7283231244347));
#1670=CARTESIAN_POINT('Ctrl Pts',(138.948352804901,79.7781050341757,41.4994376522376));
#1671=CARTESIAN_POINT('Ctrl Pts',(139.584916424889,79.0186472352828,41.365234040483));
#1672=CARTESIAN_POINT('Ctrl Pts',(138.813692230697,78.3917955242857,41.2544632198093));
#1673=CARTESIAN_POINT('Ctrl Pts',(138.042468036505,77.7649438132885,41.1436923991357));
#1674=CARTESIAN_POINT('Ctrl Pts',(137.405904416517,78.5244016121814,41.2778960108903));
#1675=CARTESIAN_POINT('Ctrl Pts',(136.769340796528,79.2838594110743,41.4120996226449));
#1676=CARTESIAN_POINT('Ctrl Pts',(137.54056499072,79.9107111220714,41.5228704433186));
#1677=CARTESIAN_POINT('Ctrl Pts',(138.311789184913,80.5375628330686,41.6336412639923));
#1678=CARTESIAN_POINT('Ctrl Pts',(138.948352804901,79.7781050341757,41.4994376522376));
#1679=CARTESIAN_POINT('Ctrl Pts',(139.333964901997,80.1417643314907,41.2705521800406));
#1680=CARTESIAN_POINT('Ctrl Pts',(140.28881033198,79.0025776331514,41.0692467624086));
#1681=CARTESIAN_POINT('Ctrl Pts',(139.131974040692,78.0623000666557,40.9030905313981));
#1682=CARTESIAN_POINT('Ctrl Pts',(137.975137749403,77.1220225001599,40.7369343003876));
#1683=CARTESIAN_POINT('Ctrl Pts',(137.020292319421,78.2612091984992,40.9382397180195));
#1684=CARTESIAN_POINT('Ctrl Pts',(136.065446889438,79.4003958968386,41.1395451356515));
#1685=CARTESIAN_POINT('Ctrl Pts',(137.222283180726,80.3406734633343,41.305701366662));
#1686=CARTESIAN_POINT('Ctrl Pts',(138.379119472014,81.28095102983,41.4718575976725));
#1687=CARTESIAN_POINT('Ctrl Pts',(139.333964901997,80.1417643314907,41.2705521800406));
#1688=CARTESIAN_POINT('Ctrl Pts',(139.333964901997,80.2422312151236,40.7020104149727));
#1689=CARTESIAN_POINT('Ctrl Pts',(140.28881033198,79.1030445167843,40.5007049973408));
#1690=CARTESIAN_POINT('Ctrl Pts',(139.131974040692,78.1627669502885,40.3345487663303));
#1691=CARTESIAN_POINT('Ctrl Pts',(137.975137749403,77.2224893837928,40.1683925353198));
#1692=CARTESIAN_POINT('Ctrl Pts',(137.020292319421,78.3616760821321,40.3696979529517));
#1693=CARTESIAN_POINT('Ctrl Pts',(136.065446889438,79.5008627804715,40.5710033705837));
#1694=CARTESIAN_POINT('Ctrl Pts',(137.222283180726,80.4411403469672,40.7371596015942));
#1695=CARTESIAN_POINT('Ctrl Pts',(138.379119472014,81.3814179134629,40.9033158326047));
#1696=CARTESIAN_POINT('Ctrl Pts',(139.333964901997,80.2422312151236,40.7020104149727));
#1697=CARTESIAN_POINT('',(137.020292319421,78.3616760821321,40.3696979529517));
#1698=CARTESIAN_POINT('',(139.333964901997,80.2422312151236,40.7020104149728));
#1699=CARTESIAN_POINT('Origin',(138.177128610709,79.3019536486279,40.5358541839622));
#1700=CARTESIAN_POINT('',(138.177128610709,79.1512533231786,41.388666831564));
#1701=CARTESIAN_POINT('Origin',(138.562740707805,79.6153795041265,40.5912395942991));
#1702=CARTESIAN_POINT('Origin',(138.177128610709,79.3019536486279,40.5358541839622));
#1703=CARTESIAN_POINT('Origin',(138.177128610709,78.8794864561896,42.9265946407856));
#1704=CARTESIAN_POINT('',(137.020292319421,79.8533601059268,31.9282629532292));
#1705=CARTESIAN_POINT('',(137.020292319421,77.9392088896939,42.7604384097751));
#1706=CARTESIAN_POINT('Origin',(138.177128610709,80.7936376724225,32.0944191842397));
#1707=CARTESIAN_POINT('Origin',(143.199999034405,79.6870966992355,43.0693072597945));
#1708=CARTESIAN_POINT('',(143.199999034405,-12.4417313131657,15.6188187237768));
#1709=CARTESIAN_POINT('Origin',(56.8000009655952,-14.3558825293985,26.4509941803226));
#1710=CARTESIAN_POINT('',(56.8000009655952,81.6012479154683,32.2371318032487));
#1711=CARTESIAN_POINT('Origin',(100.,32.8564558371154,23.6234508842037));
#1712=CARTESIAN_POINT('Origin',(148.199998922646,-19.6002818524926,9.00631933013487));
#1713=UNCERTAINTY_MEASURE_WITH_UNIT(LENGTH_MEASURE(0.01),#1717,
'DISTANCE_ACCURACY_VALUE',
'Maximum model space distance between geometric entities at asserted c
onnectivities');
#1714=UNCERTAINTY_MEASURE_WITH_UNIT(LENGTH_MEASURE(0.01),#1717,
'DISTANCE_ACCURACY_VALUE',
'Maximum model space distance between geometric entities at asserted c
onnectivities');
#1715=(
GEOMETRIC_REPRESENTATION_CONTEXT(3)
GLOBAL_UNCERTAINTY_ASSIGNED_CONTEXT((#1713))
GLOBAL_UNIT_ASSIGNED_CONTEXT((#1717,#1719,#1720))
REPRESENTATION_CONTEXT('','3D')
);
#1716=(
GEOMETRIC_REPRESENTATION_CONTEXT(3)
GLOBAL_UNCERTAINTY_ASSIGNED_CONTEXT((#1714))
GLOBAL_UNIT_ASSIGNED_CONTEXT((#1717,#1719,#1720))
REPRESENTATION_CONTEXT('','3D')
);
#1717=(
LENGTH_UNIT()
NAMED_UNIT(*)
SI_UNIT(.MILLI.,.METRE.)
);
#1718=(
LENGTH_UNIT()
NAMED_UNIT(*)
SI_UNIT($,.METRE.)
);
#1719=(
NAMED_UNIT(*)
PLANE_ANGLE_UNIT()
SI_UNIT($,.RADIAN.)
);
#1720=(
NAMED_UNIT(*)
SI_UNIT($,.STERADIAN.)
SOLID_ANGLE_UNIT()
);
#1721=SHAPE_DEFINITION_REPRESENTATION(#1722,#1723);
#1722=PRODUCT_DEFINITION_SHAPE('',$,#1725);
#1723=SHAPE_REPRESENTATION('',(#965),#1715);
#1724=PRODUCT_DEFINITION_CONTEXT('part definition',#1729,'design');
#1725=PRODUCT_DEFINITION('FusionComponent','FusionComponent',#1726,#1724);
#1726=PRODUCT_DEFINITION_FORMATION('',$,#1731);
#1727=PRODUCT_RELATED_PRODUCT_CATEGORY('FusionComponent',
'FusionComponent',(#1731));
#1728=APPLICATION_PROTOCOL_DEFINITION('international standard',
'automotive_design',2009,#1729);
#1729=APPLICATION_CONTEXT(
'Core Data for Automotive Mechanical Design Process');
#1730=PRODUCT_CONTEXT('part definition',#1729,'mechanical');
#1731=PRODUCT('FusionComponent','FusionComponent',$,(#1730));
#1732=PRESENTATION_STYLE_ASSIGNMENT((#1734));
#1733=PRESENTATION_STYLE_ASSIGNMENT((#1735));
#1734=SURFACE_STYLE_USAGE(.BOTH.,#1736);
#1735=SURFACE_STYLE_USAGE(.BOTH.,#1737);
#1736=SURFACE_SIDE_STYLE('',(#1738));
#1737=SURFACE_SIDE_STYLE('',(#1739));
#1738=SURFACE_STYLE_FILL_AREA(#1740);
#1739=SURFACE_STYLE_FILL_AREA(#1741);
#1740=FILL_AREA_STYLE('Steel - Satin',(#1742));
#1741=FILL_AREA_STYLE('ABS (White)',(#1743));
#1742=FILL_AREA_STYLE_COLOUR('Steel - Satin',#1744);
#1743=FILL_AREA_STYLE_COLOUR('ABS (White)',#1745);
#1744=COLOUR_RGB('Steel - Satin',0.627450980392157,0.627450980392157,0.627450980392157);
#1745=COLOUR_RGB('ABS (White)',0.650980392156863,0.572549019607843,0.474509803921569);
ENDSEC;
END-ISO-10303-21;
