%TF.GenerationSoftware,KiCad,Pcbnew,9.0.7*%
%TF.CreationDate,2026-09-19T19:42:13+12:00*%
%TF.ProjectId,Macropad,4d616372-6f70-4616-942e-6b696361645f,rev?*%
%TF.SameCoordinates,Original*%
%TF.FileFunction,Legend,Top*%
%TF.FilePolarity,Positive*%
%FSLAX46Y46*%
G04 Gerber Fmt 4.6, Leading zero omitted, Abs format (unit mm)*
G04 Created by KiCad (PCBNEW 9.0.7) date 2026-09-19 19:42:13*
%MOMM*%
%LPD*%
G01*
G04 APERTURE LIST*
%ADD10C,0.100000*%
%ADD11C,0.101600*%
%ADD12C,0.150000*%
%ADD13C,0.025400*%
%ADD14C,0.254000*%
%ADD15C,0.120000*%
%ADD16C,0.127000*%
G04 APERTURE END LIST*
D10*
X192357419Y-80809523D02*
X192357419Y-80142857D01*
X192357419Y-80142857D02*
X193357419Y-80571428D01*
X192690752Y-79333333D02*
X193357419Y-79333333D01*
X192309800Y-79571428D02*
X193024085Y-79809523D01*
X193024085Y-79809523D02*
X193024085Y-79190476D01*
X172000000Y-43000000D02*
X194586420Y-43000000D01*
X194586420Y-117000000D02*
X172000000Y-117000000D01*
X194000000Y-43000000D02*
X194000000Y-117000000D01*
X194000000Y-43000000D02*
X194586421Y-44126504D01*
X194000000Y-43000000D02*
X193413579Y-44126504D01*
X194000000Y-117000000D02*
X193413579Y-115873496D01*
X194000000Y-117000000D02*
X194586421Y-115873496D01*
X143797619Y-132857419D02*
X143321429Y-132857419D01*
X143321429Y-132857419D02*
X143273810Y-133333609D01*
X143273810Y-133333609D02*
X143321429Y-133285990D01*
X143321429Y-133285990D02*
X143416667Y-133238371D01*
X143416667Y-133238371D02*
X143654762Y-133238371D01*
X143654762Y-133238371D02*
X143750000Y-133285990D01*
X143750000Y-133285990D02*
X143797619Y-133333609D01*
X143797619Y-133333609D02*
X143845238Y-133428847D01*
X143845238Y-133428847D02*
X143845238Y-133666942D01*
X143845238Y-133666942D02*
X143797619Y-133762180D01*
X143797619Y-133762180D02*
X143750000Y-133809800D01*
X143750000Y-133809800D02*
X143654762Y-133857419D01*
X143654762Y-133857419D02*
X143416667Y-133857419D01*
X143416667Y-133857419D02*
X143321429Y-133809800D01*
X143321429Y-133809800D02*
X143273810Y-133762180D01*
X144178572Y-132857419D02*
X144797619Y-132857419D01*
X144797619Y-132857419D02*
X144464286Y-133238371D01*
X144464286Y-133238371D02*
X144607143Y-133238371D01*
X144607143Y-133238371D02*
X144702381Y-133285990D01*
X144702381Y-133285990D02*
X144750000Y-133333609D01*
X144750000Y-133333609D02*
X144797619Y-133428847D01*
X144797619Y-133428847D02*
X144797619Y-133666942D01*
X144797619Y-133666942D02*
X144750000Y-133762180D01*
X144750000Y-133762180D02*
X144702381Y-133809800D01*
X144702381Y-133809800D02*
X144607143Y-133857419D01*
X144607143Y-133857419D02*
X144321429Y-133857419D01*
X144321429Y-133857419D02*
X144226191Y-133809800D01*
X144226191Y-133809800D02*
X144178572Y-133762180D01*
X145226191Y-133762180D02*
X145273810Y-133809800D01*
X145273810Y-133809800D02*
X145226191Y-133857419D01*
X145226191Y-133857419D02*
X145178572Y-133809800D01*
X145178572Y-133809800D02*
X145226191Y-133762180D01*
X145226191Y-133762180D02*
X145226191Y-133857419D01*
X146178571Y-132857419D02*
X145702381Y-132857419D01*
X145702381Y-132857419D02*
X145654762Y-133333609D01*
X145654762Y-133333609D02*
X145702381Y-133285990D01*
X145702381Y-133285990D02*
X145797619Y-133238371D01*
X145797619Y-133238371D02*
X146035714Y-133238371D01*
X146035714Y-133238371D02*
X146130952Y-133285990D01*
X146130952Y-133285990D02*
X146178571Y-133333609D01*
X146178571Y-133333609D02*
X146226190Y-133428847D01*
X146226190Y-133428847D02*
X146226190Y-133666942D01*
X146226190Y-133666942D02*
X146178571Y-133762180D01*
X146178571Y-133762180D02*
X146130952Y-133809800D01*
X146130952Y-133809800D02*
X146035714Y-133857419D01*
X146035714Y-133857419D02*
X145797619Y-133857419D01*
X145797619Y-133857419D02*
X145702381Y-133809800D01*
X145702381Y-133809800D02*
X145654762Y-133762180D01*
X118000000Y-117500000D02*
X118000000Y-135086420D01*
X171500000Y-135086420D02*
X171500000Y-117500000D01*
X118000000Y-134500000D02*
X171500000Y-134500000D01*
X118000000Y-134500000D02*
X119126504Y-133913579D01*
X118000000Y-134500000D02*
X119126504Y-135086421D01*
X171500000Y-134500000D02*
X170373496Y-135086421D01*
X171500000Y-134500000D02*
X170373496Y-133913579D01*
D11*
X132822666Y-56056985D02*
X132822666Y-56776652D01*
X132822666Y-56776652D02*
X132865000Y-56861318D01*
X132865000Y-56861318D02*
X132907333Y-56903652D01*
X132907333Y-56903652D02*
X132992000Y-56945985D01*
X132992000Y-56945985D02*
X133161333Y-56945985D01*
X133161333Y-56945985D02*
X133246000Y-56903652D01*
X133246000Y-56903652D02*
X133288333Y-56861318D01*
X133288333Y-56861318D02*
X133330666Y-56776652D01*
X133330666Y-56776652D02*
X133330666Y-56056985D01*
X134219666Y-56945985D02*
X133711666Y-56945985D01*
X133965666Y-56945985D02*
X133965666Y-56056985D01*
X133965666Y-56056985D02*
X133880999Y-56183985D01*
X133880999Y-56183985D02*
X133796333Y-56268652D01*
X133796333Y-56268652D02*
X133711666Y-56310985D01*
D12*
X128738095Y-52907200D02*
X128880952Y-52954819D01*
X128880952Y-52954819D02*
X129119047Y-52954819D01*
X129119047Y-52954819D02*
X129214285Y-52907200D01*
X129214285Y-52907200D02*
X129261904Y-52859580D01*
X129261904Y-52859580D02*
X129309523Y-52764342D01*
X129309523Y-52764342D02*
X129309523Y-52669104D01*
X129309523Y-52669104D02*
X129261904Y-52573866D01*
X129261904Y-52573866D02*
X129214285Y-52526247D01*
X129214285Y-52526247D02*
X129119047Y-52478628D01*
X129119047Y-52478628D02*
X128928571Y-52431009D01*
X128928571Y-52431009D02*
X128833333Y-52383390D01*
X128833333Y-52383390D02*
X128785714Y-52335771D01*
X128785714Y-52335771D02*
X128738095Y-52240533D01*
X128738095Y-52240533D02*
X128738095Y-52145295D01*
X128738095Y-52145295D02*
X128785714Y-52050057D01*
X128785714Y-52050057D02*
X128833333Y-52002438D01*
X128833333Y-52002438D02*
X128928571Y-51954819D01*
X128928571Y-51954819D02*
X129166666Y-51954819D01*
X129166666Y-51954819D02*
X129309523Y-52002438D01*
X130119047Y-52907200D02*
X130023809Y-52954819D01*
X130023809Y-52954819D02*
X129833333Y-52954819D01*
X129833333Y-52954819D02*
X129738095Y-52907200D01*
X129738095Y-52907200D02*
X129690476Y-52811961D01*
X129690476Y-52811961D02*
X129690476Y-52431009D01*
X129690476Y-52431009D02*
X129738095Y-52335771D01*
X129738095Y-52335771D02*
X129833333Y-52288152D01*
X129833333Y-52288152D02*
X130023809Y-52288152D01*
X130023809Y-52288152D02*
X130119047Y-52335771D01*
X130119047Y-52335771D02*
X130166666Y-52431009D01*
X130166666Y-52431009D02*
X130166666Y-52526247D01*
X130166666Y-52526247D02*
X129690476Y-52621485D01*
X130976190Y-52907200D02*
X130880952Y-52954819D01*
X130880952Y-52954819D02*
X130690476Y-52954819D01*
X130690476Y-52954819D02*
X130595238Y-52907200D01*
X130595238Y-52907200D02*
X130547619Y-52811961D01*
X130547619Y-52811961D02*
X130547619Y-52431009D01*
X130547619Y-52431009D02*
X130595238Y-52335771D01*
X130595238Y-52335771D02*
X130690476Y-52288152D01*
X130690476Y-52288152D02*
X130880952Y-52288152D01*
X130880952Y-52288152D02*
X130976190Y-52335771D01*
X130976190Y-52335771D02*
X131023809Y-52431009D01*
X131023809Y-52431009D02*
X131023809Y-52526247D01*
X131023809Y-52526247D02*
X130547619Y-52621485D01*
X131833333Y-52907200D02*
X131738095Y-52954819D01*
X131738095Y-52954819D02*
X131547619Y-52954819D01*
X131547619Y-52954819D02*
X131452381Y-52907200D01*
X131452381Y-52907200D02*
X131404762Y-52811961D01*
X131404762Y-52811961D02*
X131404762Y-52431009D01*
X131404762Y-52431009D02*
X131452381Y-52335771D01*
X131452381Y-52335771D02*
X131547619Y-52288152D01*
X131547619Y-52288152D02*
X131738095Y-52288152D01*
X131738095Y-52288152D02*
X131833333Y-52335771D01*
X131833333Y-52335771D02*
X131880952Y-52431009D01*
X131880952Y-52431009D02*
X131880952Y-52526247D01*
X131880952Y-52526247D02*
X131404762Y-52621485D01*
X132738095Y-52954819D02*
X132738095Y-51954819D01*
X132738095Y-52907200D02*
X132642857Y-52954819D01*
X132642857Y-52954819D02*
X132452381Y-52954819D01*
X132452381Y-52954819D02*
X132357143Y-52907200D01*
X132357143Y-52907200D02*
X132309524Y-52859580D01*
X132309524Y-52859580D02*
X132261905Y-52764342D01*
X132261905Y-52764342D02*
X132261905Y-52478628D01*
X132261905Y-52478628D02*
X132309524Y-52383390D01*
X132309524Y-52383390D02*
X132357143Y-52335771D01*
X132357143Y-52335771D02*
X132452381Y-52288152D01*
X132452381Y-52288152D02*
X132642857Y-52288152D01*
X132642857Y-52288152D02*
X132738095Y-52335771D01*
X133928572Y-52907200D02*
X134071429Y-52954819D01*
X134071429Y-52954819D02*
X134309524Y-52954819D01*
X134309524Y-52954819D02*
X134404762Y-52907200D01*
X134404762Y-52907200D02*
X134452381Y-52859580D01*
X134452381Y-52859580D02*
X134500000Y-52764342D01*
X134500000Y-52764342D02*
X134500000Y-52669104D01*
X134500000Y-52669104D02*
X134452381Y-52573866D01*
X134452381Y-52573866D02*
X134404762Y-52526247D01*
X134404762Y-52526247D02*
X134309524Y-52478628D01*
X134309524Y-52478628D02*
X134119048Y-52431009D01*
X134119048Y-52431009D02*
X134023810Y-52383390D01*
X134023810Y-52383390D02*
X133976191Y-52335771D01*
X133976191Y-52335771D02*
X133928572Y-52240533D01*
X133928572Y-52240533D02*
X133928572Y-52145295D01*
X133928572Y-52145295D02*
X133976191Y-52050057D01*
X133976191Y-52050057D02*
X134023810Y-52002438D01*
X134023810Y-52002438D02*
X134119048Y-51954819D01*
X134119048Y-51954819D02*
X134357143Y-51954819D01*
X134357143Y-51954819D02*
X134500000Y-52002438D01*
X134785715Y-52288152D02*
X135166667Y-52288152D01*
X134928572Y-51954819D02*
X134928572Y-52811961D01*
X134928572Y-52811961D02*
X134976191Y-52907200D01*
X134976191Y-52907200D02*
X135071429Y-52954819D01*
X135071429Y-52954819D02*
X135166667Y-52954819D01*
X135928572Y-52288152D02*
X135928572Y-52954819D01*
X135500001Y-52288152D02*
X135500001Y-52811961D01*
X135500001Y-52811961D02*
X135547620Y-52907200D01*
X135547620Y-52907200D02*
X135642858Y-52954819D01*
X135642858Y-52954819D02*
X135785715Y-52954819D01*
X135785715Y-52954819D02*
X135880953Y-52907200D01*
X135880953Y-52907200D02*
X135928572Y-52859580D01*
X136833334Y-52954819D02*
X136833334Y-51954819D01*
X136833334Y-52907200D02*
X136738096Y-52954819D01*
X136738096Y-52954819D02*
X136547620Y-52954819D01*
X136547620Y-52954819D02*
X136452382Y-52907200D01*
X136452382Y-52907200D02*
X136404763Y-52859580D01*
X136404763Y-52859580D02*
X136357144Y-52764342D01*
X136357144Y-52764342D02*
X136357144Y-52478628D01*
X136357144Y-52478628D02*
X136404763Y-52383390D01*
X136404763Y-52383390D02*
X136452382Y-52335771D01*
X136452382Y-52335771D02*
X136547620Y-52288152D01*
X136547620Y-52288152D02*
X136738096Y-52288152D01*
X136738096Y-52288152D02*
X136833334Y-52335771D01*
X137309525Y-52954819D02*
X137309525Y-52288152D01*
X137309525Y-51954819D02*
X137261906Y-52002438D01*
X137261906Y-52002438D02*
X137309525Y-52050057D01*
X137309525Y-52050057D02*
X137357144Y-52002438D01*
X137357144Y-52002438D02*
X137309525Y-51954819D01*
X137309525Y-51954819D02*
X137309525Y-52050057D01*
X137928572Y-52954819D02*
X137833334Y-52907200D01*
X137833334Y-52907200D02*
X137785715Y-52859580D01*
X137785715Y-52859580D02*
X137738096Y-52764342D01*
X137738096Y-52764342D02*
X137738096Y-52478628D01*
X137738096Y-52478628D02*
X137785715Y-52383390D01*
X137785715Y-52383390D02*
X137833334Y-52335771D01*
X137833334Y-52335771D02*
X137928572Y-52288152D01*
X137928572Y-52288152D02*
X138071429Y-52288152D01*
X138071429Y-52288152D02*
X138166667Y-52335771D01*
X138166667Y-52335771D02*
X138214286Y-52383390D01*
X138214286Y-52383390D02*
X138261905Y-52478628D01*
X138261905Y-52478628D02*
X138261905Y-52764342D01*
X138261905Y-52764342D02*
X138214286Y-52859580D01*
X138214286Y-52859580D02*
X138166667Y-52907200D01*
X138166667Y-52907200D02*
X138071429Y-52954819D01*
X138071429Y-52954819D02*
X137928572Y-52954819D01*
X131976191Y-53954819D02*
X132642857Y-54954819D01*
X132642857Y-53954819D02*
X131976191Y-54954819D01*
X133023810Y-54954819D02*
X133023810Y-53954819D01*
X133452381Y-54669104D02*
X133928571Y-54669104D01*
X133357143Y-54954819D02*
X133690476Y-53954819D01*
X133690476Y-53954819D02*
X134023809Y-54954819D01*
X134547619Y-53954819D02*
X134738095Y-53954819D01*
X134738095Y-53954819D02*
X134833333Y-54002438D01*
X134833333Y-54002438D02*
X134928571Y-54097676D01*
X134928571Y-54097676D02*
X134976190Y-54288152D01*
X134976190Y-54288152D02*
X134976190Y-54621485D01*
X134976190Y-54621485D02*
X134928571Y-54811961D01*
X134928571Y-54811961D02*
X134833333Y-54907200D01*
X134833333Y-54907200D02*
X134738095Y-54954819D01*
X134738095Y-54954819D02*
X134547619Y-54954819D01*
X134547619Y-54954819D02*
X134452381Y-54907200D01*
X134452381Y-54907200D02*
X134357143Y-54811961D01*
X134357143Y-54811961D02*
X134309524Y-54621485D01*
X134309524Y-54621485D02*
X134309524Y-54288152D01*
X134309524Y-54288152D02*
X134357143Y-54097676D01*
X134357143Y-54097676D02*
X134452381Y-54002438D01*
X134452381Y-54002438D02*
X134547619Y-53954819D01*
X128761905Y-82074819D02*
X128761905Y-81074819D01*
X128761905Y-81074819D02*
X129000000Y-81074819D01*
X129000000Y-81074819D02*
X129142857Y-81122438D01*
X129142857Y-81122438D02*
X129238095Y-81217676D01*
X129238095Y-81217676D02*
X129285714Y-81312914D01*
X129285714Y-81312914D02*
X129333333Y-81503390D01*
X129333333Y-81503390D02*
X129333333Y-81646247D01*
X129333333Y-81646247D02*
X129285714Y-81836723D01*
X129285714Y-81836723D02*
X129238095Y-81931961D01*
X129238095Y-81931961D02*
X129142857Y-82027200D01*
X129142857Y-82027200D02*
X129000000Y-82074819D01*
X129000000Y-82074819D02*
X128761905Y-82074819D01*
X129666667Y-81074819D02*
X130333333Y-81074819D01*
X130333333Y-81074819D02*
X129904762Y-82074819D01*
X133048095Y-81754819D02*
X133048095Y-80754819D01*
X133619523Y-81754819D02*
X133190952Y-81183390D01*
X133619523Y-80754819D02*
X133048095Y-81326247D01*
X128000476Y-97073200D02*
X128143333Y-97120819D01*
X128143333Y-97120819D02*
X128381428Y-97120819D01*
X128381428Y-97120819D02*
X128476666Y-97073200D01*
X128476666Y-97073200D02*
X128524285Y-97025580D01*
X128524285Y-97025580D02*
X128571904Y-96930342D01*
X128571904Y-96930342D02*
X128571904Y-96835104D01*
X128571904Y-96835104D02*
X128524285Y-96739866D01*
X128524285Y-96739866D02*
X128476666Y-96692247D01*
X128476666Y-96692247D02*
X128381428Y-96644628D01*
X128381428Y-96644628D02*
X128190952Y-96597009D01*
X128190952Y-96597009D02*
X128095714Y-96549390D01*
X128095714Y-96549390D02*
X128048095Y-96501771D01*
X128048095Y-96501771D02*
X128000476Y-96406533D01*
X128000476Y-96406533D02*
X128000476Y-96311295D01*
X128000476Y-96311295D02*
X128048095Y-96216057D01*
X128048095Y-96216057D02*
X128095714Y-96168438D01*
X128095714Y-96168438D02*
X128190952Y-96120819D01*
X128190952Y-96120819D02*
X128429047Y-96120819D01*
X128429047Y-96120819D02*
X128571904Y-96168438D01*
X128905238Y-96120819D02*
X129143333Y-97120819D01*
X129143333Y-97120819D02*
X129333809Y-96406533D01*
X129333809Y-96406533D02*
X129524285Y-97120819D01*
X129524285Y-97120819D02*
X129762381Y-96120819D01*
X130667142Y-97120819D02*
X130095714Y-97120819D01*
X130381428Y-97120819D02*
X130381428Y-96120819D01*
X130381428Y-96120819D02*
X130286190Y-96263676D01*
X130286190Y-96263676D02*
X130190952Y-96358914D01*
X130190952Y-96358914D02*
X130095714Y-96406533D01*
X131619523Y-97120819D02*
X131048095Y-97120819D01*
X131333809Y-97120819D02*
X131333809Y-96120819D01*
X131333809Y-96120819D02*
X131238571Y-96263676D01*
X131238571Y-96263676D02*
X131143333Y-96358914D01*
X131143333Y-96358914D02*
X131048095Y-96406533D01*
X158626667Y-97073200D02*
X158769524Y-97120819D01*
X158769524Y-97120819D02*
X159007619Y-97120819D01*
X159007619Y-97120819D02*
X159102857Y-97073200D01*
X159102857Y-97073200D02*
X159150476Y-97025580D01*
X159150476Y-97025580D02*
X159198095Y-96930342D01*
X159198095Y-96930342D02*
X159198095Y-96835104D01*
X159198095Y-96835104D02*
X159150476Y-96739866D01*
X159150476Y-96739866D02*
X159102857Y-96692247D01*
X159102857Y-96692247D02*
X159007619Y-96644628D01*
X159007619Y-96644628D02*
X158817143Y-96597009D01*
X158817143Y-96597009D02*
X158721905Y-96549390D01*
X158721905Y-96549390D02*
X158674286Y-96501771D01*
X158674286Y-96501771D02*
X158626667Y-96406533D01*
X158626667Y-96406533D02*
X158626667Y-96311295D01*
X158626667Y-96311295D02*
X158674286Y-96216057D01*
X158674286Y-96216057D02*
X158721905Y-96168438D01*
X158721905Y-96168438D02*
X158817143Y-96120819D01*
X158817143Y-96120819D02*
X159055238Y-96120819D01*
X159055238Y-96120819D02*
X159198095Y-96168438D01*
X159531429Y-96120819D02*
X159769524Y-97120819D01*
X159769524Y-97120819D02*
X159960000Y-96406533D01*
X159960000Y-96406533D02*
X160150476Y-97120819D01*
X160150476Y-97120819D02*
X160388572Y-96120819D01*
X161198095Y-96120819D02*
X161007619Y-96120819D01*
X161007619Y-96120819D02*
X160912381Y-96168438D01*
X160912381Y-96168438D02*
X160864762Y-96216057D01*
X160864762Y-96216057D02*
X160769524Y-96358914D01*
X160769524Y-96358914D02*
X160721905Y-96549390D01*
X160721905Y-96549390D02*
X160721905Y-96930342D01*
X160721905Y-96930342D02*
X160769524Y-97025580D01*
X160769524Y-97025580D02*
X160817143Y-97073200D01*
X160817143Y-97073200D02*
X160912381Y-97120819D01*
X160912381Y-97120819D02*
X161102857Y-97120819D01*
X161102857Y-97120819D02*
X161198095Y-97073200D01*
X161198095Y-97073200D02*
X161245714Y-97025580D01*
X161245714Y-97025580D02*
X161293333Y-96930342D01*
X161293333Y-96930342D02*
X161293333Y-96692247D01*
X161293333Y-96692247D02*
X161245714Y-96597009D01*
X161245714Y-96597009D02*
X161198095Y-96549390D01*
X161198095Y-96549390D02*
X161102857Y-96501771D01*
X161102857Y-96501771D02*
X160912381Y-96501771D01*
X160912381Y-96501771D02*
X160817143Y-96549390D01*
X160817143Y-96549390D02*
X160769524Y-96597009D01*
X160769524Y-96597009D02*
X160721905Y-96692247D01*
X144261905Y-115574819D02*
X144261905Y-114574819D01*
X144261905Y-114574819D02*
X144500000Y-114574819D01*
X144500000Y-114574819D02*
X144642857Y-114622438D01*
X144642857Y-114622438D02*
X144738095Y-114717676D01*
X144738095Y-114717676D02*
X144785714Y-114812914D01*
X144785714Y-114812914D02*
X144833333Y-115003390D01*
X144833333Y-115003390D02*
X144833333Y-115146247D01*
X144833333Y-115146247D02*
X144785714Y-115336723D01*
X144785714Y-115336723D02*
X144738095Y-115431961D01*
X144738095Y-115431961D02*
X144642857Y-115527200D01*
X144642857Y-115527200D02*
X144500000Y-115574819D01*
X144500000Y-115574819D02*
X144261905Y-115574819D01*
X145738095Y-114574819D02*
X145261905Y-114574819D01*
X145261905Y-114574819D02*
X145214286Y-115051009D01*
X145214286Y-115051009D02*
X145261905Y-115003390D01*
X145261905Y-115003390D02*
X145357143Y-114955771D01*
X145357143Y-114955771D02*
X145595238Y-114955771D01*
X145595238Y-114955771D02*
X145690476Y-115003390D01*
X145690476Y-115003390D02*
X145738095Y-115051009D01*
X145738095Y-115051009D02*
X145785714Y-115146247D01*
X145785714Y-115146247D02*
X145785714Y-115384342D01*
X145785714Y-115384342D02*
X145738095Y-115479580D01*
X145738095Y-115479580D02*
X145690476Y-115527200D01*
X145690476Y-115527200D02*
X145595238Y-115574819D01*
X145595238Y-115574819D02*
X145357143Y-115574819D01*
X145357143Y-115574819D02*
X145261905Y-115527200D01*
X145261905Y-115527200D02*
X145214286Y-115479580D01*
X148548095Y-115254819D02*
X148548095Y-114254819D01*
X149119523Y-115254819D02*
X148690952Y-114683390D01*
X149119523Y-114254819D02*
X148548095Y-114826247D01*
X158785714Y-115574819D02*
X158785714Y-114574819D01*
X158785714Y-114574819D02*
X159023809Y-114574819D01*
X159023809Y-114574819D02*
X159166666Y-114622438D01*
X159166666Y-114622438D02*
X159261904Y-114717676D01*
X159261904Y-114717676D02*
X159309523Y-114812914D01*
X159309523Y-114812914D02*
X159357142Y-115003390D01*
X159357142Y-115003390D02*
X159357142Y-115146247D01*
X159357142Y-115146247D02*
X159309523Y-115336723D01*
X159309523Y-115336723D02*
X159261904Y-115431961D01*
X159261904Y-115431961D02*
X159166666Y-115527200D01*
X159166666Y-115527200D02*
X159023809Y-115574819D01*
X159023809Y-115574819D02*
X158785714Y-115574819D01*
X160309523Y-115574819D02*
X159738095Y-115574819D01*
X160023809Y-115574819D02*
X160023809Y-114574819D01*
X160023809Y-114574819D02*
X159928571Y-114717676D01*
X159928571Y-114717676D02*
X159833333Y-114812914D01*
X159833333Y-114812914D02*
X159738095Y-114860533D01*
X160928571Y-114574819D02*
X161023809Y-114574819D01*
X161023809Y-114574819D02*
X161119047Y-114622438D01*
X161119047Y-114622438D02*
X161166666Y-114670057D01*
X161166666Y-114670057D02*
X161214285Y-114765295D01*
X161214285Y-114765295D02*
X161261904Y-114955771D01*
X161261904Y-114955771D02*
X161261904Y-115193866D01*
X161261904Y-115193866D02*
X161214285Y-115384342D01*
X161214285Y-115384342D02*
X161166666Y-115479580D01*
X161166666Y-115479580D02*
X161119047Y-115527200D01*
X161119047Y-115527200D02*
X161023809Y-115574819D01*
X161023809Y-115574819D02*
X160928571Y-115574819D01*
X160928571Y-115574819D02*
X160833333Y-115527200D01*
X160833333Y-115527200D02*
X160785714Y-115479580D01*
X160785714Y-115479580D02*
X160738095Y-115384342D01*
X160738095Y-115384342D02*
X160690476Y-115193866D01*
X160690476Y-115193866D02*
X160690476Y-114955771D01*
X160690476Y-114955771D02*
X160738095Y-114765295D01*
X160738095Y-114765295D02*
X160785714Y-114670057D01*
X160785714Y-114670057D02*
X160833333Y-114622438D01*
X160833333Y-114622438D02*
X160928571Y-114574819D01*
X163548095Y-115254819D02*
X163548095Y-114254819D01*
X164119523Y-115254819D02*
X163690952Y-114683390D01*
X164119523Y-114254819D02*
X163548095Y-114826247D01*
X128951905Y-115574819D02*
X128951905Y-114574819D01*
X128951905Y-114574819D02*
X129190000Y-114574819D01*
X129190000Y-114574819D02*
X129332857Y-114622438D01*
X129332857Y-114622438D02*
X129428095Y-114717676D01*
X129428095Y-114717676D02*
X129475714Y-114812914D01*
X129475714Y-114812914D02*
X129523333Y-115003390D01*
X129523333Y-115003390D02*
X129523333Y-115146247D01*
X129523333Y-115146247D02*
X129475714Y-115336723D01*
X129475714Y-115336723D02*
X129428095Y-115431961D01*
X129428095Y-115431961D02*
X129332857Y-115527200D01*
X129332857Y-115527200D02*
X129190000Y-115574819D01*
X129190000Y-115574819D02*
X128951905Y-115574819D01*
X130380476Y-114574819D02*
X130190000Y-114574819D01*
X130190000Y-114574819D02*
X130094762Y-114622438D01*
X130094762Y-114622438D02*
X130047143Y-114670057D01*
X130047143Y-114670057D02*
X129951905Y-114812914D01*
X129951905Y-114812914D02*
X129904286Y-115003390D01*
X129904286Y-115003390D02*
X129904286Y-115384342D01*
X129904286Y-115384342D02*
X129951905Y-115479580D01*
X129951905Y-115479580D02*
X129999524Y-115527200D01*
X129999524Y-115527200D02*
X130094762Y-115574819D01*
X130094762Y-115574819D02*
X130285238Y-115574819D01*
X130285238Y-115574819D02*
X130380476Y-115527200D01*
X130380476Y-115527200D02*
X130428095Y-115479580D01*
X130428095Y-115479580D02*
X130475714Y-115384342D01*
X130475714Y-115384342D02*
X130475714Y-115146247D01*
X130475714Y-115146247D02*
X130428095Y-115051009D01*
X130428095Y-115051009D02*
X130380476Y-115003390D01*
X130380476Y-115003390D02*
X130285238Y-114955771D01*
X130285238Y-114955771D02*
X130094762Y-114955771D01*
X130094762Y-114955771D02*
X129999524Y-115003390D01*
X129999524Y-115003390D02*
X129951905Y-115051009D01*
X129951905Y-115051009D02*
X129904286Y-115146247D01*
X133238095Y-115254819D02*
X133238095Y-114254819D01*
X133809523Y-115254819D02*
X133380952Y-114683390D01*
X133809523Y-114254819D02*
X133238095Y-114826247D01*
X158586667Y-80033200D02*
X158729524Y-80080819D01*
X158729524Y-80080819D02*
X158967619Y-80080819D01*
X158967619Y-80080819D02*
X159062857Y-80033200D01*
X159062857Y-80033200D02*
X159110476Y-79985580D01*
X159110476Y-79985580D02*
X159158095Y-79890342D01*
X159158095Y-79890342D02*
X159158095Y-79795104D01*
X159158095Y-79795104D02*
X159110476Y-79699866D01*
X159110476Y-79699866D02*
X159062857Y-79652247D01*
X159062857Y-79652247D02*
X158967619Y-79604628D01*
X158967619Y-79604628D02*
X158777143Y-79557009D01*
X158777143Y-79557009D02*
X158681905Y-79509390D01*
X158681905Y-79509390D02*
X158634286Y-79461771D01*
X158634286Y-79461771D02*
X158586667Y-79366533D01*
X158586667Y-79366533D02*
X158586667Y-79271295D01*
X158586667Y-79271295D02*
X158634286Y-79176057D01*
X158634286Y-79176057D02*
X158681905Y-79128438D01*
X158681905Y-79128438D02*
X158777143Y-79080819D01*
X158777143Y-79080819D02*
X159015238Y-79080819D01*
X159015238Y-79080819D02*
X159158095Y-79128438D01*
X159491429Y-79080819D02*
X159729524Y-80080819D01*
X159729524Y-80080819D02*
X159920000Y-79366533D01*
X159920000Y-79366533D02*
X160110476Y-80080819D01*
X160110476Y-80080819D02*
X160348572Y-79080819D01*
X160872381Y-79509390D02*
X160777143Y-79461771D01*
X160777143Y-79461771D02*
X160729524Y-79414152D01*
X160729524Y-79414152D02*
X160681905Y-79318914D01*
X160681905Y-79318914D02*
X160681905Y-79271295D01*
X160681905Y-79271295D02*
X160729524Y-79176057D01*
X160729524Y-79176057D02*
X160777143Y-79128438D01*
X160777143Y-79128438D02*
X160872381Y-79080819D01*
X160872381Y-79080819D02*
X161062857Y-79080819D01*
X161062857Y-79080819D02*
X161158095Y-79128438D01*
X161158095Y-79128438D02*
X161205714Y-79176057D01*
X161205714Y-79176057D02*
X161253333Y-79271295D01*
X161253333Y-79271295D02*
X161253333Y-79318914D01*
X161253333Y-79318914D02*
X161205714Y-79414152D01*
X161205714Y-79414152D02*
X161158095Y-79461771D01*
X161158095Y-79461771D02*
X161062857Y-79509390D01*
X161062857Y-79509390D02*
X160872381Y-79509390D01*
X160872381Y-79509390D02*
X160777143Y-79557009D01*
X160777143Y-79557009D02*
X160729524Y-79604628D01*
X160729524Y-79604628D02*
X160681905Y-79699866D01*
X160681905Y-79699866D02*
X160681905Y-79890342D01*
X160681905Y-79890342D02*
X160729524Y-79985580D01*
X160729524Y-79985580D02*
X160777143Y-80033200D01*
X160777143Y-80033200D02*
X160872381Y-80080819D01*
X160872381Y-80080819D02*
X161062857Y-80080819D01*
X161062857Y-80080819D02*
X161158095Y-80033200D01*
X161158095Y-80033200D02*
X161205714Y-79985580D01*
X161205714Y-79985580D02*
X161253333Y-79890342D01*
X161253333Y-79890342D02*
X161253333Y-79699866D01*
X161253333Y-79699866D02*
X161205714Y-79604628D01*
X161205714Y-79604628D02*
X161158095Y-79557009D01*
X161158095Y-79557009D02*
X161062857Y-79509390D01*
X128356167Y-80033200D02*
X128499024Y-80080819D01*
X128499024Y-80080819D02*
X128737119Y-80080819D01*
X128737119Y-80080819D02*
X128832357Y-80033200D01*
X128832357Y-80033200D02*
X128879976Y-79985580D01*
X128879976Y-79985580D02*
X128927595Y-79890342D01*
X128927595Y-79890342D02*
X128927595Y-79795104D01*
X128927595Y-79795104D02*
X128879976Y-79699866D01*
X128879976Y-79699866D02*
X128832357Y-79652247D01*
X128832357Y-79652247D02*
X128737119Y-79604628D01*
X128737119Y-79604628D02*
X128546643Y-79557009D01*
X128546643Y-79557009D02*
X128451405Y-79509390D01*
X128451405Y-79509390D02*
X128403786Y-79461771D01*
X128403786Y-79461771D02*
X128356167Y-79366533D01*
X128356167Y-79366533D02*
X128356167Y-79271295D01*
X128356167Y-79271295D02*
X128403786Y-79176057D01*
X128403786Y-79176057D02*
X128451405Y-79128438D01*
X128451405Y-79128438D02*
X128546643Y-79080819D01*
X128546643Y-79080819D02*
X128784738Y-79080819D01*
X128784738Y-79080819D02*
X128927595Y-79128438D01*
X129260929Y-79080819D02*
X129499024Y-80080819D01*
X129499024Y-80080819D02*
X129689500Y-79366533D01*
X129689500Y-79366533D02*
X129879976Y-80080819D01*
X129879976Y-80080819D02*
X130118072Y-79080819D01*
X130451405Y-79176057D02*
X130499024Y-79128438D01*
X130499024Y-79128438D02*
X130594262Y-79080819D01*
X130594262Y-79080819D02*
X130832357Y-79080819D01*
X130832357Y-79080819D02*
X130927595Y-79128438D01*
X130927595Y-79128438D02*
X130975214Y-79176057D01*
X130975214Y-79176057D02*
X131022833Y-79271295D01*
X131022833Y-79271295D02*
X131022833Y-79366533D01*
X131022833Y-79366533D02*
X130975214Y-79509390D01*
X130975214Y-79509390D02*
X130403786Y-80080819D01*
X130403786Y-80080819D02*
X131022833Y-80080819D01*
X158536167Y-63495215D02*
X158679024Y-63542834D01*
X158679024Y-63542834D02*
X158917119Y-63542834D01*
X158917119Y-63542834D02*
X159012357Y-63495215D01*
X159012357Y-63495215D02*
X159059976Y-63447595D01*
X159059976Y-63447595D02*
X159107595Y-63352357D01*
X159107595Y-63352357D02*
X159107595Y-63257119D01*
X159107595Y-63257119D02*
X159059976Y-63161881D01*
X159059976Y-63161881D02*
X159012357Y-63114262D01*
X159012357Y-63114262D02*
X158917119Y-63066643D01*
X158917119Y-63066643D02*
X158726643Y-63019024D01*
X158726643Y-63019024D02*
X158631405Y-62971405D01*
X158631405Y-62971405D02*
X158583786Y-62923786D01*
X158583786Y-62923786D02*
X158536167Y-62828548D01*
X158536167Y-62828548D02*
X158536167Y-62733310D01*
X158536167Y-62733310D02*
X158583786Y-62638072D01*
X158583786Y-62638072D02*
X158631405Y-62590453D01*
X158631405Y-62590453D02*
X158726643Y-62542834D01*
X158726643Y-62542834D02*
X158964738Y-62542834D01*
X158964738Y-62542834D02*
X159107595Y-62590453D01*
X159440929Y-62542834D02*
X159679024Y-63542834D01*
X159679024Y-63542834D02*
X159869500Y-62828548D01*
X159869500Y-62828548D02*
X160059976Y-63542834D01*
X160059976Y-63542834D02*
X160298072Y-62542834D01*
X160583786Y-62542834D02*
X161250452Y-62542834D01*
X161250452Y-62542834D02*
X160821881Y-63542834D01*
X128356167Y-63495215D02*
X128499024Y-63542834D01*
X128499024Y-63542834D02*
X128737119Y-63542834D01*
X128737119Y-63542834D02*
X128832357Y-63495215D01*
X128832357Y-63495215D02*
X128879976Y-63447595D01*
X128879976Y-63447595D02*
X128927595Y-63352357D01*
X128927595Y-63352357D02*
X128927595Y-63257119D01*
X128927595Y-63257119D02*
X128879976Y-63161881D01*
X128879976Y-63161881D02*
X128832357Y-63114262D01*
X128832357Y-63114262D02*
X128737119Y-63066643D01*
X128737119Y-63066643D02*
X128546643Y-63019024D01*
X128546643Y-63019024D02*
X128451405Y-62971405D01*
X128451405Y-62971405D02*
X128403786Y-62923786D01*
X128403786Y-62923786D02*
X128356167Y-62828548D01*
X128356167Y-62828548D02*
X128356167Y-62733310D01*
X128356167Y-62733310D02*
X128403786Y-62638072D01*
X128403786Y-62638072D02*
X128451405Y-62590453D01*
X128451405Y-62590453D02*
X128546643Y-62542834D01*
X128546643Y-62542834D02*
X128784738Y-62542834D01*
X128784738Y-62542834D02*
X128927595Y-62590453D01*
X129260929Y-62542834D02*
X129499024Y-63542834D01*
X129499024Y-63542834D02*
X129689500Y-62828548D01*
X129689500Y-62828548D02*
X129879976Y-63542834D01*
X129879976Y-63542834D02*
X130118072Y-62542834D01*
X131022833Y-63542834D02*
X130451405Y-63542834D01*
X130737119Y-63542834D02*
X130737119Y-62542834D01*
X130737119Y-62542834D02*
X130641881Y-62685691D01*
X130641881Y-62685691D02*
X130546643Y-62780929D01*
X130546643Y-62780929D02*
X130451405Y-62828548D01*
X128761905Y-99074819D02*
X128761905Y-98074819D01*
X128761905Y-98074819D02*
X129000000Y-98074819D01*
X129000000Y-98074819D02*
X129142857Y-98122438D01*
X129142857Y-98122438D02*
X129238095Y-98217676D01*
X129238095Y-98217676D02*
X129285714Y-98312914D01*
X129285714Y-98312914D02*
X129333333Y-98503390D01*
X129333333Y-98503390D02*
X129333333Y-98646247D01*
X129333333Y-98646247D02*
X129285714Y-98836723D01*
X129285714Y-98836723D02*
X129238095Y-98931961D01*
X129238095Y-98931961D02*
X129142857Y-99027200D01*
X129142857Y-99027200D02*
X129000000Y-99074819D01*
X129000000Y-99074819D02*
X128761905Y-99074819D01*
X129904762Y-98503390D02*
X129809524Y-98455771D01*
X129809524Y-98455771D02*
X129761905Y-98408152D01*
X129761905Y-98408152D02*
X129714286Y-98312914D01*
X129714286Y-98312914D02*
X129714286Y-98265295D01*
X129714286Y-98265295D02*
X129761905Y-98170057D01*
X129761905Y-98170057D02*
X129809524Y-98122438D01*
X129809524Y-98122438D02*
X129904762Y-98074819D01*
X129904762Y-98074819D02*
X130095238Y-98074819D01*
X130095238Y-98074819D02*
X130190476Y-98122438D01*
X130190476Y-98122438D02*
X130238095Y-98170057D01*
X130238095Y-98170057D02*
X130285714Y-98265295D01*
X130285714Y-98265295D02*
X130285714Y-98312914D01*
X130285714Y-98312914D02*
X130238095Y-98408152D01*
X130238095Y-98408152D02*
X130190476Y-98455771D01*
X130190476Y-98455771D02*
X130095238Y-98503390D01*
X130095238Y-98503390D02*
X129904762Y-98503390D01*
X129904762Y-98503390D02*
X129809524Y-98551009D01*
X129809524Y-98551009D02*
X129761905Y-98598628D01*
X129761905Y-98598628D02*
X129714286Y-98693866D01*
X129714286Y-98693866D02*
X129714286Y-98884342D01*
X129714286Y-98884342D02*
X129761905Y-98979580D01*
X129761905Y-98979580D02*
X129809524Y-99027200D01*
X129809524Y-99027200D02*
X129904762Y-99074819D01*
X129904762Y-99074819D02*
X130095238Y-99074819D01*
X130095238Y-99074819D02*
X130190476Y-99027200D01*
X130190476Y-99027200D02*
X130238095Y-98979580D01*
X130238095Y-98979580D02*
X130285714Y-98884342D01*
X130285714Y-98884342D02*
X130285714Y-98693866D01*
X130285714Y-98693866D02*
X130238095Y-98598628D01*
X130238095Y-98598628D02*
X130190476Y-98551009D01*
X130190476Y-98551009D02*
X130095238Y-98503390D01*
X133048095Y-98754819D02*
X133048095Y-97754819D01*
X133619523Y-98754819D02*
X133190952Y-98183390D01*
X133619523Y-97754819D02*
X133048095Y-98326247D01*
X144261905Y-99074819D02*
X144261905Y-98074819D01*
X144261905Y-98074819D02*
X144500000Y-98074819D01*
X144500000Y-98074819D02*
X144642857Y-98122438D01*
X144642857Y-98122438D02*
X144738095Y-98217676D01*
X144738095Y-98217676D02*
X144785714Y-98312914D01*
X144785714Y-98312914D02*
X144833333Y-98503390D01*
X144833333Y-98503390D02*
X144833333Y-98646247D01*
X144833333Y-98646247D02*
X144785714Y-98836723D01*
X144785714Y-98836723D02*
X144738095Y-98931961D01*
X144738095Y-98931961D02*
X144642857Y-99027200D01*
X144642857Y-99027200D02*
X144500000Y-99074819D01*
X144500000Y-99074819D02*
X144261905Y-99074819D01*
X145166667Y-98074819D02*
X145785714Y-98074819D01*
X145785714Y-98074819D02*
X145452381Y-98455771D01*
X145452381Y-98455771D02*
X145595238Y-98455771D01*
X145595238Y-98455771D02*
X145690476Y-98503390D01*
X145690476Y-98503390D02*
X145738095Y-98551009D01*
X145738095Y-98551009D02*
X145785714Y-98646247D01*
X145785714Y-98646247D02*
X145785714Y-98884342D01*
X145785714Y-98884342D02*
X145738095Y-98979580D01*
X145738095Y-98979580D02*
X145690476Y-99027200D01*
X145690476Y-99027200D02*
X145595238Y-99074819D01*
X145595238Y-99074819D02*
X145309524Y-99074819D01*
X145309524Y-99074819D02*
X145214286Y-99027200D01*
X145214286Y-99027200D02*
X145166667Y-98979580D01*
X148548095Y-98754819D02*
X148548095Y-97754819D01*
X149119523Y-98754819D02*
X148690952Y-98183390D01*
X149119523Y-97754819D02*
X148548095Y-98326247D01*
X143476667Y-80033200D02*
X143619524Y-80080819D01*
X143619524Y-80080819D02*
X143857619Y-80080819D01*
X143857619Y-80080819D02*
X143952857Y-80033200D01*
X143952857Y-80033200D02*
X144000476Y-79985580D01*
X144000476Y-79985580D02*
X144048095Y-79890342D01*
X144048095Y-79890342D02*
X144048095Y-79795104D01*
X144048095Y-79795104D02*
X144000476Y-79699866D01*
X144000476Y-79699866D02*
X143952857Y-79652247D01*
X143952857Y-79652247D02*
X143857619Y-79604628D01*
X143857619Y-79604628D02*
X143667143Y-79557009D01*
X143667143Y-79557009D02*
X143571905Y-79509390D01*
X143571905Y-79509390D02*
X143524286Y-79461771D01*
X143524286Y-79461771D02*
X143476667Y-79366533D01*
X143476667Y-79366533D02*
X143476667Y-79271295D01*
X143476667Y-79271295D02*
X143524286Y-79176057D01*
X143524286Y-79176057D02*
X143571905Y-79128438D01*
X143571905Y-79128438D02*
X143667143Y-79080819D01*
X143667143Y-79080819D02*
X143905238Y-79080819D01*
X143905238Y-79080819D02*
X144048095Y-79128438D01*
X144381429Y-79080819D02*
X144619524Y-80080819D01*
X144619524Y-80080819D02*
X144810000Y-79366533D01*
X144810000Y-79366533D02*
X145000476Y-80080819D01*
X145000476Y-80080819D02*
X145238572Y-79080819D01*
X146095714Y-79080819D02*
X145619524Y-79080819D01*
X145619524Y-79080819D02*
X145571905Y-79557009D01*
X145571905Y-79557009D02*
X145619524Y-79509390D01*
X145619524Y-79509390D02*
X145714762Y-79461771D01*
X145714762Y-79461771D02*
X145952857Y-79461771D01*
X145952857Y-79461771D02*
X146048095Y-79509390D01*
X146048095Y-79509390D02*
X146095714Y-79557009D01*
X146095714Y-79557009D02*
X146143333Y-79652247D01*
X146143333Y-79652247D02*
X146143333Y-79890342D01*
X146143333Y-79890342D02*
X146095714Y-79985580D01*
X146095714Y-79985580D02*
X146048095Y-80033200D01*
X146048095Y-80033200D02*
X145952857Y-80080819D01*
X145952857Y-80080819D02*
X145714762Y-80080819D01*
X145714762Y-80080819D02*
X145619524Y-80033200D01*
X145619524Y-80033200D02*
X145571905Y-79985580D01*
X158951905Y-99074819D02*
X158951905Y-98074819D01*
X158951905Y-98074819D02*
X159190000Y-98074819D01*
X159190000Y-98074819D02*
X159332857Y-98122438D01*
X159332857Y-98122438D02*
X159428095Y-98217676D01*
X159428095Y-98217676D02*
X159475714Y-98312914D01*
X159475714Y-98312914D02*
X159523333Y-98503390D01*
X159523333Y-98503390D02*
X159523333Y-98646247D01*
X159523333Y-98646247D02*
X159475714Y-98836723D01*
X159475714Y-98836723D02*
X159428095Y-98931961D01*
X159428095Y-98931961D02*
X159332857Y-99027200D01*
X159332857Y-99027200D02*
X159190000Y-99074819D01*
X159190000Y-99074819D02*
X158951905Y-99074819D01*
X159904286Y-98170057D02*
X159951905Y-98122438D01*
X159951905Y-98122438D02*
X160047143Y-98074819D01*
X160047143Y-98074819D02*
X160285238Y-98074819D01*
X160285238Y-98074819D02*
X160380476Y-98122438D01*
X160380476Y-98122438D02*
X160428095Y-98170057D01*
X160428095Y-98170057D02*
X160475714Y-98265295D01*
X160475714Y-98265295D02*
X160475714Y-98360533D01*
X160475714Y-98360533D02*
X160428095Y-98503390D01*
X160428095Y-98503390D02*
X159856667Y-99074819D01*
X159856667Y-99074819D02*
X160475714Y-99074819D01*
X163238095Y-98754819D02*
X163238095Y-97754819D01*
X163809523Y-98754819D02*
X163380952Y-98183390D01*
X163809523Y-97754819D02*
X163238095Y-98326247D01*
X143951905Y-81574819D02*
X143951905Y-80574819D01*
X143951905Y-80574819D02*
X144190000Y-80574819D01*
X144190000Y-80574819D02*
X144332857Y-80622438D01*
X144332857Y-80622438D02*
X144428095Y-80717676D01*
X144428095Y-80717676D02*
X144475714Y-80812914D01*
X144475714Y-80812914D02*
X144523333Y-81003390D01*
X144523333Y-81003390D02*
X144523333Y-81146247D01*
X144523333Y-81146247D02*
X144475714Y-81336723D01*
X144475714Y-81336723D02*
X144428095Y-81431961D01*
X144428095Y-81431961D02*
X144332857Y-81527200D01*
X144332857Y-81527200D02*
X144190000Y-81574819D01*
X144190000Y-81574819D02*
X143951905Y-81574819D01*
X145380476Y-80908152D02*
X145380476Y-81574819D01*
X145142381Y-80527200D02*
X144904286Y-81241485D01*
X144904286Y-81241485D02*
X145523333Y-81241485D01*
X148238095Y-81254819D02*
X148238095Y-80254819D01*
X148809523Y-81254819D02*
X148380952Y-80683390D01*
X148809523Y-80254819D02*
X148238095Y-80826247D01*
X143446167Y-63495215D02*
X143589024Y-63542834D01*
X143589024Y-63542834D02*
X143827119Y-63542834D01*
X143827119Y-63542834D02*
X143922357Y-63495215D01*
X143922357Y-63495215D02*
X143969976Y-63447595D01*
X143969976Y-63447595D02*
X144017595Y-63352357D01*
X144017595Y-63352357D02*
X144017595Y-63257119D01*
X144017595Y-63257119D02*
X143969976Y-63161881D01*
X143969976Y-63161881D02*
X143922357Y-63114262D01*
X143922357Y-63114262D02*
X143827119Y-63066643D01*
X143827119Y-63066643D02*
X143636643Y-63019024D01*
X143636643Y-63019024D02*
X143541405Y-62971405D01*
X143541405Y-62971405D02*
X143493786Y-62923786D01*
X143493786Y-62923786D02*
X143446167Y-62828548D01*
X143446167Y-62828548D02*
X143446167Y-62733310D01*
X143446167Y-62733310D02*
X143493786Y-62638072D01*
X143493786Y-62638072D02*
X143541405Y-62590453D01*
X143541405Y-62590453D02*
X143636643Y-62542834D01*
X143636643Y-62542834D02*
X143874738Y-62542834D01*
X143874738Y-62542834D02*
X144017595Y-62590453D01*
X144350929Y-62542834D02*
X144589024Y-63542834D01*
X144589024Y-63542834D02*
X144779500Y-62828548D01*
X144779500Y-62828548D02*
X144969976Y-63542834D01*
X144969976Y-63542834D02*
X145208072Y-62542834D01*
X146017595Y-62876167D02*
X146017595Y-63542834D01*
X145779500Y-62495215D02*
X145541405Y-63209500D01*
X145541405Y-63209500D02*
X146160452Y-63209500D01*
X159451905Y-81574819D02*
X159451905Y-80574819D01*
X159451905Y-80574819D02*
X159690000Y-80574819D01*
X159690000Y-80574819D02*
X159832857Y-80622438D01*
X159832857Y-80622438D02*
X159928095Y-80717676D01*
X159928095Y-80717676D02*
X159975714Y-80812914D01*
X159975714Y-80812914D02*
X160023333Y-81003390D01*
X160023333Y-81003390D02*
X160023333Y-81146247D01*
X160023333Y-81146247D02*
X159975714Y-81336723D01*
X159975714Y-81336723D02*
X159928095Y-81431961D01*
X159928095Y-81431961D02*
X159832857Y-81527200D01*
X159832857Y-81527200D02*
X159690000Y-81574819D01*
X159690000Y-81574819D02*
X159451905Y-81574819D01*
X160975714Y-81574819D02*
X160404286Y-81574819D01*
X160690000Y-81574819D02*
X160690000Y-80574819D01*
X160690000Y-80574819D02*
X160594762Y-80717676D01*
X160594762Y-80717676D02*
X160499524Y-80812914D01*
X160499524Y-80812914D02*
X160404286Y-80860533D01*
X163738095Y-81254819D02*
X163738095Y-80254819D01*
X164309523Y-81254819D02*
X163880952Y-80683390D01*
X164309523Y-80254819D02*
X163738095Y-80826247D01*
X143666667Y-97033200D02*
X143809524Y-97080819D01*
X143809524Y-97080819D02*
X144047619Y-97080819D01*
X144047619Y-97080819D02*
X144142857Y-97033200D01*
X144142857Y-97033200D02*
X144190476Y-96985580D01*
X144190476Y-96985580D02*
X144238095Y-96890342D01*
X144238095Y-96890342D02*
X144238095Y-96795104D01*
X144238095Y-96795104D02*
X144190476Y-96699866D01*
X144190476Y-96699866D02*
X144142857Y-96652247D01*
X144142857Y-96652247D02*
X144047619Y-96604628D01*
X144047619Y-96604628D02*
X143857143Y-96557009D01*
X143857143Y-96557009D02*
X143761905Y-96509390D01*
X143761905Y-96509390D02*
X143714286Y-96461771D01*
X143714286Y-96461771D02*
X143666667Y-96366533D01*
X143666667Y-96366533D02*
X143666667Y-96271295D01*
X143666667Y-96271295D02*
X143714286Y-96176057D01*
X143714286Y-96176057D02*
X143761905Y-96128438D01*
X143761905Y-96128438D02*
X143857143Y-96080819D01*
X143857143Y-96080819D02*
X144095238Y-96080819D01*
X144095238Y-96080819D02*
X144238095Y-96128438D01*
X144571429Y-96080819D02*
X144809524Y-97080819D01*
X144809524Y-97080819D02*
X145000000Y-96366533D01*
X145000000Y-96366533D02*
X145190476Y-97080819D01*
X145190476Y-97080819D02*
X145428572Y-96080819D01*
X145714286Y-96080819D02*
X146333333Y-96080819D01*
X146333333Y-96080819D02*
X146000000Y-96461771D01*
X146000000Y-96461771D02*
X146142857Y-96461771D01*
X146142857Y-96461771D02*
X146238095Y-96509390D01*
X146238095Y-96509390D02*
X146285714Y-96557009D01*
X146285714Y-96557009D02*
X146333333Y-96652247D01*
X146333333Y-96652247D02*
X146333333Y-96890342D01*
X146333333Y-96890342D02*
X146285714Y-96985580D01*
X146285714Y-96985580D02*
X146238095Y-97033200D01*
X146238095Y-97033200D02*
X146142857Y-97080819D01*
X146142857Y-97080819D02*
X145857143Y-97080819D01*
X145857143Y-97080819D02*
X145761905Y-97033200D01*
X145761905Y-97033200D02*
X145714286Y-96985580D01*
X153490476Y-46207200D02*
X153633333Y-46254819D01*
X153633333Y-46254819D02*
X153871428Y-46254819D01*
X153871428Y-46254819D02*
X153966666Y-46207200D01*
X153966666Y-46207200D02*
X154014285Y-46159580D01*
X154014285Y-46159580D02*
X154061904Y-46064342D01*
X154061904Y-46064342D02*
X154061904Y-45969104D01*
X154061904Y-45969104D02*
X154014285Y-45873866D01*
X154014285Y-45873866D02*
X153966666Y-45826247D01*
X153966666Y-45826247D02*
X153871428Y-45778628D01*
X153871428Y-45778628D02*
X153680952Y-45731009D01*
X153680952Y-45731009D02*
X153585714Y-45683390D01*
X153585714Y-45683390D02*
X153538095Y-45635771D01*
X153538095Y-45635771D02*
X153490476Y-45540533D01*
X153490476Y-45540533D02*
X153490476Y-45445295D01*
X153490476Y-45445295D02*
X153538095Y-45350057D01*
X153538095Y-45350057D02*
X153585714Y-45302438D01*
X153585714Y-45302438D02*
X153680952Y-45254819D01*
X153680952Y-45254819D02*
X153919047Y-45254819D01*
X153919047Y-45254819D02*
X154061904Y-45302438D01*
X154395238Y-45254819D02*
X154633333Y-46254819D01*
X154633333Y-46254819D02*
X154823809Y-45540533D01*
X154823809Y-45540533D02*
X155014285Y-46254819D01*
X155014285Y-46254819D02*
X155252381Y-45254819D01*
X156157142Y-46254819D02*
X155585714Y-46254819D01*
X155871428Y-46254819D02*
X155871428Y-45254819D01*
X155871428Y-45254819D02*
X155776190Y-45397676D01*
X155776190Y-45397676D02*
X155680952Y-45492914D01*
X155680952Y-45492914D02*
X155585714Y-45540533D01*
X156538095Y-45350057D02*
X156585714Y-45302438D01*
X156585714Y-45302438D02*
X156680952Y-45254819D01*
X156680952Y-45254819D02*
X156919047Y-45254819D01*
X156919047Y-45254819D02*
X157014285Y-45302438D01*
X157014285Y-45302438D02*
X157061904Y-45350057D01*
X157061904Y-45350057D02*
X157109523Y-45445295D01*
X157109523Y-45445295D02*
X157109523Y-45540533D01*
X157109523Y-45540533D02*
X157061904Y-45683390D01*
X157061904Y-45683390D02*
X156490476Y-46254819D01*
X156490476Y-46254819D02*
X157109523Y-46254819D01*
D13*
%TO.C,U1*%
X124612285Y-45438295D02*
X124615333Y-45389527D01*
X124619397Y-45340506D01*
X124612285Y-45438295D01*
X142387713Y-62570850D02*
X142384665Y-62619618D01*
X142380601Y-62668639D01*
X142375268Y-62717407D01*
X142368664Y-62766175D01*
X142361044Y-62814690D01*
X142352153Y-62862950D01*
X142342248Y-62910955D01*
X142389492Y-62521574D01*
X142387713Y-62570850D01*
D14*
X122627000Y-45200000D02*
G75*
G02*
X122373000Y-45200000I-127000J0D01*
G01*
X122373000Y-45200000D02*
G75*
G02*
X122627000Y-45200000I127000J0D01*
G01*
D15*
X124600000Y-45500000D02*
G75*
G02*
X126600000Y-43500000I2044612J-44612D01*
G01*
X126600000Y-64500000D02*
G75*
G02*
X124600000Y-62500000I44857J2044857D01*
G01*
X140400000Y-43500000D02*
G75*
G02*
X142400000Y-45500000I-44610J-2044610D01*
G01*
X142400000Y-62500000D02*
G75*
G02*
X140400000Y-64500000I-2000000J0D01*
G01*
D16*
X126600000Y-64500000D02*
X140400000Y-64500000D01*
X129000000Y-49429270D02*
X129000000Y-42075970D01*
X140400000Y-43500910D02*
X126600000Y-43500910D01*
X129000000Y-42075970D02*
X138000000Y-42075970D01*
X124600000Y-45500000D02*
X124600000Y-62500000D01*
X138000000Y-42075970D02*
X138000000Y-49429270D01*
X138000000Y-49429270D02*
X129000000Y-49429270D01*
X142400000Y-62500000D02*
X142400000Y-45500000D01*
D15*
%TO.C,D7*%
X132270000Y-79500000D02*
X131620000Y-79500000D01*
X131020000Y-80620000D02*
X131020000Y-78380000D01*
X130900000Y-80620000D02*
X130900000Y-78380000D01*
X130780000Y-80620000D02*
X130780000Y-78380000D01*
X126730000Y-79500000D02*
X127380000Y-79500000D01*
X131620000Y-80620000D02*
X127380000Y-80620000D01*
X127380000Y-78380000D01*
X131620000Y-78380000D01*
X131620000Y-80620000D01*
%TO.C,SW11*%
X122825000Y-97555000D02*
X136795000Y-97555000D01*
X122825000Y-111525000D02*
X122825000Y-97555000D01*
X136795000Y-97555000D02*
X136795000Y-111525000D01*
X136795000Y-111525000D02*
X122825000Y-111525000D01*
%TO.C,SW6*%
X152975000Y-97555000D02*
X166945000Y-97555000D01*
X152975000Y-111525000D02*
X152975000Y-97555000D01*
X166945000Y-97555000D02*
X166945000Y-111525000D01*
X166945000Y-111525000D02*
X152975000Y-111525000D01*
%TO.C,D5*%
X147770000Y-113000000D02*
X147120000Y-113000000D01*
X146520000Y-114120000D02*
X146520000Y-111880000D01*
X146400000Y-114120000D02*
X146400000Y-111880000D01*
X146280000Y-114120000D02*
X146280000Y-111880000D01*
X142230000Y-113000000D02*
X142880000Y-113000000D01*
X147120000Y-114120000D02*
X142880000Y-114120000D01*
X142880000Y-111880000D01*
X147120000Y-111880000D01*
X147120000Y-114120000D01*
%TO.C,D10*%
X162770000Y-113000000D02*
X162120000Y-113000000D01*
X161520000Y-114120000D02*
X161520000Y-111880000D01*
X161400000Y-114120000D02*
X161400000Y-111880000D01*
X161280000Y-114120000D02*
X161280000Y-111880000D01*
X157230000Y-113000000D02*
X157880000Y-113000000D01*
X162120000Y-114120000D02*
X157880000Y-114120000D01*
X157880000Y-111880000D01*
X162120000Y-111880000D01*
X162120000Y-114120000D01*
%TO.C,D6*%
X132460000Y-113000000D02*
X131810000Y-113000000D01*
X131210000Y-114120000D02*
X131210000Y-111880000D01*
X131090000Y-114120000D02*
X131090000Y-111880000D01*
X130970000Y-114120000D02*
X130970000Y-111880000D01*
X126920000Y-113000000D02*
X127570000Y-113000000D01*
X131810000Y-114120000D02*
X127570000Y-114120000D01*
X127570000Y-111880000D01*
X131810000Y-111880000D01*
X131810000Y-114120000D01*
%TO.C,SW8*%
X152935000Y-80515000D02*
X166905000Y-80515000D01*
X152935000Y-94485000D02*
X152935000Y-80515000D01*
X166905000Y-80515000D02*
X166905000Y-94485000D01*
X166905000Y-94485000D02*
X152935000Y-94485000D01*
%TO.C,SW2*%
X122704500Y-80515000D02*
X136674500Y-80515000D01*
X122704500Y-94485000D02*
X122704500Y-80515000D01*
X136674500Y-80515000D02*
X136674500Y-94485000D01*
X136674500Y-94485000D02*
X122704500Y-94485000D01*
%TO.C,SW7*%
X166854500Y-77947015D02*
X152884500Y-77947015D01*
X166854500Y-63977015D02*
X166854500Y-77947015D01*
X152884500Y-77947015D02*
X152884500Y-63977015D01*
X152884500Y-63977015D02*
X166854500Y-63977015D01*
%TO.C,SW1*%
X122704500Y-63977015D02*
X136674500Y-63977015D01*
X122704500Y-77947015D02*
X122704500Y-63977015D01*
X136674500Y-63977015D02*
X136674500Y-77947015D01*
X136674500Y-77947015D02*
X122704500Y-77947015D01*
%TO.C,D8*%
X131620000Y-97620000D02*
X127380000Y-97620000D01*
X127380000Y-95380000D01*
X131620000Y-95380000D01*
X131620000Y-97620000D01*
X126730000Y-96500000D02*
X127380000Y-96500000D01*
X130780000Y-97620000D02*
X130780000Y-95380000D01*
X130900000Y-97620000D02*
X130900000Y-95380000D01*
X131020000Y-97620000D02*
X131020000Y-95380000D01*
X132270000Y-96500000D02*
X131620000Y-96500000D01*
%TO.C,D3*%
X147120000Y-97620000D02*
X142880000Y-97620000D01*
X142880000Y-95380000D01*
X147120000Y-95380000D01*
X147120000Y-97620000D01*
X142230000Y-96500000D02*
X142880000Y-96500000D01*
X146280000Y-97620000D02*
X146280000Y-95380000D01*
X146400000Y-97620000D02*
X146400000Y-95380000D01*
X146520000Y-97620000D02*
X146520000Y-95380000D01*
X147770000Y-96500000D02*
X147120000Y-96500000D01*
%TO.C,SW5*%
X151795000Y-94485000D02*
X137825000Y-94485000D01*
X151795000Y-80515000D02*
X151795000Y-94485000D01*
X137825000Y-94485000D02*
X137825000Y-80515000D01*
X137825000Y-80515000D02*
X151795000Y-80515000D01*
%TO.C,D2*%
X162460000Y-96500000D02*
X161810000Y-96500000D01*
X161210000Y-97620000D02*
X161210000Y-95380000D01*
X161090000Y-97620000D02*
X161090000Y-95380000D01*
X160970000Y-97620000D02*
X160970000Y-95380000D01*
X156920000Y-96500000D02*
X157570000Y-96500000D01*
X161810000Y-97620000D02*
X157570000Y-97620000D01*
X157570000Y-95380000D01*
X161810000Y-95380000D01*
X161810000Y-97620000D01*
%TO.C,D4*%
X147460000Y-79000000D02*
X146810000Y-79000000D01*
X146210000Y-80120000D02*
X146210000Y-77880000D01*
X146090000Y-80120000D02*
X146090000Y-77880000D01*
X145970000Y-80120000D02*
X145970000Y-77880000D01*
X141920000Y-79000000D02*
X142570000Y-79000000D01*
X146810000Y-80120000D02*
X142570000Y-80120000D01*
X142570000Y-77880000D01*
X146810000Y-77880000D01*
X146810000Y-80120000D01*
%TO.C,SW4*%
X137794500Y-63977015D02*
X151764500Y-63977015D01*
X137794500Y-77947015D02*
X137794500Y-63977015D01*
X151764500Y-63977015D02*
X151764500Y-77947015D01*
X151764500Y-77947015D02*
X137794500Y-77947015D01*
%TO.C,D1*%
X162310000Y-80120000D02*
X158070000Y-80120000D01*
X158070000Y-77880000D01*
X162310000Y-77880000D01*
X162310000Y-80120000D01*
X157420000Y-79000000D02*
X158070000Y-79000000D01*
X161470000Y-80120000D02*
X161470000Y-77880000D01*
X161590000Y-80120000D02*
X161590000Y-77880000D01*
X161710000Y-80120000D02*
X161710000Y-77880000D01*
X162960000Y-79000000D02*
X162310000Y-79000000D01*
%TO.C,SW3*%
X138015000Y-97515000D02*
X151985000Y-97515000D01*
X138015000Y-111485000D02*
X138015000Y-97515000D01*
X151985000Y-97515000D02*
X151985000Y-111485000D01*
X151985000Y-111485000D02*
X138015000Y-111485000D01*
%TO.C,SW12*%
X163000000Y-53000000D02*
G75*
G02*
X157000000Y-53000000I-3000000J0D01*
G01*
X157000000Y-53000000D02*
G75*
G02*
X163000000Y-53000000I3000000J0D01*
G01*
X166100000Y-58900000D02*
X162000000Y-58900000D01*
X166100000Y-56500000D02*
X166100000Y-58900000D01*
X166100000Y-51700000D02*
X166100000Y-54300000D01*
X166100000Y-47100000D02*
X166100000Y-49500000D01*
X162000000Y-47100000D02*
X166100000Y-47100000D01*
X160000000Y-52500000D02*
X160000000Y-53500000D01*
X159500000Y-53000000D02*
X160500000Y-53000000D01*
X158000000Y-58900000D02*
X153900000Y-58900000D01*
X158000000Y-47100000D02*
X153900000Y-47100000D01*
X153900000Y-47100000D02*
X153900000Y-58900000D01*
X152800000Y-48900000D02*
X152500000Y-49200000D01*
X152500000Y-49200000D02*
X152200000Y-48900000D01*
X152200000Y-48900000D02*
X152800000Y-48900000D01*
%TD*%
M02*
