%TF.GenerationSoftware,KiCad,Pcbnew,9.0.7*%
%TF.CreationDate,2026-09-19T19:42:13+12:00*%
%TF.ProjectId,Macropad,4d616372-6f70-4616-942e-6b696361645f,rev?*%
%TF.SameCoordinates,Original*%
%TF.FileFunction,Copper,L1,Top*%
%TF.FilePolarity,Positive*%
%FSLAX46Y46*%
G04 Gerber Fmt 4.6, Leading zero omitted, Abs format (unit mm)*
G04 Created by KiCad (PCBNEW 9.0.7) date 2026-09-19 19:42:13*
%MOMM*%
%LPD*%
G01*
G04 APERTURE LIST*
G04 Aperture macros list*
%AMRoundRect*
0 Rectangle with rounded corners*
0 $1 Rounding radius*
0 $2 $3 $4 $5 $6 $7 $8 $9 X,Y pos of 4 corners*
0 Add a 4 corners polygon primitive as box body*
4,1,4,$2,$3,$4,$5,$6,$7,$8,$9,$2,$3,0*
0 Add four circle primitives for the rounded corners*
1,1,$1+$1,$2,$3*
1,1,$1+$1,$4,$5*
1,1,$1+$1,$6,$7*
1,1,$1+$1,$8,$9*
0 Add four rect primitives between the rounded corners*
20,1,$1+$1,$2,$3,$4,$5,0*
20,1,$1+$1,$4,$5,$6,$7,0*
20,1,$1+$1,$6,$7,$8,$9,0*
20,1,$1+$1,$8,$9,$2,$3,0*%
G04 Aperture macros list end*
%TA.AperFunction,ComponentPad*%
%ADD10O,3.700000X1.700000*%
%TD*%
%TA.AperFunction,ComponentPad*%
%ADD11O,3.600000X1.700000*%
%TD*%
%TA.AperFunction,ComponentPad*%
%ADD12R,3.500000X1.700000*%
%TD*%
%TA.AperFunction,ComponentPad*%
%ADD13RoundRect,0.250000X0.550000X0.550000X-0.550000X0.550000X-0.550000X-0.550000X0.550000X-0.550000X0*%
%TD*%
%TA.AperFunction,ComponentPad*%
%ADD14C,1.600000*%
%TD*%
%TA.AperFunction,ComponentPad*%
%ADD15C,2.200000*%
%TD*%
%TA.AperFunction,ComponentPad*%
%ADD16C,2.000000*%
%TD*%
%TA.AperFunction,ComponentPad*%
%ADD17R,3.200000X2.000000*%
%TD*%
%TA.AperFunction,ComponentPad*%
%ADD18R,2.000000X2.000000*%
%TD*%
%TA.AperFunction,Conductor*%
%ADD19C,0.200000*%
%TD*%
G04 APERTURE END LIST*
D10*
%TO.P,U1,14,5V*%
%TO.N,unconnected-(U1-5V-Pad14)*%
X142125000Y-46380000D03*
%TO.P,U1,13,GND*%
%TO.N,Net-(U1-GND)*%
X142125000Y-48920000D03*
%TO.P,U1,12,3V3*%
%TO.N,unconnected-(U1-3V3-Pad12)*%
X142125000Y-51460000D03*
%TO.P,U1,11,PA6_A10_D10_MOSI*%
%TO.N,unconnected-(U1-PA6_A10_D10_MOSI-Pad11)*%
X142125000Y-54000000D03*
D11*
%TO.P,U1,10,PA5_A9_D9_MISO*%
%TO.N,Net-(U1-PA5_A9_D9_MISO)*%
X142125000Y-56540000D03*
%TO.P,U1,9,PA7_A8_D8_SCK*%
%TO.N,Net-(U1-PA7_A8_D8_SCK)*%
X142125000Y-59080000D03*
%TO.P,U1,8,PB09_A7_D7_RX*%
%TO.N,Net-(U1-PB09_A7_D7_RX)*%
X142125000Y-61620000D03*
%TO.P,U1,7,PB08_A6_D6_TX*%
%TO.N,/R1*%
X124875000Y-61620000D03*
%TO.P,U1,6,PA9_A5_D5_SCL*%
%TO.N,/R2*%
X124875000Y-59080000D03*
%TO.P,U1,5,PA8_A4_D4_SDA*%
%TO.N,/R3*%
X124875000Y-56540000D03*
%TO.P,U1,4,PA11_A3_D3*%
%TO.N,/C3*%
X124875000Y-54000000D03*
%TO.P,U1,3,PA10_A2_D2*%
%TO.N,/C2*%
X124875000Y-51460000D03*
%TO.P,U1,2,PA4_A1_D1*%
%TO.N,/C1*%
X124875000Y-48920000D03*
D12*
%TO.P,U1,1,PA02_A0_D0*%
%TO.N,unconnected-(U1-PA02_A0_D0-Pad1)*%
X124875000Y-46380000D03*
%TD*%
D13*
%TO.P,D7,1,K*%
%TO.N,/R1*%
X133310000Y-79500000D03*
D14*
%TO.P,D7,2,A*%
%TO.N,Net-(D7-A)*%
X125690000Y-79500000D03*
%TD*%
D15*
%TO.P,SW11,1,1*%
%TO.N,/C1*%
X132350000Y-99460000D03*
%TO.P,SW11,2,2*%
%TO.N,Net-(D6-A)*%
X126000000Y-102000000D03*
%TD*%
%TO.P,SW6,1,1*%
%TO.N,/C1*%
X162500000Y-99460000D03*
%TO.P,SW6,2,2*%
%TO.N,Net-(D10-A)*%
X156150000Y-102000000D03*
%TD*%
D13*
%TO.P,D5,1,K*%
%TO.N,/R2*%
X148810000Y-113000000D03*
D14*
%TO.P,D5,2,A*%
%TO.N,Net-(D5-A)*%
X141190000Y-113000000D03*
%TD*%
D13*
%TO.P,D10,1,K*%
%TO.N,/R3*%
X163810000Y-113000000D03*
D14*
%TO.P,D10,2,A*%
%TO.N,Net-(D10-A)*%
X156190000Y-113000000D03*
%TD*%
D13*
%TO.P,D6,1,K*%
%TO.N,/R1*%
X133500000Y-113000000D03*
D14*
%TO.P,D6,2,A*%
%TO.N,Net-(D6-A)*%
X125880000Y-113000000D03*
%TD*%
D15*
%TO.P,SW8,1,1*%
%TO.N,/C3*%
X162460000Y-82420000D03*
%TO.P,SW8,2,2*%
%TO.N,Net-(D2-A)*%
X156110000Y-84960000D03*
%TD*%
%TO.P,SW2,1,1*%
%TO.N,/C3*%
X132229500Y-82420000D03*
%TO.P,SW2,2,2*%
%TO.N,Net-(D8-A)*%
X125879500Y-84960000D03*
%TD*%
%TO.P,SW7,2,2*%
%TO.N,Net-(D1-A)*%
X156059500Y-68422015D03*
%TO.P,SW7,1,1*%
%TO.N,/C2*%
X162409500Y-65882015D03*
%TD*%
%TO.P,SW1,1,1*%
%TO.N,/C2*%
X132229500Y-65882015D03*
%TO.P,SW1,2,2*%
%TO.N,Net-(D7-A)*%
X125879500Y-68422015D03*
%TD*%
D14*
%TO.P,D8,2,A*%
%TO.N,Net-(D8-A)*%
X125690000Y-96500000D03*
D13*
%TO.P,D8,1,K*%
%TO.N,/R1*%
X133310000Y-96500000D03*
%TD*%
D14*
%TO.P,D3,2,A*%
%TO.N,Net-(D3-A)*%
X141190000Y-96500000D03*
D13*
%TO.P,D3,1,K*%
%TO.N,/R2*%
X148810000Y-96500000D03*
%TD*%
D15*
%TO.P,SW5,2,2*%
%TO.N,Net-(D3-A)*%
X141000000Y-84960000D03*
%TO.P,SW5,1,1*%
%TO.N,/C3*%
X147350000Y-82420000D03*
%TD*%
D13*
%TO.P,D2,1,K*%
%TO.N,/R3*%
X163500000Y-96500000D03*
D14*
%TO.P,D2,2,A*%
%TO.N,Net-(D2-A)*%
X155880000Y-96500000D03*
%TD*%
D13*
%TO.P,D4,1,K*%
%TO.N,/R2*%
X148500000Y-79000000D03*
D14*
%TO.P,D4,2,A*%
%TO.N,Net-(D4-A)*%
X140880000Y-79000000D03*
%TD*%
D15*
%TO.P,SW4,1,1*%
%TO.N,/C2*%
X147319500Y-65882015D03*
%TO.P,SW4,2,2*%
%TO.N,Net-(D4-A)*%
X140969500Y-68422015D03*
%TD*%
D14*
%TO.P,D1,2,A*%
%TO.N,Net-(D1-A)*%
X156380000Y-79000000D03*
D13*
%TO.P,D1,1,K*%
%TO.N,/R3*%
X164000000Y-79000000D03*
%TD*%
D15*
%TO.P,SW3,1,1*%
%TO.N,/C1*%
X147540000Y-99420000D03*
%TO.P,SW3,2,2*%
%TO.N,Net-(D5-A)*%
X141190000Y-101960000D03*
%TD*%
D16*
%TO.P,SW12,S2,S2*%
%TO.N,Net-(U1-GND)*%
X167000000Y-50500000D03*
%TO.P,SW12,S1,S1*%
%TO.N,Net-(U1-PA5_A9_D9_MISO)*%
X167000000Y-55500000D03*
D17*
%TO.P,SW12,MP*%
%TO.N,N/C*%
X160000000Y-58600000D03*
X160000000Y-47400000D03*
D16*
%TO.P,SW12,C,C*%
%TO.N,Net-(U1-GND)*%
X152500000Y-53000000D03*
%TO.P,SW12,B,B*%
%TO.N,Net-(U1-PA7_A8_D8_SCK)*%
X152500000Y-55500000D03*
D18*
%TO.P,SW12,A,A*%
%TO.N,Net-(U1-PB09_A7_D7_RX)*%
X152500000Y-50500000D03*
%TD*%
D19*
%TO.N,/R3*%
X133682301Y-56540000D02*
X125875000Y-56540000D01*
X147130500Y-69988199D02*
X133682301Y-56540000D01*
X155923950Y-80101000D02*
X147130500Y-71307550D01*
X147130500Y-71307550D02*
X147130500Y-69988199D01*
X162899000Y-80101000D02*
X155923950Y-80101000D01*
X164000000Y-79000000D02*
X162899000Y-80101000D01*
%TO.N,/R2*%
X135970500Y-67641701D02*
X127408799Y-59080000D01*
X135970500Y-75647550D02*
X135970500Y-67641701D01*
X127408799Y-59080000D02*
X125875000Y-59080000D01*
X147399000Y-80101000D02*
X140423950Y-80101000D01*
X148500000Y-79000000D02*
X147399000Y-80101000D01*
X140423950Y-80101000D02*
X135970500Y-75647550D01*
%TO.N,/R1*%
X133310000Y-69055000D02*
X125875000Y-61620000D01*
X133310000Y-79500000D02*
X133310000Y-69055000D01*
%TO.N,Net-(U1-GND)*%
X168301000Y-56038892D02*
X168301000Y-54599000D01*
X156301000Y-56801000D02*
X167538892Y-56801000D01*
X162500000Y-48798000D02*
X165298000Y-48798000D01*
X152500000Y-53000000D02*
X156301000Y-56801000D01*
X167538892Y-56801000D02*
X168301000Y-56038892D01*
X168301000Y-54599000D02*
X162500000Y-48798000D01*
X165298000Y-48798000D02*
X167000000Y-50500000D01*
X141247000Y-48798000D02*
X162500000Y-48798000D01*
X141125000Y-48920000D02*
X141247000Y-48798000D01*
%TO.N,Net-(U1-PA5_A9_D9_MISO)*%
X160699000Y-49199000D02*
X167000000Y-55500000D01*
X143858000Y-56540000D02*
X151199000Y-49199000D01*
X141125000Y-56540000D02*
X143858000Y-56540000D01*
X151199000Y-49199000D02*
X160699000Y-49199000D01*
%TO.N,Net-(U1-PA7_A8_D8_SCK)*%
X145229000Y-62771000D02*
X152500000Y-55500000D01*
X140698240Y-62771000D02*
X145229000Y-62771000D01*
X140024000Y-60181000D02*
X140024000Y-62096760D01*
X141125000Y-59080000D02*
X140024000Y-60181000D01*
X140024000Y-62096760D02*
X140698240Y-62771000D01*
%TO.N,Net-(U1-PB09_A7_D7_RX)*%
X151199000Y-53538892D02*
X151199000Y-51801000D01*
X151199000Y-51801000D02*
X152500000Y-50500000D01*
X143117892Y-61620000D02*
X151199000Y-53538892D01*
X141125000Y-61620000D02*
X143117892Y-61620000D01*
%TO.N,/R1*%
X133500000Y-104231530D02*
X133500000Y-113000000D01*
X134000000Y-103731530D02*
X133500000Y-104231530D01*
X134000000Y-97190000D02*
X134000000Y-103731530D01*
X133310000Y-96500000D02*
X134000000Y-97190000D01*
X133310000Y-87261030D02*
X133310000Y-96500000D01*
X133630500Y-79820500D02*
X133630500Y-86940530D01*
X133630500Y-86940530D02*
X133310000Y-87261030D01*
X133310000Y-79500000D02*
X133630500Y-79820500D01*
%TO.N,/R3*%
X164000000Y-82861314D02*
X164000000Y-79000000D01*
X163500000Y-83361314D02*
X164000000Y-82861314D01*
X163500000Y-96500000D02*
X163500000Y-83361314D01*
X163810000Y-104071530D02*
X163810000Y-113000000D01*
X163901000Y-103980530D02*
X163810000Y-104071530D01*
X163500000Y-96500000D02*
X163901000Y-96901000D01*
X163901000Y-96901000D02*
X163901000Y-103980530D01*
%TO.N,/R2*%
X148810000Y-104071530D02*
X148810000Y-113000000D01*
X149000000Y-103881530D02*
X148810000Y-104071530D01*
X149000000Y-96690000D02*
X149000000Y-103881530D01*
X148810000Y-96500000D02*
X149000000Y-96690000D01*
X148689000Y-87002530D02*
X148689000Y-96379000D01*
X149095765Y-86595765D02*
X148689000Y-87002530D01*
X149095765Y-79595765D02*
X149095765Y-86595765D01*
X148689000Y-96379000D02*
X148810000Y-96500000D01*
X148500000Y-79000000D02*
X149095765Y-79595765D01*
%TO.N,Net-(D10-A)*%
X156150000Y-112960000D02*
X156190000Y-113000000D01*
X156150000Y-102000000D02*
X156150000Y-112960000D01*
%TO.N,Net-(D5-A)*%
X141190000Y-101960000D02*
X141190000Y-113000000D01*
%TO.N,Net-(D2-A)*%
X156110000Y-96270000D02*
X155880000Y-96500000D01*
X156110000Y-84960000D02*
X156110000Y-96270000D01*
%TO.N,Net-(D1-A)*%
X156059500Y-78679500D02*
X156380000Y-79000000D01*
X156059500Y-68422015D02*
X156059500Y-78679500D01*
%TO.N,Net-(D3-A)*%
X141000000Y-96310000D02*
X141190000Y-96500000D01*
X141000000Y-84960000D02*
X141000000Y-96310000D01*
%TO.N,Net-(D4-A)*%
X140969500Y-78910500D02*
X140880000Y-79000000D01*
X140969500Y-68422015D02*
X140969500Y-78910500D01*
%TO.N,Net-(D6-A)*%
X126000000Y-112880000D02*
X126000000Y-102000000D01*
X125880000Y-113000000D02*
X126000000Y-112880000D01*
%TO.N,Net-(D8-A)*%
X125879500Y-84960000D02*
X125879500Y-96310500D01*
X125879500Y-96310500D02*
X125690000Y-96500000D01*
%TO.N,Net-(D7-A)*%
X125879500Y-79310500D02*
X125690000Y-79500000D01*
X125879500Y-68422015D02*
X125879500Y-79310500D01*
%TD*%
M02*
