%TF.GenerationSoftware,KiCad,Pcbnew,9.0.7*%
%TF.CreationDate,2026-09-19T19:42:13+12:00*%
%TF.ProjectId,Macropad,4d616372-6f70-4616-942e-6b696361645f,rev?*%
%TF.SameCoordinates,Original*%
%TF.FileFunction,Soldermask,Bot*%
%TF.FilePolarity,Negative*%
%FSLAX46Y46*%
G04 Gerber Fmt 4.6, Leading zero omitted, Abs format (unit mm)*
G04 Created by KiCad (PCBNEW 9.0.7) date 2026-09-19 19:42:13*
%MOMM*%
%LPD*%
G01*
G04 APERTURE LIST*
G04 Aperture macros list*
%AMRoundRect*
0 Rectangle with rounded corners*
0 $1 Rounding radius*
0 $2 $3 $4 $5 $6 $7 $8 $9 X,Y pos of 4 corners*
0 Add a 4 corners polygon primitive as box body*
4,1,4,$2,$3,$4,$5,$6,$7,$8,$9,$2,$3,0*
0 Add four circle primitives for the rounded corners*
1,1,$1+$1,$2,$3*
1,1,$1+$1,$4,$5*
1,1,$1+$1,$6,$7*
1,1,$1+$1,$8,$9*
0 Add four rect primitives between the rounded corners*
20,1,$1+$1,$2,$3,$4,$5,0*
20,1,$1+$1,$4,$5,$6,$7,0*
20,1,$1+$1,$6,$7,$8,$9,0*
20,1,$1+$1,$8,$9,$2,$3,0*%
G04 Aperture macros list end*
%ADD10O,3.700000X1.700000*%
%ADD11O,3.600000X1.700000*%
%ADD12R,3.500000X1.700000*%
%ADD13RoundRect,0.250000X0.550000X0.550000X-0.550000X0.550000X-0.550000X-0.550000X0.550000X-0.550000X0*%
%ADD14C,1.600000*%
%ADD15C,1.700000*%
%ADD16C,4.000000*%
%ADD17C,2.200000*%
%ADD18C,2.000000*%
%ADD19R,3.200000X2.000000*%
%ADD20R,2.000000X2.000000*%
G04 APERTURE END LIST*
D10*
%TO.C,U1*%
X142125000Y-46380000D03*
X142125000Y-48920000D03*
X142125000Y-51460000D03*
X142125000Y-54000000D03*
D11*
X142125000Y-56540000D03*
X142125000Y-59080000D03*
X142125000Y-61620000D03*
X124875000Y-61620000D03*
X124875000Y-59080000D03*
X124875000Y-56540000D03*
X124875000Y-54000000D03*
X124875000Y-51460000D03*
X124875000Y-48920000D03*
D12*
X124875000Y-46380000D03*
%TD*%
D13*
%TO.C,D7*%
X133310000Y-79500000D03*
D14*
X125690000Y-79500000D03*
%TD*%
D15*
%TO.C,SW11*%
X124730000Y-104540000D03*
D16*
X129810000Y-104540000D03*
D15*
X134890000Y-104540000D03*
D17*
X132350000Y-99460000D03*
X126000000Y-102000000D03*
%TD*%
D15*
%TO.C,SW6*%
X154880000Y-104540000D03*
D16*
X159960000Y-104540000D03*
D15*
X165040000Y-104540000D03*
D17*
X162500000Y-99460000D03*
X156150000Y-102000000D03*
%TD*%
D13*
%TO.C,D5*%
X148810000Y-113000000D03*
D14*
X141190000Y-113000000D03*
%TD*%
D13*
%TO.C,D10*%
X163810000Y-113000000D03*
D14*
X156190000Y-113000000D03*
%TD*%
D13*
%TO.C,D6*%
X133500000Y-113000000D03*
D14*
X125880000Y-113000000D03*
%TD*%
D15*
%TO.C,SW8*%
X154840000Y-87500000D03*
D16*
X159920000Y-87500000D03*
D15*
X165000000Y-87500000D03*
D17*
X162460000Y-82420000D03*
X156110000Y-84960000D03*
%TD*%
D15*
%TO.C,SW2*%
X124609500Y-87500000D03*
D16*
X129689500Y-87500000D03*
D15*
X134769500Y-87500000D03*
D17*
X132229500Y-82420000D03*
X125879500Y-84960000D03*
%TD*%
%TO.C,SW7*%
X156059500Y-68422015D03*
X162409500Y-65882015D03*
D15*
X164949500Y-70962015D03*
D16*
X159869500Y-70962015D03*
D15*
X154789500Y-70962015D03*
%TD*%
%TO.C,SW1*%
X124609500Y-70962015D03*
D16*
X129689500Y-70962015D03*
D15*
X134769500Y-70962015D03*
D17*
X132229500Y-65882015D03*
X125879500Y-68422015D03*
%TD*%
D14*
%TO.C,D8*%
X125690000Y-96500000D03*
D13*
X133310000Y-96500000D03*
%TD*%
D14*
%TO.C,D3*%
X141190000Y-96500000D03*
D13*
X148810000Y-96500000D03*
%TD*%
D17*
%TO.C,SW5*%
X141000000Y-84960000D03*
X147350000Y-82420000D03*
D15*
X149890000Y-87500000D03*
D16*
X144810000Y-87500000D03*
D15*
X139730000Y-87500000D03*
%TD*%
D13*
%TO.C,D2*%
X163500000Y-96500000D03*
D14*
X155880000Y-96500000D03*
%TD*%
D13*
%TO.C,D4*%
X148500000Y-79000000D03*
D14*
X140880000Y-79000000D03*
%TD*%
D15*
%TO.C,SW4*%
X139699500Y-70962015D03*
D16*
X144779500Y-70962015D03*
D15*
X149859500Y-70962015D03*
D17*
X147319500Y-65882015D03*
X140969500Y-68422015D03*
%TD*%
D14*
%TO.C,D1*%
X156380000Y-79000000D03*
D13*
X164000000Y-79000000D03*
%TD*%
D15*
%TO.C,SW3*%
X139920000Y-104500000D03*
D16*
X145000000Y-104500000D03*
D15*
X150080000Y-104500000D03*
D17*
X147540000Y-99420000D03*
X141190000Y-101960000D03*
%TD*%
D18*
%TO.C,SW12*%
X167000000Y-50500000D03*
X167000000Y-55500000D03*
D19*
X160000000Y-58600000D03*
X160000000Y-47400000D03*
D18*
X152500000Y-53000000D03*
X152500000Y-55500000D03*
D20*
X152500000Y-50500000D03*
%TD*%
M02*
